<svg fill="#FFFFFF" xmlns="http://www.w3.org/2000/svg"  viewBox="0 0 100 100" width="100px" height="100px"><path d="M 50 12.003906 C 49.170125 12.003781 48.340109 12.214719 47.599609 12.636719 L 18.410156 29.257812 C 16.924156 30.104812 16 31.683859 16 33.380859 L 16 66.621094 C 16 68.316094 16.923156 69.896141 18.410156 70.744141 L 47.599609 87.363281 C 48.338609 87.786281 49.168047 87.998047 49.998047 87.998047 C 50.827047 87.998047 51.657484 87.787234 52.396484 87.365234 L 81.589844 70.744141 C 83.075844 69.896141 84 68.315141 84 66.619141 L 84 33.378906 C 84 31.681906 83.076844 30.102813 81.589844 29.257812 L 52.398438 12.636719 C 51.659437 12.214219 50.829875 12.004031 50 12.003906 z M 49.998047 14.001953 C 50.485047 14.001953 50.974203 14.125047 51.408203 14.373047 L 80.601562 30.994141 C 81.464562 31.485141 82 32.399906 82 33.378906 L 82 66.619141 C 82 67.599141 81.462609 68.513859 80.599609 69.005859 L 51.40625 85.626953 C 50.53725 86.122953 49.458844 86.122953 48.589844 85.626953 L 19.398438 69.007812 C 18.536438 68.515812 18 67.600094 18 66.621094 L 18 33.380859 C 18 32.400859 18.536391 31.485141 19.400391 30.994141 L 48.589844 14.373047 C 49.023844 14.125047 49.511047 14.001953 49.998047 14.001953 z M 49.96875 16.496094 C 49.903984 16.503453 49.840047 16.522391 49.779297 16.556641 L 46.878906 18.185547 C 46.638906 18.320547 46.553453 18.624234 46.689453 18.865234 C 46.780453 19.028234 46.95 19.121094 47.125 19.121094 C 47.208 19.121094 47.291141 19.101641 47.369141 19.056641 L 50.269531 17.427734 C 50.509531 17.292734 50.596938 16.987094 50.460938 16.746094 C 50.360437 16.566094 50.163047 16.474016 49.96875 16.496094 z M 45.443359 19.035156 C 45.378594 19.042594 45.314656 19.063406 45.253906 19.097656 L 35.515625 24.564453 C 35.275625 24.699453 35.188219 25.003141 35.324219 25.244141 C 35.415219 25.407141 35.586719 25.5 35.761719 25.5 C 35.844719 25.5 35.927859 25.479547 36.005859 25.435547 L 45.744141 19.96875 C 45.984141 19.83375 46.071547 19.528109 45.935547 19.287109 C 45.835047 19.106359 45.637656 19.012844 45.443359 19.035156 z M 49.970703 25.955078 C 36.712703 25.955078 25.925781 36.742 25.925781 50 C 25.925781 63.259 36.712703 74.044922 49.970703 74.044922 C 58.581703 74.044922 66.588188 69.384813 70.867188 61.882812 C 70.934187 61.765813 70.950063 61.627047 70.914062 61.498047 C 70.878063 61.369047 70.790828 61.260312 70.673828 61.195312 L 60.353516 55.517578 C 60.117516 55.388578 59.818641 55.467172 59.681641 55.701172 C 57.657641 59.136172 53.935703 61.271484 49.970703 61.271484 C 43.756703 61.271484 38.699219 56.216 38.699219 50 C 38.699219 43.786 43.755703 38.728516 49.970703 38.728516 C 53.915703 38.728516 57.508078 40.749766 59.580078 44.134766 C 59.723078 44.367766 60.023859 44.440594 60.255859 44.308594 L 70.486328 38.462891 C 70.602328 38.395891 70.688656 38.28525 70.722656 38.15625 C 70.756656 38.02625 70.736922 37.888438 70.669922 37.773438 C 66.351922 30.484438 58.419703 25.955078 49.970703 25.955078 z M 49.970703 26.955078 C 57.898703 26.955078 65.352922 31.116609 69.544922 37.849609 L 60.171875 43.205078 C 57.883875 39.766078 54.105703 37.728516 49.970703 37.728516 C 43.204703 37.728516 37.699219 43.234 37.699219 50 C 37.699219 56.766 43.203703 62.271484 49.970703 62.271484 C 54.126703 62.271484 58.033156 60.120047 60.285156 56.623047 L 69.740234 61.824219 C 65.582234 68.758219 58.054703 73.044922 49.970703 73.044922 C 37.264703 73.044922 26.925781 62.707 26.925781 50 C 26.925781 37.294 37.264703 26.955078 49.970703 26.955078 z M 31.320312 26.964844 C 31.255547 26.972281 31.191609 26.991141 31.130859 27.025391 L 20.277344 33.117188 C 20.120344 33.205187 20.023438 33.371734 20.023438 33.552734 L 20.023438 63.25 C 20.023438 63.526 20.247438 63.75 20.523438 63.75 C 20.800437 63.75 21.022437 63.526 21.023438 63.25 L 21.023438 33.845703 L 31.621094 27.896484 C 31.861094 27.761484 31.946547 27.457797 31.810547 27.216797 C 31.710047 27.036047 31.514609 26.942531 31.320312 26.964844 z M 49.970703 28.955078 C 38.366703 28.955078 28.925781 38.396 28.925781 50 C 28.925781 58.833 34.514078 66.789828 42.830078 69.798828 C 42.886078 69.818828 42.943 69.828125 43 69.828125 C 43.204 69.828125 43.396703 69.702047 43.470703 69.498047 C 43.565703 69.238047 43.429922 68.951422 43.169922 68.857422 C 35.247922 65.990422 29.925781 58.413 29.925781 50 C 29.925781 38.947 38.917703 29.955078 49.970703 29.955078 C 50.246703 29.955078 50.470703 29.731078 50.470703 29.455078 C 50.470703 29.179078 50.246703 28.955078 49.970703 28.955078 z M 55.052734 29.625 C 54.859844 29.651859 54.693875 29.793891 54.640625 29.994141 C 54.569625 30.261141 54.729094 30.536469 54.996094 30.605469 C 59.100094 31.681469 62.836578 34.082234 65.517578 37.365234 C 65.617578 37.486234 65.759297 37.548828 65.904297 37.548828 C 66.016297 37.548828 66.128703 37.5125 66.220703 37.4375 C 66.434703 37.2625 66.466969 36.946422 66.292969 36.732422 C 63.478969 33.286422 59.557953 30.767672 55.251953 29.638672 C 55.184453 29.619672 55.117031 29.616047 55.052734 29.625 z M 79.476562 33.052734 C 79.200562 33.052734 78.976562 33.276734 78.976562 33.552734 L 78.976562 66.154297 L 65.503906 73.716797 C 65.263906 73.851797 65.178453 74.155484 65.314453 74.396484 C 65.405453 74.559484 65.575 74.652344 65.75 74.652344 C 65.833 74.652344 65.917141 74.632844 65.994141 74.589844 L 79.720703 66.884766 C 79.877703 66.796766 79.976562 66.630219 79.976562 66.449219 L 79.976562 33.552734 C 79.976562 33.276734 79.752562 33.052734 79.476562 33.052734 z M 46.21875 69.693359 C 45.94975 69.642359 45.686766 69.819797 45.634766 70.091797 C 45.582766 70.362797 45.76025 70.623781 46.03125 70.675781 C 47.32325 70.920781 48.649703 71.044922 49.970703 71.044922 C 50.246703 71.044922 50.470703 70.822875 50.470703 70.546875 C 50.470703 70.270875 50.246703 70.046875 49.970703 70.046875 C 48.711703 70.046875 47.44875 69.926359 46.21875 69.693359 z M 62.568359 75.408203 C 62.503594 75.415641 62.439656 75.436453 62.378906 75.470703 L 57.253906 78.347656 C 57.013906 78.482656 56.928453 78.786344 57.064453 79.027344 C 57.155453 79.190344 57.325 79.283203 57.5 79.283203 C 57.583 79.283203 57.666141 79.26375 57.744141 79.21875 L 62.869141 76.341797 C 63.109141 76.206797 63.196547 75.901156 63.060547 75.660156 C 62.960047 75.479406 62.762656 75.385891 62.568359 75.408203 z"/></svg>