<svg class="svg-icon" style="width: 1em;height: 1em;vertical-align: middle;fill: currentColor;overflow: hidden;" viewBox="0 0 1024 1024" version="1.1" xmlns="http://www.w3.org/2000/svg"><path d="M991.232 320.256c0-61.536-50.048-111.584-111.616-111.584S768 258.72 768 320.256a111.616 111.616 0 0 0 86.016 108.384C809.792 516.8 751.36 598.752 720.064 598.752c-30.464 0-91.872-88.864-153.984-259.136a125.536 125.536 0 0 0 75.104-115.136A126.432 126.432 0 0 0 514.88 98.208 126.464 126.464 0 0 0 388.544 224.48a125.44 125.44 0 0 0 75.36 115.232C397.792 522.88 340.256 590.368 316.64 590.368c-43.872 0-104.8-85.312-144.448-161.76a111.648 111.648 0 0 0 86.112-108.416c0-61.536-50.08-111.584-111.616-111.584S35.072 258.656 35.072 320.192c0 42.176 23.808 78.528 58.432 97.504L115.616 863.2a31.952 31.952 0 0 0 14.784 25.408c4.64 2.976 116.704 72.16 384.48 72.16s379.84-69.44 384.48-72.384a32.129 32.129 0 0 0 14.784-25.6l19.712-445.664a111.072 111.072 0 0 0 57.376-96.864z m-159.264 0c0-26.24 21.376-47.584 47.616-47.584s47.616 21.344 47.616 47.584c0 26.272-21.376 47.616-47.616 47.616s-47.616-21.344-47.616-47.616z m-379.456-95.744a62.336 62.336 0 0 1 124.64 0c0 31.84-24.064 58.272-56 61.536a29.6 29.6 0 0 0-6.24 1.28 31.456 31.456 0 0 0-6.304-1.28 61.888 61.888 0 0 1-56.096-61.536z m-305.856 48.16c26.272 0 47.616 21.344 47.616 47.584s-21.344 47.616-47.616 47.616-47.616-21.344-47.616-47.616c0-26.24 21.344-47.584 47.616-47.584z m704.32 568.896c-35.68 16.416-140.832 55.296-336.128 55.296-195.584 0-300.8-38.848-336.256-55.136L163.584 539.84c40.16 58.432 94.08 114.56 152.992 114.56 64.864 0 131.52-90.176 198.4-268.256 69.408 183.584 138.272 276.608 205.056 276.608 52.736 0 104.352-58.944 144.192-121.312l-13.248 300.128z" fill="#333333" /></svg>