<svg class="svg-icon" style="width: 1em;height: 1em;vertical-align: middle;fill: currentColor;overflow: hidden;" viewBox="0 0 1024 1024" version="1.1" xmlns="http://www.w3.org/2000/svg"><path d="M298.666667 170.666667a128 128 0 0 0-128 128v426.666666a128 128 0 0 0 128 128h426.666666a128 128 0 0 0 128-128V298.666667a128 128 0 0 0-128-128H298.666667z m0-85.333334h426.666666a213.333333 213.333333 0 0 1 213.333334 213.333334v426.666666a213.333333 213.333333 0 0 1-213.333334 213.333334H298.666667a213.333333 213.333333 0 0 1-213.333334-213.333334V298.666667a213.333333 213.333333 0 0 1 213.333334-213.333334z m213.333333 640a213.333333 213.333333 0 1 1 0-426.666666 213.333333 213.333333 0 0 1 0 426.666666z m0-85.333333a128 128 0 1 0 0-256 128 128 0 0 0 0 256z m234.666667-298.666667a64 64 0 1 1 0-128 64 64 0 0 1 0 128z" fill="#525A65" /></svg>