<svg width="22" height="22" viewBox="0 0 22 22" fill="none" xmlns="http://www.w3.org/2000/svg">
<path d="M4.96628 21.6948H0.798828V7.63763H4.96628V21.6948Z" fill="white"/>
<path d="M2.78067 5.84211C2.13879 5.89715 1.50466 5.66251 1.03215 5.19513C0.559649 4.72775 0.291951 4.07034 0.29398 3.38242C0.290394 2.68275 0.565868 2.01455 1.05149 1.54507C1.5371 1.07558 2.1869 0.849254 2.83823 0.922731C4.10985 0.922731 5.14069 2.02397 5.14069 3.38242C5.14069 4.74087 4.10985 5.84211 2.83823 5.84211H2.78067Z" fill="white"/>
<path d="M21.6273 21.6948H16.9073V14.4019C16.9073 12.4956 16.159 11.192 14.5358 11.192C13.5175 11.1983 12.6155 11.895 12.2909 12.9261C12.188 13.2967 12.1528 13.685 12.1873 14.0698V21.6948H7.49023C7.49023 21.6948 7.5478 8.78148 7.49023 7.61313H12.1642V9.81455C12.4405 8.85527 13.9371 7.47784 16.3202 7.47784C19.2788 7.47784 21.6043 9.49479 21.6043 13.8607L21.6273 21.6948Z" fill="white"/>
</svg>
