<svg fill="#FFFFFF" xmlns="http://www.w3.org/2000/svg"  viewBox="0 0 50 50" width="150px" height="150px"><path d="M 5 5 L 5 45 L 45 45 L 45 5 L 5 5 z M 11.804688 11.064453 C 11.912219 11.062172 12.022906 11.078078 12.128906 11.111328 C 12.558906 11.249328 22.682734 14.610969 26.427734 27.292969 C 26.536734 27.663969 26.421813 28.062313 26.132812 28.320312 C 25.844812 28.577313 25.434172 28.647141 25.076172 28.494141 C 25.008172 28.467141 18.135094 25.614047 13.621094 28.998047 C 13.443094 29.132047 13.231484 29.197266 13.021484 29.197266 C 12.797484 29.197266 12.574625 29.123609 12.390625 28.974609 C 12.035625 28.685609 11.921234 28.191391 12.115234 27.775391 C 12.157234 27.685391 16.262313 18.656656 11.070312 12.722656 C 10.775313 12.384656 10.742281 11.890625 10.988281 11.515625 C 11.172781 11.232875 11.482094 11.071297 11.804688 11.064453 z M 22.119141 13.361328 C 22.229297 13.358109 22.341672 13.372953 22.451172 13.408203 C 33.132172 16.792203 35.774813 26.527453 35.882812 26.939453 C 35.974812 27.293453 35.865609 27.669922 35.599609 27.919922 C 35.411609 28.096922 35.165063 28.189453 34.914062 28.189453 C 34.810063 28.189453 34.705516 28.173625 34.603516 28.140625 C 31.637516 27.172625 29.442922 27.706891 29.419922 27.712891 C 29.152922 27.779891 28.865813 27.733984 28.632812 27.583984 C 28.399812 27.434984 28.235547 27.196781 28.185547 26.925781 C 27.044547 20.741781 21.498406 15.121406 21.441406 15.066406 C 21.116406 14.741406 21.055922 14.234797 21.294922 13.841797 C 21.474922 13.545547 21.788672 13.370984 22.119141 13.361328 z M 14.580078 14.544922 C 16.437078 18.742922 15.661516 23.305406 14.853516 26.066406 C 18.154516 24.824406 21.726859 25.407188 23.880859 25.992188 C 21.520859 19.764188 17.410078 16.297922 14.580078 14.544922 z M 25.675781 17.019531 C 27.276781 19.206531 29.119266 22.265281 29.947266 25.613281 C 30.258266 25.582281 30.629641 25.560547 31.056641 25.560547 C 31.700641 25.560547 32.464312 25.610719 33.320312 25.761719 C 32.349313 23.551719 30.113781 19.644531 25.675781 17.019531 z M 36.888672 28.941406 C 37.331672 28.912406 37.738437 29.165172 37.898438 29.576172 C 38.057437 29.987172 37.928078 30.455562 37.580078 30.726562 C 37.389078 30.875563 33.442563 33.940125 30.726562 35.453125 C 31.075563 35.853125 31.251984 36 31.583984 36 C 31.945984 36 32.11225 35.842562 32.53125 35.351562 C 32.99125 34.812562 33.685 34 35 34 C 35.031 34 35.055937 34.015578 35.085938 34.017578 C 35.160938 34.012578 35.230547 34 35.310547 34 C 36.623547 34 37.316391 34.812563 37.775391 35.351562 C 38.192391 35.841563 38.358797 36 38.716797 36 C 39.269797 36 39.716797 36.447 39.716797 37 C 39.716797 37.553 39.269797 38 38.716797 38 C 37.404797 38 36.710953 37.187437 36.251953 36.648438 C 35.834953 36.158437 35.669547 36 35.310547 36 C 34.950547 36 34.785187 36.158437 34.367188 36.648438 C 33.908188 37.187437 33.214391 38 31.900391 38 C 31.869391 38 31.8435 37.985422 31.8125 37.982422 C 31.7365 37.988422 31.664984 38 31.583984 38 C 30.268984 38 29.575234 37.187438 29.115234 36.648438 C 28.696234 36.157438 28.529969 36 28.167969 36 C 27.807969 36 27.642609 36.158437 27.224609 36.648438 C 26.766609 37.187437 26.071812 38 24.757812 38 C 23.443812 38 22.750969 37.187437 22.292969 36.648438 C 21.874969 36.158437 21.707656 36 21.347656 36 C 20.987656 36 20.822297 36.158437 20.404297 36.648438 C 19.945297 37.187437 19.2515 38 17.9375 38 C 16.6235 38 15.931656 37.187437 15.472656 36.648438 C 15.056656 36.158437 14.892203 36 14.533203 36 C 14.173203 36 14.007844 36.158437 13.589844 36.648438 C 13.131844 37.187437 12.437047 38 11.123047 38 C 10.570047 38 10.123047 37.553 10.123047 37 C 10.123047 36.447 10.570047 36 11.123047 36 C 11.483047 36 11.648406 35.841563 12.066406 35.351562 C 12.225406 35.164563 12.416438 34.946281 12.648438 34.738281 L 11.078125 32.449219 C 10.877125 32.154219 10.847953 31.773172 11.001953 31.451172 C 11.155953 31.129172 11.470172 30.913719 11.826172 30.886719 L 36.888672 28.941406 z M 33.587891 31.201172 L 13.707031 32.746094 L 14.570312 34.003906 C 15.857313 34.019906 16.542094 34.818563 16.996094 35.351562 C 17.413094 35.841563 17.5785 36 17.9375 36 C 18.2975 36 18.462859 35.841563 18.880859 35.351562 C 19.339859 34.812563 20.032656 34 21.347656 34 C 22.662656 34 23.356453 34.812563 23.814453 35.351562 C 24.231453 35.841563 24.396812 36 24.757812 36 C 25.118813 36 25.283172 35.841563 25.701172 35.351562 C 26.159172 34.812563 26.853969 34 28.167969 34 C 28.459969 34 28.716172 34.045281 28.951172 34.113281 C 30.158172 33.572281 32.025891 32.318172 33.587891 31.201172 z"/></svg>