<?xml version="1.0" encoding="UTF-8"?>
<svg version="1.1" xmlns="http://www.w3.org/2000/svg" width="100" height="100">
<path d="M0 0 C33 0 66 0 100 0 C100 33 100 66 100 100 C67 100 34 100 0 100 C0 67 0 34 0 0 Z " fill="#FFFFFF" transform="translate(0,0)"/>
<path d="M0 0 C33 0 66 0 100 0 C100 33 100 66 100 100 C67 100 34 100 0 100 C0 67 0 34 0 0 Z M8 10 C7.80168484 12.54888124 7.72721738 14.98910221 7.74121094 17.5390625 C7.7377063 18.31642761 7.73420166 19.09379272 7.73059082 19.89471436 C7.72176794 22.47156632 7.72762455 25.0481451 7.734375 27.625 C7.73302851 29.41097059 7.73108811 31.19694082 7.72857666 32.98291016 C7.72562465 36.72887659 7.72992551 40.47474775 7.73925781 44.22070312 C7.75065241 49.02962833 7.74409334 53.83833031 7.73211288 58.64724731 C7.72489636 62.33603608 7.72718125 66.02477167 7.73236847 69.71356201 C7.73370554 71.48704047 7.73205524 73.26052371 7.72740936 75.03399658 C7.72234751 77.50977425 7.73004937 79.9851871 7.74121094 82.4609375 C7.73716248 83.19866394 7.73311401 83.93639038 7.72894287 84.69647217 C7.63830948 88.80069756 7.63830948 88.80069756 10 92 C12.54888124 92.19831516 14.98910221 92.27278262 17.5390625 92.25878906 C18.31642761 92.2622937 19.09379272 92.26579834 19.89471436 92.26940918 C22.47156632 92.27823206 25.0481451 92.27237545 27.625 92.265625 C29.41097059 92.26697149 31.19694082 92.26891189 32.98291016 92.27142334 C36.72887659 92.27437535 40.47474775 92.27007449 44.22070312 92.26074219 C49.02962833 92.24934759 53.83833031 92.25590666 58.64724731 92.26788712 C62.33603608 92.27510364 66.02477167 92.27281875 69.71356201 92.26763153 C71.48704047 92.26629446 73.26052371 92.26794476 75.03399658 92.27259064 C77.50977425 92.27765249 79.9851871 92.26995063 82.4609375 92.25878906 C83.19866394 92.26283752 83.93639038 92.26688599 84.69647217 92.27105713 C88.80069756 92.36169052 88.80069756 92.36169052 92 90 C92.19831516 87.45111876 92.27278262 85.01089779 92.25878906 82.4609375 C92.2622937 81.68357239 92.26579834 80.90620728 92.26940918 80.10528564 C92.27823206 77.52843368 92.27237545 74.9518549 92.265625 72.375 C92.26697149 70.58902941 92.26891189 68.80305918 92.27142334 67.01708984 C92.27437535 63.27112341 92.27007449 59.52525225 92.26074219 55.77929688 C92.24934759 50.97037167 92.25590666 46.16166969 92.26788712 41.35275269 C92.27510364 37.66396392 92.27281875 33.97522833 92.26763153 30.28643799 C92.26629446 28.51295953 92.26794476 26.73947629 92.27259064 24.96600342 C92.27765249 22.49022575 92.26995063 20.0148129 92.25878906 17.5390625 C92.26283752 16.80133606 92.26688599 16.06360962 92.27105713 15.30352783 C92.36169052 11.19930244 92.36169052 11.19930244 90 8 C87.45111876 7.80168484 85.01089779 7.72721738 82.4609375 7.74121094 C81.68357239 7.7377063 80.90620728 7.73420166 80.10528564 7.73059082 C77.52843368 7.72176794 74.9518549 7.72762455 72.375 7.734375 C70.58902941 7.73302851 68.80305918 7.73108811 67.01708984 7.72857666 C63.27112341 7.72562465 59.52525225 7.72992551 55.77929688 7.73925781 C50.97037167 7.75065241 46.16166969 7.74409334 41.35275269 7.73211288 C37.66396392 7.72489636 33.97522833 7.72718125 30.28643799 7.73236847 C28.51295953 7.73370554 26.73947629 7.73205524 24.96600342 7.72740936 C22.49022575 7.72234751 20.0148129 7.73004937 17.5390625 7.74121094 C16.43247284 7.73513824 16.43247284 7.73513824 15.30352783 7.72894287 C11.19930244 7.63830948 11.19930244 7.63830948 8 10 Z " fill="#000000" transform="translate(0,0)"/>
<path d="M0 0 C0.763125 0.0825 1.52625 0.165 2.3125 0.25 C5.27931758 4.87823543 5.51225858 7.94786373 4.83203125 13.19921875 C4.3125 15.25 4.3125 15.25 2.3125 18.25 C3.3025 18.25 4.2925 18.25 5.3125 18.25 C5.3125 18.91 5.3125 19.57 5.3125 20.25 C3.85025201 19.82576756 2.39276588 19.38509755 0.9375 18.9375 C0.12539062 18.69386719 -0.68671875 18.45023438 -1.5234375 18.19921875 C-3.6875 17.25 -3.6875 17.25 -5.6875 14.25 C-5.98828125 11.91015625 -5.98828125 11.91015625 -6 9.3125 C-6.01675781 8.45785156 -6.03351562 7.60320313 -6.05078125 6.72265625 C-5.46318637 2.7232201 -4.13881918 0.38500644 0 0 Z " fill="#000000" transform="translate(64.6875,39.75)"/>
<path d="M0 0 C0.99 0 1.98 0 3 0 C5.28571429 8.42857143 5.28571429 8.42857143 5 13 C5.66 13 6.32 13 7 13 C7.06058594 12.31292969 7.12117188 11.62585937 7.18359375 10.91796875 C7.26738281 10.01691406 7.35117187 9.11585937 7.4375 8.1875 C7.51871094 7.29417969 7.59992187 6.40085937 7.68359375 5.48046875 C8 3 8 3 9 0 C9.99 0 10.98 0 12 0 C13.2039337 3.75399798 13.09877617 7.33217412 13.0625 11.25 C13.05347656 12.51328125 13.04445313 13.7765625 13.03515625 15.078125 C13.02355469 16.04234375 13.01195312 17.0065625 13 18 C12.34 18 11.68 18 11 18 C11 13.71 11 9.42 11 5 C10.34 5 9.68 5 9 5 C8.93941406 5.61488281 8.87882812 6.22976562 8.81640625 6.86328125 C8.73261719 7.67152344 8.64882813 8.47976562 8.5625 9.3125 C8.48128906 10.11300781 8.40007813 10.91351563 8.31640625 11.73828125 C8 14 8 14 7 17 C6.34 17 5.68 17 5 17 C4.01 13.7 3.02 10.4 2 7 C1.67 10.63 1.34 14.26 1 18 C0.01 18 -0.98 18 -2 18 C-1.8590651 15.56212615 -1.71245458 13.12482147 -1.5625 10.6875 C-1.52318359 9.99720703 -1.48386719 9.30691406 -1.44335938 8.59570312 C-1.25072585 5.52838465 -0.97677283 2.93031848 0 0 Z " fill="#000000" transform="translate(20,40)"/>
<path d="M0 0 C0.99 0 1.98 0 3 0 C3 4.95 3 9.9 3 15 C4.65 15 6.3 15 8 15 C8 15.99 8 16.98 8 18 C5.36 18 2.72 18 0 18 C0 12.06 0 6.12 0 0 Z " fill="#000000" transform="translate(73,40)"/>
<path d="M0 0 C0.99 0 1.98 0 3 0 C4.16343227 2.32686453 4.19895988 3.84721413 4.25 6.4375 C4.27578125 7.21996094 4.3015625 8.00242187 4.328125 8.80859375 C3.92823089 11.47931509 3.05300878 12.31977439 1 14 C0.34 13.67 -0.32 13.34 -1 13 C-1.484375 11.07421875 -1.484375 11.07421875 -1.75 8.6875 C-1.84796875 7.90761719 -1.9459375 7.12773438 -2.046875 6.32421875 C-1.99392264 3.69866432 -1.32990442 2.23526243 0 0 Z " fill="#FFFFFF" transform="translate(63,42)"/>
<path d="M0 0 C0.78375 0.04125 1.5675 0.0825 2.375 0.125 C2.375 0.785 2.375 1.445 2.375 2.125 C1.055 2.455 -0.265 2.785 -1.625 3.125 C-1.625 4.115 -1.625 5.105 -1.625 6.125 C-0.3875 7.053125 -0.3875 7.053125 0.875 8 C3.375 10.125 3.375 10.125 3.9375 12.6875 C3.375 15.125 3.375 15.125 1.625 17 C-0.625 18.125 -0.625 18.125 -2.875 17.8125 C-3.4525 17.585625 -4.03 17.35875 -4.625 17.125 C-4.625 16.465 -4.625 15.805 -4.625 15.125 C-2.975 14.795 -1.325 14.465 0.375 14.125 C0.375 12.805 0.375 11.485 0.375 10.125 C-0.264375 9.815625 -0.90375 9.50625 -1.5625 9.1875 C-3.625 8.125 -3.625 8.125 -4.625 7.125 C-4.8125 4.6875 -4.8125 4.6875 -4.625 2.125 C-2.625 0.125 -2.625 0.125 0 0 Z " fill="#000000" transform="translate(52.625,39.875)"/>
<path d="M0 0 C0.99 0 1.98 0 3 0 C3.33 2.97 3.66 5.94 4 9 C4.66 9 5.32 9 6 9 C6.33 6.03 6.66 3.06 7 0 C7.66 0 8.32 0 9 0 C8.03587257 5.73939385 7.13333036 10.98667142 4 16 C3.01 16.66 2.02 17.32 1 18 C1.391875 17.2575 1.78375 16.515 2.1875 15.75 C3.40489872 10.13123666 1.63046877 5.41736398 0 0 Z " fill="#000000" transform="translate(36,45)"/>
</svg>
