<?xml version="1.0" encoding="UTF-8"?>
<svg version="1.1" xmlns="http://www.w3.org/2000/svg" width="100" height="100">
<path d="M0 0 C33 0 66 0 100 0 C100 33 100 66 100 100 C67 100 34 100 0 100 C0 67 0 34 0 0 Z " fill="#000000" transform="translate(0,0)"/>
<path d="M0 0 C5.94 0 11.88 0 18 0 C18.66 1.65 19.32 3.3 20 5 C21.3921875 4.9071875 21.3921875 4.9071875 22.8125 4.8125 C26 5 26 5 27.53125 6.23828125 C29.16095155 8.19305625 30.42993356 10.16198518 31.6875 12.375 C32.12449219 13.12523437 32.56148437 13.87546875 33.01171875 14.6484375 C34.13852692 17.32961742 34.28771763 19.11810703 34 22 C32.5 24.8125 32.5 24.8125 31 27 C31.99 27.33 32.98 27.66 34 28 C35.01971445 34.45819153 31.47580226 38.88739336 28 44 C27 45 27 45 23.4375 45.0625 C22.303125 45.041875 21.16875 45.02125 20 45 C19.67 46.65 19.34 48.3 19 50 C20.20398437 49.97679687 21.40796875 49.95359375 22.6484375 49.9296875 C24.22395215 49.91093137 25.79947348 49.89273101 27.375 49.875 C28.1690625 49.85824219 28.963125 49.84148438 29.78125 49.82421875 C31.85492015 49.80664527 33.92883241 49.89664832 36 50 C38 52 38 52 38.1953125 53.9453125 C38.13020833 55.96354167 38.06510417 57.98177083 38 60 C35.36 60 32.72 60 30 60 C30 59.01 30 58.02 30 57 C28.78441406 57.01160156 27.56882813 57.02320313 26.31640625 57.03515625 C24.73177236 57.04453278 23.14713682 57.05363313 21.5625 57.0625 C20.35883789 57.07506836 20.35883789 57.07506836 19.13085938 57.08789062 C17.08704779 57.0965143 15.04316098 57.0522815 13 57 C12 56 12 56 11.9375 53.4375 C11.958125 52.633125 11.97875 51.82875 12 51 C10.02 51 8.04 51 6 51 C6.01160156 51.99902344 6.02320312 52.99804688 6.03515625 54.02734375 C6.04417969 55.31769531 6.05320312 56.60804687 6.0625 57.9375 C6.07410156 59.22527344 6.08570312 60.51304688 6.09765625 61.83984375 C6 65 6 65 5 66 C3.48071962 66.07179964 1.95832518 66.08392007 0.4375 66.0625 C-0.80193359 66.04896484 -0.80193359 66.04896484 -2.06640625 66.03515625 C-3.02353516 66.01775391 -3.02353516 66.01775391 -4 66 C-4 63.69 -4 61.38 -4 59 C-3.01 59 -2.02 59 -1 59 C-1.33 54.38 -1.66 49.76 -2 45 C-4.31 45 -6.62 45 -9 45 C-11.21484375 42.8046875 -11.21484375 42.8046875 -12.9375 39.875 C-13.52402344 38.92367187 -14.11054688 37.97234375 -14.71484375 36.9921875 C-16.11143207 33.74055633 -16.25446132 31.50014141 -16 28 C-15.01 27.67 -14.02 27.34 -13 27 C-13.515625 26.319375 -14.03125 25.63875 -14.5625 24.9375 C-16.48960526 20.9995023 -16.12706583 19.22649688 -15 15 C-13.64057655 11.76875503 -12.2778127 8.68045636 -10 6 C-7.19314158 5.14381992 -4.93782175 5 -2 5 C-1.34 3.35 -0.68 1.7 0 0 Z " fill="#FFFFFF" transform="translate(41,6)"/>
<path d="M0 0 C3.64345196 2.94576967 5.79099354 5.11894185 6.3125 9.8125 C5.93193325 13.69428088 4.63085134 15.20472045 2 18 C2.90492187 18.22042969 2.90492187 18.22042969 3.828125 18.4453125 C8.05757429 19.63228698 10.51016925 20.47432797 13.5625 23.75 C15.20046154 27.4532174 15.39293111 29.99210265 15 34 C13.21169552 35.78830448 10.80418848 35.12848711 8.42358398 35.13894653 C7.64442627 35.1369223 6.86526855 35.13489807 6.0625 35.1328125 C4.86959351 35.13424759 4.86959351 35.13424759 3.65258789 35.13571167 C1.9679354 35.13639343 0.28328029 35.13453943 -1.40136719 35.13037109 C-3.98899197 35.12502275 -6.57644316 35.13031619 -9.1640625 35.13671875 C-10.79687539 35.13605797 -12.42968816 35.1347768 -14.0625 35.1328125 C-14.84165771 35.13483673 -15.62081543 35.13686096 -16.42358398 35.13894653 C-21.88504895 35.11495105 -21.88504895 35.11495105 -23 34 C-23.39293111 29.99210265 -23.20046154 27.4532174 -21.5625 23.75 C-18.16102319 20.09963464 -14.75834828 19.15908484 -10 18 C-10.680625 17.360625 -11.36125 16.72125 -12.0625 16.0625 C-14.43383839 12.31425545 -14.39020347 10.36516746 -13.6640625 6.09375 C-13 4 -13 4 -10.9375 1.4375 C-7.15515476 -0.4134349 -4.13048396 -0.99298503 0 0 Z " fill="#FFFFFF" transform="translate(29,59)"/>
<path d="M0 0 C1.87171875 -0.00386719 1.87171875 -0.00386719 3.78125 -0.0078125 C5.74578125 0.00378906 5.74578125 0.00378906 7.75 0.015625 C9.0596875 0.00789063 10.369375 0.00015625 11.71875 -0.0078125 C12.9665625 -0.00523438 14.214375 -0.00265625 15.5 0 C16.64984375 0.00225586 17.7996875 0.00451172 18.984375 0.00683594 C21.75 0.265625 21.75 0.265625 23.75 2.265625 C23.75 7.215625 23.75 12.165625 23.75 17.265625 C13.19 17.265625 2.63 17.265625 -8.25 17.265625 C-8.25 0.01618554 -8.25 0.01618554 0 0 Z " fill="#FFFFFF" transform="translate(67.25,67.734375)"/>
<path d="M0 0 C0.77915771 0.00202423 1.55831543 0.00404846 2.36108398 0.00613403 C3.15635498 0.00517731 3.95162598 0.00422058 4.77099609 0.00323486 C6.45564859 0.0025531 8.1403037 0.00440711 9.82495117 0.00857544 C12.41257595 0.01392378 15.00002714 0.00863034 17.58764648 0.00222778 C19.22045937 0.00288857 20.85327215 0.00416973 22.48608398 0.00613403 C23.2652417 0.0041098 24.04439941 0.00208557 24.84716797 0 C30.30863294 0.02399549 30.30863294 0.02399549 31.42358398 1.13894653 C31.54858398 3.63894653 31.54858398 3.63894653 31.42358398 6.13894653 C29.6352795 7.92725102 27.22777247 7.26743364 24.84716797 7.27789307 C24.06801025 7.27586884 23.28885254 7.2738446 22.48608398 7.27175903 C21.29317749 7.27319412 21.29317749 7.27319412 20.07617188 7.2746582 C18.39151938 7.27533996 16.70686427 7.27348596 15.0222168 7.26931763 C12.43459202 7.26396929 9.84714083 7.26926272 7.25952148 7.27566528 C5.6267086 7.2750045 3.99389582 7.27372334 2.36108398 7.27175903 C1.58192627 7.27378326 0.80276855 7.2758075 0 7.27789307 C-5.46146497 7.25389758 -5.46146497 7.25389758 -6.57641602 6.13894653 C-6.70141602 3.63894653 -6.70141602 3.63894653 -6.57641602 1.13894653 C-4.78811153 -0.64935795 -2.3806045 0.01045942 0 0 Z " fill="#FFFFFF" transform="translate(62.576416015625,86.86105346679688)"/>
<path d="M0 0 C3 0.5 3 0.5 4.9375 1.625 C6 3.5 6 3.5 5.875 6.5625 C5 9.5 5 9.5 2 11.5 C-0.5 11.4375 -0.5 11.4375 -3 10.5 C-4.8125 7.9375 -4.8125 7.9375 -6 5.5 C-3.81081081 0.63513514 -3.81081081 0.63513514 0 0 Z " fill="#000000" transform="translate(50,25.5)"/>
</svg>
