<?xml version="1.0" encoding="UTF-8"?>
<svg version="1.1" xmlns="http://www.w3.org/2000/svg" width="100" height="100">
<path d="M0 0 C1.32 0.33 2.64 0.66 4 1 C4 2.32 4 3.64 4 5 C5.98 5 7.96 5 10 5 C10 3.35 10 1.7 10 0 C11.32 0.33 12.64 0.66 14 1 C14 2.32 14 3.64 14 5 C15.98 5 17.96 5 20 5 C20.33 3.35 20.66 1.7 21 0 C21.99 0.33 22.98 0.66 24 1 C24 2.32 24 3.64 24 5 C25.98 5 27.96 5 30 5 C30.33 3.35 30.66 1.7 31 0 C31.99 0.33 32.98 0.66 34 1 C34 2.32 34 3.64 34 5 C35.98 5 37.96 5 40 5 C40.33 3.35 40.66 1.7 41 0 C41.99 0.33 42.98 0.66 44 1 C44 2.32 44 3.64 44 5 C45.98 5 47.96 5 50 5 C50.33 3.35 50.66 1.7 51 0 C51.99 0 52.98 0 54 0 C54 1.65 54 3.3 54 5 C55.3921875 5.12375 55.3921875 5.12375 56.8125 5.25 C60 6 60 6 61.875 7.8125 C63 10 63 10 63 14 C64.65 14 66.3 14 68 14 C67.67 15.32 67.34 16.64 67 18 C65.68 18 64.36 18 63 18 C63 19.98 63 21.96 63 24 C64.65 24 66.3 24 68 24 C67.67 25.32 67.34 26.64 67 28 C65.68 28 64.36 28 63 28 C63 29.98 63 31.96 63 34 C64.65 34.33 66.3 34.66 68 35 C67.67 35.99 67.34 36.98 67 38 C65.68 38 64.36 38 63 38 C63 39.98 63 41.96 63 44 C64.65 44.33 66.3 44.66 68 45 C67.67 45.99 67.34 46.98 67 48 C65.68 48 64.36 48 63 48 C63 49.98 63 51.96 63 54 C64.65 54.33 66.3 54.66 68 55 C67.67 55.99 67.34 56.98 67 58 C65.68 58 64.36 58 63 58 C63 59.98 63 61.96 63 64 C64.65 64.33 66.3 64.66 68 65 C68 65.99 68 66.98 68 68 C66.35 68 64.7 68 63 68 C62.9175 68.928125 62.835 69.85625 62.75 70.8125 C62 74 62 74 60.1875 75.875 C58 77 58 77 54 77 C54 78.65 54 80.3 54 82 C52.02 81.505 52.02 81.505 50 81 C50 79.68 50 78.36 50 77 C48.02 77 46.04 77 44 77 C43.67 78.65 43.34 80.3 43 82 C42.01 81.67 41.02 81.34 40 81 C40 79.68 40 78.36 40 77 C38.02 77 36.04 77 34 77 C33.67 78.65 33.34 80.3 33 82 C32.01 81.67 31.02 81.34 30 81 C30 79.68 30 78.36 30 77 C28.02 77 26.04 77 24 77 C23.67 78.65 23.34 80.3 23 82 C22.01 81.67 21.02 81.34 20 81 C20 79.68 20 78.36 20 77 C18.02 77 16.04 77 14 77 C13.67 78.65 13.34 80.3 13 82 C12.01 82 11.02 82 10 82 C10 80.35 10 78.7 10 77 C8.02 77 6.04 77 4 77 C3.67 78.65 3.34 80.3 3 82 C2.01 82 1.02 82 0 82 C0 80.35 0 78.7 0 77 C-0.928125 76.9175 -1.85625 76.835 -2.8125 76.75 C-6 76 -6 76 -7.875 74.1875 C-9 72 -9 72 -9 68 C-10.65 68 -12.3 68 -14 68 C-13.67 66.68 -13.34 65.36 -13 64 C-11.68 64 -10.36 64 -9 64 C-9 62.02 -9 60.04 -9 58 C-10.65 58 -12.3 58 -14 58 C-13.67 56.68 -13.34 55.36 -13 54 C-11.68 54 -10.36 54 -9 54 C-9 52.02 -9 50.04 -9 48 C-10.65 47.67 -12.3 47.34 -14 47 C-13.67 46.01 -13.34 45.02 -13 44 C-11.68 44 -10.36 44 -9 44 C-9 42.02 -9 40.04 -9 38 C-10.65 37.67 -12.3 37.34 -14 37 C-13.67 36.01 -13.34 35.02 -13 34 C-11.68 34 -10.36 34 -9 34 C-9 32.02 -9 30.04 -9 28 C-10.65 27.67 -12.3 27.34 -14 27 C-14 26.01 -14 25.02 -14 24 C-12.35 24 -10.7 24 -9 24 C-9 22.02 -9 20.04 -9 18 C-10.65 17.67 -12.3 17.34 -14 17 C-14 16.01 -14 15.02 -14 14 C-12.35 14 -10.7 14 -9 14 C-8.9175 13.071875 -8.835 12.14375 -8.75 11.1875 C-8 8 -8 8 -6.1875 6.125 C-4 5 -4 5 0 5 C0 3.35 0 1.7 0 0 Z M-4 11 C-4.0991056 12.86635788 -4.12799261 14.73648194 -4.12939453 16.60546875 C-4.13254669 17.80341064 -4.13569885 19.00135254 -4.13894653 20.2355957 C-4.1369223 21.53972412 -4.13489807 22.84385254 -4.1328125 24.1875 C-4.1334856 25.52889015 -4.13445568 26.87028019 -4.13571167 28.21166992 C-4.13718836 31.02621621 -4.13503504 33.84073082 -4.13037109 36.65527344 C-4.12467381 40.27040631 -4.12795297 43.88546495 -4.13394356 47.50059509 C-4.13754997 50.27144942 -4.13641022 53.04228602 -4.13381577 55.81314087 C-4.13282033 57.79689583 -4.13586741 59.78065147 -4.13894653 61.7644043 C-4.13579437 62.96234619 -4.13264221 64.16028809 -4.12939453 65.39453125 C-4.12859894 66.45518799 -4.12780334 67.51584473 -4.12698364 68.60864258 C-4.26972279 70.95314943 -4.26972279 70.95314943 -3 72 C-1.13364212 72.0991056 0.73648194 72.12799261 2.60546875 72.12939453 C4.40238159 72.13412277 4.40238159 72.13412277 6.2355957 72.13894653 C8.19178833 72.13591019 8.19178833 72.13591019 10.1875 72.1328125 C11.52889015 72.1334856 12.87028019 72.13445568 14.21166992 72.13571167 C17.02621621 72.13718836 19.84073082 72.13503504 22.65527344 72.13037109 C26.27040631 72.12467381 29.88546495 72.12795297 33.50059509 72.13394356 C36.27144942 72.13754997 39.04228602 72.13641022 41.81314087 72.13381577 C43.79689583 72.13282033 45.78065147 72.13586741 47.7644043 72.13894653 C48.96234619 72.13579437 50.16028809 72.13264221 51.39453125 72.12939453 C52.98551636 72.12820114 52.98551636 72.12820114 54.60864258 72.12698364 C56.95314943 72.26972279 56.95314943 72.26972279 58 71 C58.0991056 69.13364212 58.12799261 67.26351806 58.12939453 65.39453125 C58.13412277 63.59761841 58.13412277 63.59761841 58.13894653 61.7644043 C58.1369223 60.46027588 58.13489807 59.15614746 58.1328125 57.8125 C58.1334856 56.47110985 58.13445568 55.12971981 58.13571167 53.78833008 C58.13718836 50.97378379 58.13503504 48.15926918 58.13037109 45.34472656 C58.12467381 41.72959369 58.12795297 38.11453505 58.13394356 34.49940491 C58.13754997 31.72855058 58.13641022 28.95771398 58.13381577 26.18685913 C58.13282033 24.20310417 58.13586741 22.21934853 58.13894653 20.2355957 C58.13579437 19.03765381 58.13264221 17.83971191 58.12939453 16.60546875 C58.12859894 15.54481201 58.12780334 14.48415527 58.12698364 13.39135742 C58.26972279 11.04685057 58.26972279 11.04685057 57 10 C55.13364212 9.9008944 53.26351806 9.87200739 51.39453125 9.87060547 C50.19658936 9.86745331 48.99864746 9.86430115 47.7644043 9.86105347 C46.46027588 9.8630777 45.15614746 9.86510193 43.8125 9.8671875 C42.47110985 9.8665144 41.12971981 9.86554432 39.78833008 9.86428833 C36.97378379 9.86281164 34.15926918 9.86496496 31.34472656 9.86962891 C27.72959369 9.87532619 24.11453505 9.87204703 20.49940491 9.86605644 C17.72855058 9.86245003 14.95771398 9.86358978 12.18685913 9.86618423 C10.20310417 9.86717967 8.21934853 9.86413259 6.2355957 9.86105347 C5.03765381 9.86420563 3.83971191 9.86735779 2.60546875 9.87060547 C1.01448364 9.87179886 1.01448364 9.87179886 -0.60864258 9.87301636 C-2.95314943 9.73027721 -2.95314943 9.73027721 -4 11 Z " fill="#FFFFFF" transform="translate(23,9)"/>
<path d="M0 0 C1.43655854 -0.08131463 2.8744483 -0.13933559 4.3125 -0.1875 C5.51326172 -0.23970703 5.51326172 -0.23970703 6.73828125 -0.29296875 C9 0 9 0 10.78125 1.03125 C12.67312263 4.08735194 12.31396309 7.21462893 12.1875 10.6875 C12.17396484 11.38939453 12.16042969 12.09128906 12.14648438 12.81445312 C12.11120182 14.54329829 12.05739583 16.27174765 12 18 C10.0703125 17.65625 10.0703125 17.65625 8 17 C6.875 14.5 6.875 14.5 6 12 C5.34 11.67 4.68 11.34 4 11 C4 12.98 4 14.96 4 17 C2.68 17.33 1.36 17.66 0 18 C-1.48619895 15.02760209 -1.13177009 12.30380422 -1.125 9 C-1.12757812 7.741875 -1.13015625 6.48375 -1.1328125 5.1875 C-1 2 -1 2 0 0 Z M4 4 C4 4.99 4 5.98 4 7 C5.32 6.67 6.64 6.34 8 6 C7.67 5.34 7.34 4.68 7 4 C6.01 4 5.02 4 4 4 Z " fill="#FFFFFF" transform="translate(29,41)"/>
<path d="M0 0 C2.5048111 1.87860833 2.98700625 2.96101874 4 6 C4.09287771 7.68545724 4.12997204 9.374493 4.125 11.0625 C4.12757812 11.94035156 4.13015625 12.81820312 4.1328125 13.72265625 C4 16 4 16 3 18 C1.68 17.67 0.36 17.34 -1 17 C-1 15.68 -1 14.36 -1 13 C-2.32 13 -3.64 13 -5 13 C-5.33 14.65 -5.66 16.3 -6 18 C-6.99 18 -7.98 18 -9 18 C-9.1079859 15.56131832 -9.18726589 13.12740867 -9.25 10.6875 C-9.28351562 9.99720703 -9.31703125 9.30691406 -9.3515625 8.59570312 C-9.45051001 3.4751695 -9.45051001 3.4751695 -7.14453125 1.04296875 C-4.49986773 -0.24323373 -2.90585755 -0.44705501 0 0 Z M-4 5 C-4.33 6.32 -4.66 7.64 -5 9 C-3.68 9 -2.36 9 -1 9 C-1 7.68 -1 6.36 -1 5 C-1.99 5 -2.98 5 -4 5 Z " fill="#FFFFFF" transform="translate(68,41)"/>
<path d="M0 0 C9 0 9 0 12 2 C12.3125 5.5 12.3125 5.5 12 9 C10 11 10 11 6.875 11.125 C5.92625 11.08375 4.9775 11.0425 4 11 C4 12.98 4 14.96 4 17 C2.68 17.33 1.36 17.66 0 18 C0 12.06 0 6.12 0 0 Z M4 4 C4 4.99 4 5.98 4 7 C5.32 6.67 6.64 6.34 8 6 C7.67 5.34 7.34 4.68 7 4 C6.01 4 5.02 4 4 4 Z " fill="#FFFFFF" transform="translate(44,41)"/>
<path d="M0 0 C1.98 0.495 1.98 0.495 4 1 C3.34 2.32 2.68 3.64 2 5 C1.01 4.67 0.02 4.34 -1 4 C-0.67 2.68 -0.34 1.36 0 0 Z " fill="#FFFFFF" transform="translate(62,61)"/>
<path d="M0 0 C2.0625 0.4375 2.0625 0.4375 4 1 C4 1.99 4 2.98 4 4 C3.01 4.33 2.02 4.66 1 5 C0.34 3.68 -0.32 2.36 -1 1 C-0.67 0.67 -0.34 0.34 0 0 Z " fill="#FFFFFF" transform="translate(35,61)"/>
<path d="M0 0 C0.99 0.33 1.98 0.66 3 1 C2.67 2.32 2.34 3.64 2 5 C0.68 4.67 -0.64 4.34 -2 4 C-1.34 2.68 -0.68 1.36 0 0 Z " fill="#FFFFFF" transform="translate(36,34)"/>
<path d="M0 0 C0.99 0.66 1.98 1.32 3 2 C2.67 2.99 2.34 3.98 2 5 C0.68 4.67 -0.64 4.34 -2 4 C-2 3.01 -2 2.02 -2 1 C-1.34 0.67 -0.68 0.34 0 0 Z " fill="#FFFFFF" transform="translate(63,34)"/>
<path d="M0 0 C1.32 0.33 2.64 0.66 4 1 C3.67 2.32 3.34 3.64 3 5 C2.01 4.67 1.02 4.34 0 4 C0 2.68 0 1.36 0 0 Z " fill="#FFFFFF" transform="translate(55,61)"/>
<path d="M0 0 C0.99 0 1.98 0 3 0 C2.67 1.65 2.34 3.3 2 5 C1.01 4.67 0.02 4.34 -1 4 C-0.67 2.68 -0.34 1.36 0 0 Z " fill="#FFFFFF" transform="translate(42,61)"/>
<path d="M0 0 C0.99 0.33 1.98 0.66 3 1 C2.67 2.32 2.34 3.64 2 5 C1.01 5 0.02 5 -1 5 C-0.67 3.35 -0.34 1.7 0 0 Z " fill="#FFFFFF" transform="translate(56,34)"/>
<path d="M0 0 C1.32 0 2.64 0 4 0 C4 1.32 4 2.64 4 4 C2.68 4 1.36 4 0 4 C0 2.68 0 1.36 0 0 Z " fill="#FFFFFF" transform="translate(75,75)"/>
<path d="M0 0 C1.32 0 2.64 0 4 0 C4 1.32 4 2.64 4 4 C2.68 4 1.36 4 0 4 C0 2.68 0 1.36 0 0 Z " fill="#FFFFFF" transform="translate(68,75)"/>
<path d="M0 0 C1.98 0.495 1.98 0.495 4 1 C3.67 1.99 3.34 2.98 3 4 C1.68 3.67 0.36 3.34 -1 3 C-0.67 2.01 -0.34 1.02 0 0 Z " fill="#FFFFFF" transform="translate(62,75)"/>
<path d="M0 0 C1.32 0 2.64 0 4 0 C4 1.32 4 2.64 4 4 C2.68 4 1.36 4 0 4 C0 2.68 0 1.36 0 0 Z " fill="#FFFFFF" transform="translate(48,75)"/>
<path d="M0 0 C1.98 0.495 1.98 0.495 4 1 C3.67 1.99 3.34 2.98 3 4 C1.68 3.67 0.36 3.34 -1 3 C-0.67 2.01 -0.34 1.02 0 0 Z " fill="#FFFFFF" transform="translate(35,75)"/>
<path d="M0 0 C1.32 0 2.64 0 4 0 C4 1.32 4 2.64 4 4 C2.68 4 1.36 4 0 4 C0 2.68 0 1.36 0 0 Z " fill="#FFFFFF" transform="translate(28,75)"/>
<path d="M0 0 C1.32 0 2.64 0 4 0 C4 1.32 4 2.64 4 4 C2.68 4 1.36 4 0 4 C0 2.68 0 1.36 0 0 Z " fill="#FFFFFF" transform="translate(21,75)"/>
<path d="M0 0 C1.32 0 2.64 0 4 0 C4 1.32 4 2.64 4 4 C2.68 4 1.36 4 0 4 C0 2.68 0 1.36 0 0 Z " fill="#FFFFFF" transform="translate(75,68)"/>
<path d="M0 0 C1.98 0.495 1.98 0.495 4 1 C3.67 1.99 3.34 2.98 3 4 C1.68 3.67 0.36 3.34 -1 3 C-0.67 2.01 -0.34 1.02 0 0 Z " fill="#FFFFFF" transform="translate(62,68)"/>
<path d="M0 0 C1.32 0 2.64 0 4 0 C4 1.32 4 2.64 4 4 C2.68 4 1.36 4 0 4 C0 2.68 0 1.36 0 0 Z " fill="#FFFFFF" transform="translate(48,68)"/>
<path d="M0 0 C1.98 0.495 1.98 0.495 4 1 C3.67 1.99 3.34 2.98 3 4 C1.68 3.67 0.36 3.34 -1 3 C-0.67 2.01 -0.34 1.02 0 0 Z " fill="#FFFFFF" transform="translate(35,68)"/>
<path d="M0 0 C1.32 0 2.64 0 4 0 C4 1.32 4 2.64 4 4 C2.68 4 1.36 4 0 4 C0 2.68 0 1.36 0 0 Z " fill="#FFFFFF" transform="translate(21,68)"/>
<path d="M0 0 C0.99 0.33 1.98 0.66 3 1 C2.67 2.32 2.34 3.64 2 5 C1.01 4.67 0.02 4.34 -1 4 C-0.67 2.68 -0.34 1.36 0 0 Z " fill="#FFFFFF" transform="translate(76,61)"/>
<path d="M0 0 C0.99 0.33 1.98 0.66 3 1 C2.67 2.32 2.34 3.64 2 5 C1.01 4.67 0.02 4.34 -1 4 C-0.67 2.68 -0.34 1.36 0 0 Z " fill="#FFFFFF" transform="translate(69,61)"/>
<path d="M0 0 C0.99 0.33 1.98 0.66 3 1 C2.67 2.32 2.34 3.64 2 5 C1.01 4.67 0.02 4.34 -1 4 C-0.67 2.68 -0.34 1.36 0 0 Z " fill="#FFFFFF" transform="translate(49,61)"/>
<path d="M0 0 C0.99 0.33 1.98 0.66 3 1 C2.67 2.32 2.34 3.64 2 5 C1.01 4.67 0.02 4.34 -1 4 C-0.67 2.68 -0.34 1.36 0 0 Z " fill="#FFFFFF" transform="translate(29,61)"/>
<path d="M0 0 C0.99 0.33 1.98 0.66 3 1 C2.67 2.32 2.34 3.64 2 5 C1.01 4.67 0.02 4.34 -1 4 C-0.67 2.68 -0.34 1.36 0 0 Z " fill="#FFFFFF" transform="translate(22,61)"/>
<path d="M0 0 C1.32 0 2.64 0 4 0 C4 1.32 4 2.64 4 4 C2.68 4 1.36 4 0 4 C0 2.68 0 1.36 0 0 Z " fill="#FFFFFF" transform="translate(75,48)"/>
<path d="M0 0 C1.32 0 2.64 0 4 0 C4 1.32 4 2.64 4 4 C2.68 4 1.36 4 0 4 C0 2.68 0 1.36 0 0 Z " fill="#FFFFFF" transform="translate(21,48)"/>
<path d="M0 0 C0.99 0.33 1.98 0.66 3 1 C2.67 2.32 2.34 3.64 2 5 C1.01 4.67 0.02 4.34 -1 4 C-0.67 2.68 -0.34 1.36 0 0 Z " fill="#FFFFFF" transform="translate(76,34)"/>
<path d="M0 0 C0.99 0.33 1.98 0.66 3 1 C2.67 2.32 2.34 3.64 2 5 C1.01 4.67 0.02 4.34 -1 4 C-0.67 2.68 -0.34 1.36 0 0 Z " fill="#FFFFFF" transform="translate(69,34)"/>
<path d="M0 0 C0.99 0.33 1.98 0.66 3 1 C2.67 2.32 2.34 3.64 2 5 C1.01 4.67 0.02 4.34 -1 4 C-0.67 2.68 -0.34 1.36 0 0 Z " fill="#FFFFFF" transform="translate(49,34)"/>
<path d="M0 0 C0.99 0.33 1.98 0.66 3 1 C2.67 2.32 2.34 3.64 2 5 C1.01 4.67 0.02 4.34 -1 4 C-0.67 2.68 -0.34 1.36 0 0 Z " fill="#FFFFFF" transform="translate(42,34)"/>
<path d="M0 0 C0.99 0.33 1.98 0.66 3 1 C2.67 2.32 2.34 3.64 2 5 C1.01 4.67 0.02 4.34 -1 4 C-0.67 2.68 -0.34 1.36 0 0 Z " fill="#FFFFFF" transform="translate(29,34)"/>
<path d="M0 0 C0.99 0.33 1.98 0.66 3 1 C2.67 2.32 2.34 3.64 2 5 C1.01 4.67 0.02 4.34 -1 4 C-0.67 2.68 -0.34 1.36 0 0 Z " fill="#FFFFFF" transform="translate(22,34)"/>
<path d="M0 0 C1.32 0 2.64 0 4 0 C4 1.32 4 2.64 4 4 C2.68 4 1.36 4 0 4 C0 2.68 0 1.36 0 0 Z " fill="#FFFFFF" transform="translate(75,28)"/>
<path d="M0 0 C1.98 0.495 1.98 0.495 4 1 C3.67 1.99 3.34 2.98 3 4 C1.68 3.67 0.36 3.34 -1 3 C-0.67 2.01 -0.34 1.02 0 0 Z " fill="#FFFFFF" transform="translate(62,28)"/>
<path d="M0 0 C1.32 0 2.64 0 4 0 C4 1.32 4 2.64 4 4 C2.68 4 1.36 4 0 4 C0 2.68 0 1.36 0 0 Z " fill="#FFFFFF" transform="translate(48,28)"/>
<path d="M0 0 C1.98 0.495 1.98 0.495 4 1 C3.67 1.99 3.34 2.98 3 4 C1.68 3.67 0.36 3.34 -1 3 C-0.67 2.01 -0.34 1.02 0 0 Z " fill="#FFFFFF" transform="translate(35,28)"/>
<path d="M0 0 C1.32 0 2.64 0 4 0 C4 1.32 4 2.64 4 4 C2.68 4 1.36 4 0 4 C0 2.68 0 1.36 0 0 Z " fill="#FFFFFF" transform="translate(21,28)"/>
<path d="M0 0 C1.32 0 2.64 0 4 0 C4 1.32 4 2.64 4 4 C2.68 4 1.36 4 0 4 C0 2.68 0 1.36 0 0 Z " fill="#FFFFFF" transform="translate(75,21)"/>
<path d="M0 0 C1.32 0 2.64 0 4 0 C4 1.32 4 2.64 4 4 C2.68 4 1.36 4 0 4 C0 2.68 0 1.36 0 0 Z " fill="#FFFFFF" transform="translate(68,21)"/>
<path d="M0 0 C1.98 0.495 1.98 0.495 4 1 C3.67 1.99 3.34 2.98 3 4 C1.68 3.67 0.36 3.34 -1 3 C-0.67 2.01 -0.34 1.02 0 0 Z " fill="#FFFFFF" transform="translate(62,21)"/>
<path d="M0 0 C1.32 0 2.64 0 4 0 C4 1.32 4 2.64 4 4 C2.68 4 1.36 4 0 4 C0 2.68 0 1.36 0 0 Z " fill="#FFFFFF" transform="translate(48,21)"/>
<path d="M0 0 C1.98 0.495 1.98 0.495 4 1 C3.67 1.99 3.34 2.98 3 4 C1.68 3.67 0.36 3.34 -1 3 C-0.67 2.01 -0.34 1.02 0 0 Z " fill="#FFFFFF" transform="translate(35,21)"/>
<path d="M0 0 C1.32 0 2.64 0 4 0 C4 1.32 4 2.64 4 4 C2.68 4 1.36 4 0 4 C0 2.68 0 1.36 0 0 Z " fill="#FFFFFF" transform="translate(28,21)"/>
<path d="M0 0 C1.32 0 2.64 0 4 0 C4 1.32 4 2.64 4 4 C2.68 4 1.36 4 0 4 C0 2.68 0 1.36 0 0 Z " fill="#FFFFFF" transform="translate(21,21)"/>
<path d="M0 0 C1.32 0 2.64 0 4 0 C3.67 1.32 3.34 2.64 3 4 C2.01 4 1.02 4 0 4 C0 2.68 0 1.36 0 0 Z " fill="#FFFFFF" transform="translate(55,75)"/>
<path d="M0 0 C1.32 0 2.64 0 4 0 C4 1.32 4 2.64 4 4 C2.68 3.67 1.36 3.34 0 3 C0 2.01 0 1.02 0 0 Z " fill="#FFFFFF" transform="translate(41,75)"/>
<path d="M0 0 C0.99 0 1.98 0 3 0 C3 1.32 3 2.64 3 4 C1.68 4 0.36 4 -1 4 C-0.67 2.68 -0.34 1.36 0 0 Z " fill="#FFFFFF" transform="translate(69,68)"/>
<path d="M0 0 C1.32 0.33 2.64 0.66 4 1 C4 1.99 4 2.98 4 4 C2.68 4 1.36 4 0 4 C0 2.68 0 1.36 0 0 Z " fill="#FFFFFF" transform="translate(55,68)"/>
<path d="M0 0 C0.99 0 1.98 0 3 0 C3 1.32 3 2.64 3 4 C1.68 4 0.36 4 -1 4 C-0.67 2.68 -0.34 1.36 0 0 Z " fill="#FFFFFF" transform="translate(42,68)"/>
<path d="M0 0 C1.32 0.33 2.64 0.66 4 1 C4 1.99 4 2.98 4 4 C2.68 4 1.36 4 0 4 C0 2.68 0 1.36 0 0 Z " fill="#FFFFFF" transform="translate(28,68)"/>
<path d="M0 0 C1.32 0 2.64 0 4 0 C3.67 1.32 3.34 2.64 3 4 C2.01 4 1.02 4 0 4 C0 2.68 0 1.36 0 0 Z " fill="#FFFFFF" transform="translate(75,55)"/>
<path d="M0 0 C1.32 0 2.64 0 4 0 C4 1.32 4 2.64 4 4 C2.68 3.67 1.36 3.34 0 3 C0 2.01 0 1.02 0 0 Z " fill="#FFFFFF" transform="translate(21,55)"/>
<path d="M0 0 C1.32 0.33 2.64 0.66 4 1 C4 1.99 4 2.98 4 4 C2.68 4 1.36 4 0 4 C0 2.68 0 1.36 0 0 Z " fill="#FFFFFF" transform="translate(75,41)"/>
<path d="M0 0 C0.99 0 1.98 0 3 0 C3 1.32 3 2.64 3 4 C1.68 4 0.36 4 -1 4 C-0.67 2.68 -0.34 1.36 0 0 Z " fill="#FFFFFF" transform="translate(22,41)"/>
<path d="M0 0 C1.32 0 2.64 0 4 0 C4 1.32 4 2.64 4 4 C2.68 3.67 1.36 3.34 0 3 C0 2.01 0 1.02 0 0 Z " fill="#FFFFFF" transform="translate(68,28)"/>
<path d="M0 0 C1.32 0 2.64 0 4 0 C3.67 1.32 3.34 2.64 3 4 C2.01 4 1.02 4 0 4 C0 2.68 0 1.36 0 0 Z " fill="#FFFFFF" transform="translate(55,28)"/>
<path d="M0 0 C1.32 0 2.64 0 4 0 C4 1.32 4 2.64 4 4 C2.68 3.67 1.36 3.34 0 3 C0 2.01 0 1.02 0 0 Z " fill="#FFFFFF" transform="translate(41,28)"/>
<path d="M0 0 C1.32 0 2.64 0 4 0 C3.67 1.32 3.34 2.64 3 4 C2.01 4 1.02 4 0 4 C0 2.68 0 1.36 0 0 Z " fill="#FFFFFF" transform="translate(28,28)"/>
<path d="M0 0 C1.32 0.33 2.64 0.66 4 1 C4 1.99 4 2.98 4 4 C2.68 4 1.36 4 0 4 C0 2.68 0 1.36 0 0 Z " fill="#FFFFFF" transform="translate(55,21)"/>
<path d="M0 0 C0.99 0 1.98 0 3 0 C3 1.32 3 2.64 3 4 C1.68 4 0.36 4 -1 4 C-0.67 2.68 -0.34 1.36 0 0 Z " fill="#FFFFFF" transform="translate(42,21)"/>
</svg>
