<svg fill="#FFFFFF" xmlns="http://www.w3.org/2000/svg"  viewBox="0 0 24 24" width="240px" height="240px"><path d="M 11.5 2 L 11.5 3.5 L 10 3.5 L 10 4.5 L 11.5 4.5 L 11.5 6 L 12.5 6 L 12.5 4.5 L 14 4.5 L 14 3.5 L 12.5 3.5 L 12.5 2 L 11.5 2 z M 6 4 L 6 6 L 4 6 L 4 7 L 6 7 L 6 9 L 7 9 L 7 7 L 9 7 L 9 6 L 7 6 L 7 4 L 6 4 z M 17 4 L 17 6 L 15 6 L 15 7 L 17 7 L 17 9 L 18 9 L 18 7 L 20 7 L 20 6 L 18 6 L 18 4 L 17 4 z M 11 8 L 11 11 L 8 11 L 8 13 L 11 13 L 11 16 L 13 16 L 13 13 L 16 13 L 16 11 L 13 11 L 13 8 L 11 8 z M 3.5 10 L 3.5 11.5 L 2 11.5 L 2 12.5 L 3.5 12.5 L 3.5 14 L 4.5 14 L 4.5 12.5 L 6 12.5 L 6 11.5 L 4.5 11.5 L 4.5 10 L 3.5 10 z M 19.5 10 L 19.5 11.5 L 18 11.5 L 18 12.5 L 19.5 12.5 L 19.5 14 L 20.5 14 L 20.5 12.5 L 22 12.5 L 22 11.5 L 20.5 11.5 L 20.5 10 L 19.5 10 z M 6 15 L 6 17 L 4 17 L 4 18 L 6 18 L 6 20 L 7 20 L 7 18 L 9 18 L 9 17 L 7 17 L 7 15 L 6 15 z M 17 15 L 17 17 L 15 17 L 15 18 L 17 18 L 17 20 L 18 20 L 18 18 L 20 18 L 20 17 L 18 17 L 18 15 L 17 15 z M 11.5 18 L 11.5 19.5 L 10 19.5 L 10 20.5 L 11.5 20.5 L 11.5 22 L 12.5 22 L 12.5 20.5 L 14 20.5 L 14 19.5 L 12.5 19.5 L 12.5 18 L 11.5 18 z"/></svg>