<svg fill="#FFFFFF" xmlns="http://www.w3.org/2000/svg"  viewBox="0 0 100 100" width="100px" height="100px"><path d="M 48.630859 21.996094 C 41.118859 21.996094 36.884047 27.128813 29.873047 35.632812 C 29.871047 35.634813 29.870141 35.637625 29.869141 35.640625 C 29.517141 36.066625 29.579859 36.695875 30.005859 37.046875 C 30.431859 37.397875 31.059109 37.337156 31.412109 36.910156 L 31.414062 36.908203 C 32.527062 35.560203 34.980516 34.723969 37.978516 34.667969 C 42.642516 34.551969 49.345562 36.394141 54.101562 41.744141 C 59.217562 47.499141 66.629531 54.359375 72.894531 54.359375 C 81.177531 54.359375 88.118938 47.705547 91.460938 36.560547 C 91.612937 36.050547 91.337937 35.511031 90.835938 35.332031 C 90.333937 35.156031 89.779172 35.402531 89.576172 35.894531 C 88.538172 38.412531 86.813219 40.024641 84.449219 40.681641 C 80.664219 41.737641 76.11575 40.100469 74.09375 38.605469 C 71.38275 36.599469 69.179781 34.234266 67.050781 31.947266 C 62.287781 26.829266 57.788859 21.996094 48.630859 21.996094 z M 48.630859 23.996094 C 56.918859 23.996094 60.936891 28.310594 65.587891 33.308594 C 67.778891 35.661594 70.042344 38.097891 72.902344 40.212891 C 75.088344 41.830891 80.300328 43.911422 84.986328 42.607422 C 85.838328 42.370422 86.629469 42.029797 87.355469 41.591797 C 83.953469 48.427797 78.785531 52.359375 72.894531 52.359375 C 68.585531 52.359375 62.441703 48.118016 55.595703 40.416016 C 50.505703 34.690016 43.392969 32.664062 38.292969 32.664062 C 38.174969 32.664062 38.057406 32.664969 37.941406 32.667969 C 36.754406 32.689969 35.640953 32.820781 34.626953 33.050781 C 39.620953 27.177781 43.158859 23.996094 48.630859 23.996094 z M 50 25.5 C 49.724 25.5 49.5 25.724 49.5 26 C 49.5 26.276 49.724 26.5 50 26.5 C 55.973 26.5 60.074969 31.028219 64.417969 35.824219 C 66.356969 37.963219 68.361969 40.177406 70.542969 41.941406 C 72.567969 43.580406 76.801828 46.066406 80.923828 46.066406 C 81.437828 46.066406 81.950078 46.027359 82.455078 45.943359 C 82.728078 45.898359 82.912188 45.641141 82.867188 45.369141 C 82.822187 45.098141 82.564969 44.904031 82.292969 44.957031 C 78.073969 45.650031 73.317922 42.901063 71.169922 41.164062 C 69.049922 39.449063 67.071203 37.264344 65.158203 35.152344 C 60.860203 30.406344 56.416 25.5 50 25.5 z M 46.779297 25.775391 C 44.591297 26.201391 42.962656 27.090984 40.722656 28.583984 C 40.492656 28.736984 40.429031 29.048344 40.582031 29.277344 C 40.679031 29.422344 40.838 29.5 41 29.5 C 41.096 29.5 41.191391 29.473016 41.275391 29.416016 C 43.407391 27.995016 44.94675 27.150813 46.96875 26.757812 C 47.23975 26.704813 47.418234 26.442875 47.365234 26.171875 C 47.313234 25.900875 47.053297 25.729391 46.779297 25.775391 z M 27.486328 45.640625 C 19.974328 45.640625 15.741469 50.773344 8.7304688 59.277344 C 8.7294687 59.279344 8.7275625 59.281203 8.7265625 59.283203 C 8.3745625 59.709203 8.4353281 60.337453 8.8613281 60.689453 C 9.2883281 61.040453 9.9185312 60.982687 10.269531 60.554688 L 10.269531 60.552734 C 11.414531 59.166734 13.951641 58.31725 17.056641 58.28125 C 21.694641 58.22025 28.350219 60.061906 32.949219 65.378906 C 39.991219 73.520906 46.670906 78.003906 51.753906 78.003906 C 60.037906 78.003906 66.976406 71.351125 70.316406 60.203125 C 70.468406 59.693125 70.195359 59.153609 69.693359 58.974609 C 69.192359 58.796609 68.636594 59.042156 68.433594 59.535156 C 67.336594 62.195156 65.508047 63.868766 62.998047 64.509766 C 59.419047 65.426766 55.165422 64.039438 52.982422 62.273438 C 50.566422 60.319437 48.534312 58.126906 46.570312 56.003906 C 41.637313 50.674906 36.979328 45.640625 27.486328 45.640625 z M 27.490234 47.640625 C 36.108234 47.640625 40.277469 52.144328 45.105469 57.361328 C 47.118469 59.536328 49.200516 61.786078 51.728516 63.830078 C 54.353516 65.954078 59.237094 67.536266 63.496094 66.447266 C 64.462094 66.201266 65.355969 65.825125 66.167969 65.328125 C 62.764969 72.108125 57.617906 76.003906 51.753906 76.003906 C 47.260906 76.003906 41.120844 71.765313 34.464844 64.070312 C 29.490844 58.319312 22.361812 56.279297 17.257812 56.279297 C 17.183813 56.279297 17.107156 56.28025 17.035156 56.28125 C 15.764156 56.29525 14.574047 56.430734 13.498047 56.677734 C 18.485047 50.815734 22.023234 47.640625 27.490234 47.640625 z M 28.5 49 C 28.224 49 28 49.224 28 49.5 C 28 49.776 28.224 50 28.5 50 C 34.473 50 38.574969 54.528219 42.917969 59.324219 C 44.856969 61.463219 46.861969 63.677406 49.042969 65.441406 C 51.067969 67.080406 55.301828 69.566406 59.423828 69.566406 C 59.937828 69.566406 60.450078 69.527359 60.955078 69.443359 C 61.228078 69.398359 61.412188 69.141141 61.367188 68.869141 C 61.322187 68.598141 61.066969 68.408031 60.792969 68.457031 C 56.576969 69.157031 51.817922 66.401062 49.669922 64.664062 C 47.549922 62.949062 45.571203 60.764344 43.658203 58.652344 C 39.360203 53.906344 34.916 49 28.5 49 z M 26.058594 49.148438 C 23.482594 49.493437 21.735656 50.407984 19.222656 52.083984 C 18.992656 52.236984 18.929031 52.548344 19.082031 52.777344 C 19.179031 52.922344 19.338 53 19.5 53 C 19.596 53 19.692344 52.973016 19.777344 52.916016 C 22.163344 51.326016 23.810406 50.459625 26.191406 50.140625 C 26.465406 50.103625 26.656141 49.851125 26.619141 49.578125 C 26.582141 49.304125 26.329594 49.103437 26.058594 49.148438 z"/></svg>