<?xml version="1.0" encoding="UTF-8"?>
<svg version="1.1" xmlns="http://www.w3.org/2000/svg" width="500" height="500">
<path d="M0 0 C1.10320587 -0.0230294 1.10320587 -0.0230294 2.22869873 -0.04652405 C25.77718849 -0.44638829 44.66957586 2.49064865 65.375 14.30859375 C66.19742188 14.7778125 67.01984375 15.24703125 67.8671875 15.73046875 C70.14491351 17.14883293 72.24985427 18.66919562 74.375 20.30859375 C75.13562744 20.89519775 75.13562744 20.89519775 75.91162109 21.49365234 C100.07634282 40.4200141 114.58932451 66.95006708 118.625 97.30859375 C122.11880664 127.49640574 115.20472267 158.74852838 96.33203125 182.92578125 C94.96729222 184.64102703 93.5932601 186.34894972 92.20703125 188.046875 C91.00880966 189.52612938 89.8571322 191.04464315 88.76171875 192.6015625 C88.07529297 193.44654297 88.07529297 193.44654297 87.375 194.30859375 C86.715 194.30859375 86.055 194.30859375 85.375 194.30859375 C85.375 194.96859375 85.375 195.62859375 85.375 196.30859375 C84.715 196.30859375 84.055 196.30859375 83.375 196.30859375 C83.375 196.96859375 83.375 197.62859375 83.375 198.30859375 C77.26726118 204.01676087 70.43603822 208.86275487 63.375 213.30859375 C62.65441406 213.79972656 61.93382812 214.29085937 61.19140625 214.796875 C39.62958076 228.86842047 12.071499 230.7240676 -12.55371094 225.75732422 C-32.24753026 221.49079429 -51.04592996 210.04403229 -64.625 195.30859375 C-65.98625 193.97828125 -65.98625 193.97828125 -67.375 192.62109375 C-73.625 186.19748264 -73.625 186.19748264 -73.625 183.30859375 C-74.285 183.30859375 -74.945 183.30859375 -75.625 183.30859375 C-93.61232781 160.36259719 -101.15753311 129.65027035 -98.40234375 100.99267578 C-97.77091065 96.02903351 -96.75573996 91.17938643 -95.625 86.30859375 C-95.4693457 85.5913916 -95.31369141 84.87418945 -95.15332031 84.13525391 C-89.18540494 57.13669063 -72.30686287 32.02989408 -49.19921875 16.69921875 C-46.71058564 15.15920337 -44.18897539 13.71935682 -41.625 12.30859375 C-40.73425781 11.80457031 -39.84351563 11.30054687 -38.92578125 10.78125 C-27.08700481 4.4338569 -13.45908809 0.27000474 0 0 Z M-44.625 37.30859375 C-42.43305533 39.50053842 -40.32778727 40.32567093 -37.49755859 41.49609375 C-24.97296027 46.93049573 -13.23242229 56.57191581 -5.7109375 67.9453125 C-5.17339844 68.62013672 -5.17339844 68.62013672 -4.625 69.30859375 C-3.965 69.30859375 -3.305 69.30859375 -2.625 69.30859375 C-2.40070313 69.8396875 -2.17640625 70.37078125 -1.9453125 70.91796875 C-0.17704584 74.11968235 2.13549081 76.79006479 4.5 79.55859375 C4.96792969 80.11289063 5.43585938 80.6671875 5.91796875 81.23828125 C7.06675328 82.59806701 8.22039653 83.9537454 9.375 85.30859375 C13.38572167 83.75753663 15.40484378 81.17888736 18.0625 77.87109375 C18.85011719 76.90300781 19.63773437 75.93492187 20.44921875 74.9375 C22.514703 72.398682 22.514703 72.398682 23.375 69.30859375 C24.035 69.30859375 24.695 69.30859375 25.375 69.30859375 C26.74156253 67.7287874 28.04235132 66.09190722 29.3125 64.43359375 C39.49710884 51.80013788 50.9854973 44.42715257 65.375 37.30859375 C53.05344163 23.5868583 31.26474827 18.53661423 13.72265625 17.08984375 C-7.07291262 16.33932698 -28.89322829 23.88097042 -44.625 37.30859375 Z M-64.9375 59.47265625 C-65.494375 60.40851563 -66.05125 61.344375 -66.625 62.30859375 C-67.223125 63.26507813 -67.82125 64.2215625 -68.4375 65.20703125 C-81.34967536 87.30243477 -83.32884624 113.69009072 -77.625 138.30859375 C-74.49445571 149.8003001 -68.9335384 160.26728039 -62.625 170.30859375 C-62.08746094 171.16453125 -61.54992187 172.02046875 -60.99609375 172.90234375 C-59.50037584 175.12618207 -59.50037584 175.12618207 -56.625 177.30859375 C-50.56710549 177.13060734 -46.39179679 175.58229204 -41.25 172.49609375 C-40.32767578 171.98079102 -40.32767578 171.98079102 -39.38671875 171.45507812 C-35.92352591 169.43551381 -34.24616739 167.92213042 -32.625 164.30859375 C-31.31631055 163.59476314 -29.97967833 162.93074232 -28.625 162.30859375 C-26.67304163 160.67011152 -26.67304163 160.67011152 -24.875 158.80859375 C-24.26140625 158.20015625 -23.6478125 157.59171875 -23.015625 156.96484375 C-21.41065912 155.41375098 -21.41065912 155.41375098 -21.625 153.30859375 C-20.965 153.30859375 -20.305 153.30859375 -19.625 153.30859375 C-17.8885671 151.43670317 -17.8885671 151.43670317 -16.0625 148.99609375 C-15.34449219 148.07699219 -14.62648438 147.15789062 -13.88671875 146.2109375 C-13.14035156 145.25316406 -12.39398438 144.29539062 -11.625 143.30859375 C-4.80581382 134.81940279 2.26287342 126.55192151 9.375 118.30859375 C13.18846128 119.82540869 15.04752097 122.05312401 17.5625 125.24609375 C18.34109375 126.220625 19.1196875 127.19515625 19.921875 128.19921875 C20.73140625 129.2253125 21.5409375 130.25140625 22.375 131.30859375 C24.01269257 133.37792622 25.65999116 135.43845371 27.3125 137.49609375 C28.04339844 138.41777344 28.77429688 139.33945313 29.52734375 140.2890625 C30.44193359 141.28873047 30.44193359 141.28873047 31.375 142.30859375 C32.035 142.30859375 32.695 142.30859375 33.375 142.30859375 C33.59800781 142.83839844 33.82101562 143.36820312 34.05078125 143.9140625 C35.83686231 147.1437607 38.16741841 149.83533935 40.5625 152.62109375 C41.05355225 153.19561279 41.54460449 153.77013184 42.05053711 154.36206055 C45.65203981 158.54245002 49.29936711 162.57982324 53.375 166.30859375 C54.035 166.30859375 54.695 166.30859375 55.375 166.30859375 C55.375 166.96859375 55.375 167.62859375 55.375 168.30859375 C57.91045982 170.0689304 57.91045982 170.0689304 61.0625 171.80859375 C62.11824219 172.41703125 63.17398438 173.02546875 64.26171875 173.65234375 C70.47762193 177.03012854 70.47762193 177.03012854 77.375 177.30859375 C92.04759647 164.90249592 99.447231 141.64711426 101.375 123.30859375 C103.3030572 98.68227146 96.94199154 75.0485751 82.62890625 54.84375 C79.77701147 52.90129827 77.83937524 53.11361742 74.50683594 53.73046875 C70.95387155 54.69398452 67.76642311 56.12645002 64.5 57.80859375 C63.81035156 58.15809082 63.12070312 58.50758789 62.41015625 58.86767578 C56.27785832 62.11005667 50.94002403 66.0193111 46.375 71.30859375 C46.375 71.96859375 46.375 72.62859375 46.375 73.30859375 C45.52035156 73.64310547 45.52035156 73.64310547 44.6484375 73.984375 C41.69827023 75.7027714 40.10711275 77.8159942 38 80.49609375 C35.33394492 83.85400114 32.65976351 87.16538614 29.8125 90.37109375 C27.16214251 92.92892967 27.16214251 92.92892967 27.375 95.30859375 C26.715 95.30859375 26.055 95.30859375 25.375 95.30859375 C23.85515117 96.98394834 22.40793547 98.72564997 21 100.49609375 C20.22914063 101.45902344 19.45828125 102.42195313 18.6640625 103.4140625 C17.16931015 105.3041845 15.68937178 107.20614342 14.2265625 109.12109375 C12.2588786 111.44578359 11.34978059 111.98986726 8.375 112.30859375 C8.375 111.64859375 8.375 110.98859375 8.375 110.30859375 C7.715 110.30859375 7.055 110.30859375 6.375 110.30859375 C6.11847656 109.74398437 5.86195313 109.179375 5.59765625 108.59765625 C1.65992019 101.22540919 -4.73447819 95.01361934 -10.3359375 88.8828125 C-12.70908036 86.21403922 -14.95201251 83.4683505 -17.1875 80.68359375 C-26.04846623 69.80599383 -36.89756748 58.61865877 -50.625 54.30859375 C-51.38683594 54.05464844 -52.14867187 53.80070312 -52.93359375 53.5390625 C-59.23930016 52.06099641 -61.4996951 54.30003313 -64.9375 59.47265625 Z M10.375 144.30859375 C8.90808542 145.86304027 7.45179359 147.4275155 6 148.99609375 C5.18789062 149.86621094 4.37578125 150.73632812 3.5390625 151.6328125 C1.48522491 154.17230482 0.3849332 156.22885241 -0.625 159.30859375 C-1.285 159.30859375 -1.945 159.30859375 -2.625 159.30859375 C-5.02320305 161.94544122 -5.02320305 161.94544122 -5.625 165.30859375 C-6.19476563 165.53804687 -6.76453125 165.7675 -7.3515625 166.00390625 C-10.21411924 167.64667936 -11.87172752 169.66700488 -14 172.18359375 C-17.32755402 176.00065572 -20.34835876 178.67681452 -24.625 181.30859375 C-24.625 181.96859375 -24.625 182.62859375 -24.625 183.30859375 C-25.33011719 183.57414062 -26.03523438 183.8396875 -26.76171875 184.11328125 C-29.78067786 185.37358342 -32.57685076 186.84817369 -35.4375 188.43359375 C-36.41332031 188.97242188 -37.38914063 189.51125 -38.39453125 190.06640625 C-39.13058594 190.47632813 -39.86664063 190.88625 -40.625 191.30859375 C-37.38483802 196.11441539 -33.90655543 198.05354569 -28.8125 200.43359375 C-28.12607422 200.76746094 -27.43964844 201.10132813 -26.73242188 201.4453125 C-12.74191809 208.19569749 -0.15805734 210.7486237 15.375 210.30859375 C16.20257813 210.3034375 17.03015625 210.29828125 17.8828125 210.29296875 C31.86112316 209.69450897 46.34752553 203.80714662 57.375 195.30859375 C59.17995363 193.20102837 59.17995363 193.20102837 60.375 191.30859375 C59.79492188 190.921875 59.21484375 190.53515625 58.6171875 190.13671875 C56.98948181 189.05158163 55.36326023 187.96421608 53.73828125 186.875 C51.99172289 185.7173638 50.22073782 184.59638943 48.4375 183.49609375 C38.31104184 176.26290935 24.39598839 164.93473265 19.375 153.30859375 C18.715 153.30859375 18.055 153.30859375 17.375 153.30859375 C17.148125 152.75171875 16.92125 152.19484375 16.6875 151.62109375 C15.01603234 148.67612691 12.82223648 146.62702831 10.375 144.30859375 Z " fill="#B1B1B0" transform="translate(239.625,68.69140625)"/>
<path d="M0 0 C0.87454834 0.00523682 1.74909668 0.01047363 2.65014648 0.01586914 C3.59438477 0.0190918 4.53862305 0.02231445 5.51147461 0.02563477 C6.50469727 0.03401367 7.49791992 0.04239258 8.52124023 0.05102539 C9.51833008 0.05553711 10.51541992 0.06004883 11.54272461 0.06469727 C14.01478872 0.07652532 16.48673541 0.0930069 18.95874023 0.11352539 C21.91761606 5.74916201 24.53505981 11.42654638 26.83374023 17.36352539 C29.74555691 24.86616532 33.24206356 31.97706632 36.95874023 39.11352539 C39.78752705 35.08538142 41.89890772 31.25703491 43.77124023 26.67602539 C45.9785122 21.40434286 48.24800852 16.17628934 50.64624023 10.98852539 C50.93152588 10.36147705 51.21681152 9.73442871 51.51074219 9.08837891 C53.03952936 5.80052512 54.49170776 2.78385532 56.95874023 0.11352539 C59.11938477 -0.35644531 59.11938477 -0.35644531 61.59155273 -0.31225586 C62.4797168 -0.30387695 63.36788086 -0.29549805 64.28295898 -0.28686523 C65.2072168 -0.25786133 66.13147461 -0.22885742 67.08374023 -0.19897461 C68.48172852 -0.18447266 68.48172852 -0.18447266 69.90795898 -0.16967773 C76.79075124 -0.0544636 76.79075124 -0.0544636 77.95874023 1.11352539 C78.05845178 3.40864036 78.0867389 5.70687088 78.08813477 8.00415039 C78.09076324 9.08460632 78.09076324 9.08460632 78.09344482 10.18688965 C78.09786312 12.57912573 78.09492544 14.97128849 78.09155273 17.36352539 C78.09222578 19.01879897 78.09319581 20.67407246 78.0944519 22.3293457 C78.09592885 25.80298806 78.09377444 29.27660476 78.08911133 32.75024414 C78.08341404 37.21285037 78.08669306 41.67539647 78.09268379 46.13800049 C78.09628951 49.55737769 78.09515077 52.97674054 78.092556 56.39611816 C78.09188676 58.04203295 78.09271505 59.68794902 78.09503555 61.3338623 C78.09756225 63.6302437 78.09372127 65.92652638 78.08813477 68.22290039 C78.08733917 69.53226562 78.08654358 70.84163086 78.08572388 72.19067383 C77.95874023 75.11352539 77.95874023 75.11352539 76.95874023 76.11352539 C71.89115025 77.04430723 67.08808182 77.29039924 61.95874023 77.11352539 C60.38800492 75.54279007 60.79504717 73.95990321 60.75341797 71.77734375 C60.73347275 70.85646469 60.71352753 69.93558563 60.69297791 68.98680115 C60.67626541 67.98576859 60.65955292 66.98473602 60.64233398 65.95336914 C60.62155289 64.93376602 60.60077179 63.9141629 60.57936096 62.86366272 C60.51375172 59.59285491 60.45492789 56.32196402 60.39624023 53.05102539 C60.35306582 50.83942811 60.3094519 48.62783936 60.26538086 46.41625977 C60.15805884 40.98210388 60.056314 35.54786457 59.95874023 30.11352539 C59.63659546 30.79655731 59.31445068 31.47958923 58.98254395 32.18331909 C45.5134417 60.72197238 45.5134417 60.72197238 37.95874023 73.11352539 C33.99961598 69.51556049 31.55405112 65.96817258 29.27124023 61.11352539 C28.94381836 60.43870117 28.61639648 59.76387695 28.27905273 59.06860352 C27.16095475 56.75551233 26.05963593 54.43485043 24.95874023 52.11352539 C24.04644294 50.2070537 23.13366256 48.30081313 22.22045898 46.39477539 C19.78508627 41.30786431 17.37315363 36.21062033 14.95874023 31.11352539 C14.62874023 45.96352539 14.29874023 60.81352539 13.95874023 76.11352539 C10.46811489 76.98618173 7.88180805 77.24808892 4.33374023 77.23852539 C2.8912793 77.24239258 2.8912793 77.24239258 1.41967773 77.24633789 C-1.04125977 77.11352539 -1.04125977 77.11352539 -3.04125977 76.11352539 C-3.06438422 66.35201551 -3.08217538 56.59051209 -3.09307194 46.82898045 C-3.09830054 42.29678445 -3.10539777 37.76460712 -3.11669922 33.23242188 C-3.12752891 28.86229709 -3.13353677 24.49219031 -3.13613701 20.12205315 C-3.13799111 18.45101576 -3.14161144 16.77997942 -3.14698982 15.10894966 C-3.15420135 12.77654988 -3.15525066 10.44422546 -3.15478516 8.11181641 C-3.15838043 7.41410629 -3.16197571 6.71639618 -3.16567993 5.99754333 C-3.15302482 0.1753566 -3.15302482 0.1753566 0 0 Z " fill="#BBBBBB" transform="translate(361.041259765625,323.886474609375)"/>
<path d="M0 0 C5.04987804 11.07088647 9.43596464 22.40031747 13.67700195 33.80029297 C15.59468602 38.94687681 17.56702113 44.07061072 19.5625 49.1875 C19.85584229 49.94095703 20.14918457 50.69441406 20.45141602 51.47070312 C21.80061925 54.933721 23.15493364 58.39458188 24.51953125 61.8515625 C24.96683594 62.99367188 25.41414063 64.13578125 25.875 65.3125 C26.45894531 66.79169922 26.45894531 66.79169922 27.0546875 68.30078125 C27.95215111 70.86337362 28.54237876 73.32729724 29 76 C26.33193115 77.33403442 24.22926687 77.16897222 21.25 77.1875 C19.71085937 77.20876953 19.71085937 77.20876953 18.140625 77.23046875 C15 77 15 77 9 75 C7.68 71.04 6.36 67.08 5 63 C-4.9 63 -14.8 63 -25 63 C-27.475 68.94 -27.475 68.94 -30 75 C-34.49919565 77.24959782 -36.34439425 77.07922275 -41.25 76.625 C-42.51328125 76.51414062 -43.7765625 76.40328125 -45.078125 76.2890625 C-46.04234375 76.19367188 -47.0065625 76.09828125 -48 76 C-47.35632777 71.13838152 -45.98450483 66.71268899 -44.3125 62.125 C-44.04775879 61.38757568 -43.78301758 60.65015137 -43.51025391 59.89038086 C-40.165 50.6123893 -36.75733716 41.35433234 -33.078125 32.203125 C-30.94411001 26.8893366 -28.90289376 21.54252743 -26.875 16.1875 C-26.18528412 14.36834232 -25.49519228 12.54932713 -24.8046875 10.73046875 C-24.50546387 9.94051514 -24.20624023 9.15056152 -23.89794922 8.33666992 C-23.60162598 7.56556885 -23.30530273 6.79446777 -23 6 C-22.48010498 4.64708862 -22.48010498 4.64708862 -21.94970703 3.2668457 C-21 1 -21 1 -20 0 C-13.23330178 -1.23030877 -6.77703004 -0.93724883 0 0 Z M-11 22 C-12.15201097 25.06021145 -13.29549903 28.12354044 -14.4375 31.1875 C-14.76298828 32.05181641 -15.08847656 32.91613281 -15.42382812 33.80664062 C-15.73642578 34.64775391 -16.04902344 35.48886719 -16.37109375 36.35546875 C-16.65911865 37.12528076 -16.94714355 37.89509277 -17.24389648 38.68823242 C-18.03501255 41.10705001 -18.54902445 43.49737603 -19 46 C-17.31372397 46.19820604 -15.6258679 46.38298309 -13.9375 46.5625 C-12.99777344 46.66691406 -12.05804688 46.77132812 -11.08984375 46.87890625 C-7.61263581 47.01518115 -4.42529795 46.57729741 -1 46 C-2.27976032 42.18339722 -3.57577338 38.37251579 -4.875 34.5625 C-5.23980469 33.47388672 -5.60460937 32.38527344 -5.98046875 31.26367188 C-6.33496094 30.22919922 -6.68945312 29.19472656 -7.0546875 28.12890625 C-7.37937012 27.17056885 -7.70405273 26.21223145 -8.03857422 25.22485352 C-8.78652927 22.83854898 -8.78652927 22.83854898 -11 22 Z " fill="#A4A4A4" transform="translate(186,324)"/>
<path d="M0 0 C6.93 0 13.86 0 21 0 C24.4788879 7.465241 27.59672229 14.95930193 30.4375 22.6875 C31.22523978 24.80990349 32.01300022 26.93229932 32.80078125 29.0546875 C33.36659912 30.58561035 33.36659912 30.58561035 33.94384766 32.14746094 C35.09013288 35.24343795 36.24925229 38.33435654 37.41357422 41.42358398 C38.3568936 43.92820377 39.29272833 46.43561146 40.22900391 48.94287109 C40.78873095 50.43630368 41.35127633 51.92868094 41.91552734 53.42041016 C42.88614646 55.98676808 43.84971724 58.55569343 44.8125 61.125 C45.11494629 61.91946533 45.41739258 62.71393066 45.72900391 63.5324707 C47.27682115 67.68375732 48.45547108 71.57305057 49 76 C46.04611864 77.47694068 43.34838118 77.20930797 40.0625 77.25 C38.81597656 77.27578125 37.56945312 77.3015625 36.28515625 77.328125 C33 77 33 77 31.1953125 75.80078125 C29.73011557 73.59340941 28.76325883 71.41093005 27.8125 68.9375 C27.46832031 68.05964844 27.12414062 67.18179688 26.76953125 66.27734375 C26 64 26 64 26 62 C15.77 62 5.54 62 -5 62 C-5.66 64.64 -6.32 67.28 -7 70 C-8.25 73.4375 -8.25 73.4375 -10 76 C-14.89281896 77.67071867 -20.84467388 77.33009621 -26 77 C-26.33 76.67 -26.66 76.34 -27 76 C-26.53651456 71.00813653 -25.3368583 66.49724645 -23.625 61.8125 C-23.37169922 61.10617432 -23.11839844 60.39984863 -22.85742188 59.67211914 C-19.31390036 49.92845324 -15.43816627 40.3082238 -11.625 30.66796875 C-8.65397762 23.14624577 -5.80404639 15.58530499 -3 8 C-2.01 5.36 -1.02 2.72 0 0 Z M10 22 C9.75765625 22.60585938 9.5153125 23.21171875 9.265625 23.8359375 C8.93046875 24.67382812 8.5953125 25.51171875 8.25 26.375 C7.8890625 27.2825 7.528125 28.19 7.15625 29.125 C6.39981864 31.00585635 5.62949542 32.88120008 4.84375 34.75 C4.4828125 35.61625 4.121875 36.4825 3.75 37.375 C3.41484375 38.16648437 3.0796875 38.95796875 2.734375 39.7734375 C1.79118187 42.24236146 1.79118187 42.24236146 2 46 C7.94 46 13.88 46 20 46 C19.01535215 42.99423287 18.01455803 39.99574221 17 37 C16.59007812 35.78570312 16.18015625 34.57140625 15.7578125 33.3203125 C15.31844566 32.04662041 14.87834219 30.7731822 14.4375 29.5 C13.81681641 27.69015625 13.81681641 27.69015625 13.18359375 25.84375 C12.31596992 22.88552032 12.31596992 22.88552032 10 22 Z " fill="#B4B3B4" transform="translate(299,324)"/>
<path d="M0 0 C3.11622324 2.93193047 5.01771805 6.23589157 7 10 C7.74835814 11.29261861 8.49810568 12.58443512 9.25 13.875 C9.8275 14.90625 10.405 15.9375 11 17 C11.98539872 18.34416039 12.98271097 19.67981031 14 21 C14.59167969 20.07058594 15.18335938 19.14117187 15.79296875 18.18359375 C17.41502612 15.63774067 19.05639519 13.10552081 20.70703125 10.578125 C22.00049729 8.59008683 23.19623821 6.63646727 24.32421875 4.546875 C25.89780497 1.76238786 27.28484858 0.19949575 30.39453125 -0.66796875 C36.63102632 -1.40937026 42.80167543 -0.87395032 49 0 C48.1581138 3.99245001 46.45406841 6.72790878 44 10 C43.34 10 42.68 10 42 10 C41.73703125 10.71671875 41.4740625 11.4334375 41.203125 12.171875 C39.9586116 15.09728961 38.47983899 17.58511291 36.75 20.25 C36.13640625 21.20648438 35.5228125 22.16296875 34.890625 23.1484375 C33.6843402 24.96783399 32.44739048 26.76751322 31.171875 28.5390625 C30.62015625 29.30992187 30.0684375 30.08078125 29.5 30.875 C28.9946875 31.55304688 28.489375 32.23109375 27.96875 32.9296875 C26.66500268 35.71592168 27.18821973 37.06388917 28 40 C29.17150567 42.18170012 29.17150567 42.18170012 30.6953125 44.2578125 C31.24340576 45.04349609 31.79149902 45.82917969 32.35620117 46.63867188 C32.93990479 47.45916016 33.5236084 48.27964844 34.125 49.125 C35.31253592 50.82458673 36.49874221 52.52510329 37.68359375 54.2265625 C38.25577637 55.04543945 38.82795898 55.86431641 39.41748047 56.70800781 C42.41685245 61.0520535 45.2025919 65.52414705 48 70 C48.99 71.485 48.99 71.485 50 73 C50 74.32 50 75.64 50 77 C47.43721301 77.05420701 44.87558517 77.09377007 42.3125 77.125 C41.2306543 77.15013672 41.2306543 77.15013672 40.12695312 77.17578125 C35.96819491 77.21376078 32.62366882 77.1266567 29 75 C27.12109375 72.79296875 27.12109375 72.79296875 25.4375 70.1875 C23.60724277 67.42424831 21.82238006 64.77797507 19.75 62.1875 C17.9217647 59.90220587 16.49369743 57.5121275 15 55 C14.34 54.34 13.68 53.68 13 53 C11.91572046 54.50641999 10.83215937 56.01336159 9.75195312 57.52270508 C8.8279893 58.8075718 7.89688152 60.08732897 6.95898438 61.36206055 C4.37029511 64.91430749 2.37116119 68.32499098 0.5 72.3125 C-1.03840899 74.7351558 -2.16495777 75.78202712 -4.95849609 76.51123047 C-10.07675643 77.31092474 -15.88899016 78.05468414 -21 77 C-22.7512207 75.47558594 -22.7512207 75.47558594 -24 74 C-11.48345873 55.67750558 -11.48345873 55.67750558 -5.875 47.5625 C-5.19179687 46.57378906 -4.50859375 45.58507812 -3.8046875 44.56640625 C-2 42 -2 42 -0.1953125 39.90234375 C1.17659983 38.11067796 1.17659983 38.11067796 0.9453125 36.1328125 C-0.39747105 33.10322647 -2.20563368 30.5751255 -4.125 27.875 C-4.52952393 27.30241455 -4.93404785 26.7298291 -5.35083008 26.13989258 C-6.1741354 24.97493583 -6.99972573 23.81159046 -7.82763672 22.64990234 C-9.46711106 20.34262046 -11.07527085 18.01387093 -12.6875 15.6875 C-15.32330405 11.89737427 -18.1076165 8.26390739 -21.03125 4.69140625 C-21.3509375 4.13324219 -21.670625 3.57507813 -22 3 C-21.67 2.01 -21.34 1.02 -21 0 C-6.71725572 -2.14241164 -6.71725572 -2.14241164 0 0 Z " fill="#9A9A9B" transform="translate(83,324)"/>
<path d="M0 0 C6.96003447 -0.02526838 13.9200572 -0.04283222 20.88012695 -0.05493164 C23.24992312 -0.05997341 25.61971615 -0.06680665 27.98950195 -0.07543945 C31.38754039 -0.0875119 34.78553785 -0.09322971 38.18359375 -0.09765625 C39.25024765 -0.10281754 40.31690155 -0.10797882 41.4158783 -0.11329651 C42.88729027 -0.11340981 42.88729027 -0.11340981 44.38842773 -0.11352539 C45.25668686 -0.115746 46.12494598 -0.11796661 47.01951599 -0.12025452 C49 0 49 0 50 1 C50.09909302 3.33160055 50.12970504 5.66629942 50.125 8 C50.12886719 9.918125 50.12886719 9.918125 50.1328125 11.875 C50 15 50 15 49 16 C46.6243148 16.0883967 44.27791326 16.11530305 41.90234375 16.09765625 C40.83905602 16.09553383 40.83905602 16.09553383 39.75428772 16.09336853 C37.48198288 16.08775443 35.20977525 16.07519963 32.9375 16.0625 C31.40039204 16.05748681 29.86328255 16.05292359 28.32617188 16.04882812 C24.55071333 16.0386297 20.77546596 16.01905732 17 16 C16.67 20.62 16.34 25.24 16 30 C18.08183594 29.98839844 20.16367188 29.97679687 22.30859375 29.96484375 C24.31746298 29.95789265 26.32633251 29.95097611 28.33520508 29.94506836 C29.73495228 29.9400292 31.1346942 29.93319784 32.53442383 29.92456055 C34.54245777 29.9124768 36.55052957 29.90730193 38.55859375 29.90234375 C40.37315063 29.89448853 40.37315063 29.89448853 42.22436523 29.88647461 C45 30 45 30 46 31 C46.07320163 33.5327765 46.09227569 36.03103918 46.0625 38.5625 C46.041875 41.016875 46.02125 43.47125 46 46 C36.43 46.33 26.86 46.66 17 47 C17 50.63 17 54.26 17 58 C16.85883376 61.23421944 16.70101851 64.45762151 16.5 67.6875 C16.45230469 68.49638672 16.40460938 69.30527344 16.35546875 70.13867188 C16.23985052 72.09261994 16.12035761 74.04633814 16 76 C10.34550186 77.58678567 4.67082347 77.41770587 -1 76 C-1.90572323 72.1301326 -2.13181666 68.53131753 -2.14526367 64.56079102 C-2.15164352 63.27918594 -2.15802338 61.99758087 -2.16459656 60.67713928 C-2.16612531 59.28606199 -2.16723923 57.89498419 -2.16796875 56.50390625 C-2.1711848 55.06810981 -2.17454913 53.6323137 -2.17805481 52.19651794 C-2.18403171 49.19146973 -2.18589615 46.18645022 -2.18530273 43.18139648 C-2.18520109 39.34037824 -2.1988617 35.49954476 -2.21607494 31.65857029 C-2.22721932 28.69450543 -2.22922121 25.73048495 -2.22869301 22.76640129 C-2.22986912 21.35069071 -2.23427013 19.93497884 -2.24202538 18.51928902 C-2.25187583 16.53575162 -2.24766998 14.55215968 -2.24291992 12.56860352 C-2.24505745 10.87913353 -2.24505745 10.87913353 -2.24723816 9.15553284 C-1.98611375 5.822768 -1.1846108 3.11479535 0 0 Z " fill="#B1B0B1" transform="translate(225,324)"/>
<path d="M0 0 C3.72875388 -0.14560195 7.45677434 -0.23417043 11.1875 -0.3125 C12.24259766 -0.35439453 13.29769531 -0.39628906 14.38476562 -0.43945312 C22.25370402 -0.56356887 22.25370402 -0.56356887 26.03125 2.2890625 C26.6809375 3.18367187 27.330625 4.07828125 28 5 C28.59425781 5.64324219 29.18851563 6.28648437 29.80078125 6.94921875 C30.29964844 7.52285156 30.79851562 8.09648437 31.3125 8.6875 C31.82425781 9.26886719 32.33601563 9.85023438 32.86328125 10.44921875 C34 12 34 12 34 14 C34.66 14 35.32 14 36 14 C36 14.66 36 15.32 36 16 C36.66 16 37.32 16 38 16 C39.19140625 17.3984375 39.19140625 17.3984375 40.5625 19.375 C43.74237489 23.80636031 47.3619415 27.68348709 51.14453125 31.60546875 C53.20113493 34.25956993 53.98955248 35.64112307 54 39 C52.55078125 41.4375 52.55078125 41.4375 50.3125 44 C49.48363281 44.9590625 48.65476563 45.918125 47.80078125 46.90625 C44.39880735 50.69186876 40.94382982 54.4298274 37.45996094 58.14013672 C33.39088655 62.49428062 29.67268051 67.03393706 26.03515625 71.7578125 C23.24798213 74.82851873 21.07462854 76.78232795 16.82202148 77.22851562 C14.2698077 77.29520715 11.73940908 77.2617166 9.1875 77.1875 C7.86202148 77.16719727 7.86202148 77.16719727 6.50976562 77.14648438 C4.33957977 77.11129217 2.16970967 77.05748985 0 77 C-0.65625 75.21191406 -0.65625 75.21191406 -1 73 C-0.03125 71.29589844 -0.03125 71.29589844 1.5 69.609375 C2.05389404 68.98651611 2.60778809 68.36365723 3.1784668 67.72192383 C3.77957275 67.07118896 4.38067871 66.4204541 5 65.75 C5.60432861 65.07541748 6.20865723 64.40083496 6.83129883 63.70581055 C8.54465461 61.79498169 10.27161255 59.89721911 12 58 C13.23376961 56.60823352 14.46422053 55.21349562 15.6875 53.8125 C16.19796875 53.23113281 16.7084375 52.64976562 17.234375 52.05078125 C21.22008874 47.4213571 25.10325555 42.70431925 29 38 C27.51993197 34.63551546 25.60866795 32.25996355 23.125 29.5625 C22.33480469 28.69753906 21.54460937 27.83257812 20.73046875 26.94140625 C18.74369859 24.79332663 16.74228148 22.65934634 14.73828125 20.52734375 C13.917229 19.64937134 13.917229 19.64937134 13.07958984 18.75366211 C11.99475843 17.59512151 10.90530801 16.44088686 9.81103516 15.29125977 C6 11.22322435 6 11.22322435 6 9 C5.34 9 4.68 9 4 9 C2.7109375 7.46875 2.7109375 7.46875 1.375 5.5 C0.92898437 4.8503125 0.48296875 4.200625 0.0234375 3.53125 C-0.31429687 3.0259375 -0.65203125 2.520625 -1 2 C-0.67 1.34 -0.34 0.68 0 0 Z " fill="#ABABAB" transform="translate(188,146)"/>
<path d="M0 0 C1.04800781 0.06832031 2.09601563 0.13664063 3.17578125 0.20703125 C3.83578125 1.19703125 4.49578125 2.18703125 5.17578125 3.20703125 C4.22460991 4.37954435 3.26461116 5.5449014 2.30078125 6.70703125 C1.76710938 7.35671875 1.2334375 8.00640625 0.68359375 8.67578125 C0.18601562 9.18109375 -0.3115625 9.68640625 -0.82421875 10.20703125 C-1.48421875 10.20703125 -2.14421875 10.20703125 -2.82421875 10.20703125 C-3.06011719 10.76261719 -3.29601562 11.31820312 -3.5390625 11.890625 C-5.13699395 14.77078716 -7.12922375 16.87072201 -9.38671875 19.26953125 C-15.23153496 25.58939784 -21.04120437 32.03250968 -25.82421875 39.20703125 C-25.20675781 39.87347656 -24.58929688 40.53992188 -23.953125 41.2265625 C-18.81281736 46.82065681 -13.89439798 52.50919684 -9.1328125 58.43359375 C-5.87865655 62.34298584 -2.40143711 66.01808555 1.109375 69.69921875 C3.13654745 72.1594167 4.18887728 74.19778307 5.17578125 77.20703125 C1.46077686 79.57369649 -1.86563195 79.50655644 -6.19921875 79.51953125 C-7.48570312 79.53628906 -8.7721875 79.55304688 -10.09765625 79.5703125 C-16.12694504 78.98255164 -19.84137756 76.73107577 -23.69921875 72.14453125 C-24.29476563 71.45230469 -24.8903125 70.76007813 -25.50390625 70.046875 C-26.82421875 68.20703125 -26.82421875 68.20703125 -26.82421875 66.20703125 C-27.48421875 66.20703125 -28.14421875 66.20703125 -28.82421875 66.20703125 C-30.34765625 64.51171875 -30.34765625 64.51171875 -32.19921875 62.08203125 C-34.7136948 58.83590287 -37.26150063 55.67551212 -39.984375 52.6015625 C-40.52594238 51.98748535 -41.06750977 51.3734082 -41.62548828 50.74072266 C-42.70125704 49.52691135 -43.78410007 48.31932663 -44.87451172 47.11865234 C-49.77178924 41.55868075 -49.77178924 41.55868075 -49.82421875 37.20703125 C-49.16421875 36.21703125 -48.50421875 35.22703125 -47.82421875 34.20703125 C-47.16421875 34.20703125 -46.50421875 34.20703125 -45.82421875 34.20703125 C-45.45490234 33.37365234 -45.45490234 33.37365234 -45.078125 32.5234375 C-43.58417469 29.76358537 -41.77363467 27.55386266 -39.76171875 25.14453125 C-35.99533465 20.62293423 -35.99533465 20.62293423 -32.30078125 16.04296875 C-31.50414062 15.04523438 -30.7075 14.0475 -29.88671875 13.01953125 C-29.15582031 12.09785156 -28.42492187 11.17617187 -27.671875 10.2265625 C-27.06214844 9.56011719 -26.45242188 8.89367187 -25.82421875 8.20703125 C-25.16421875 8.20703125 -24.50421875 8.20703125 -23.82421875 8.20703125 C-23.57671875 7.60890625 -23.32921875 7.01078125 -23.07421875 6.39453125 C-21.5746772 3.77033353 -20.4215302 2.76282513 -17.82421875 1.20703125 C-14.6171875 0.6953125 -14.6171875 0.6953125 -11.01171875 0.51953125 C-9.23861328 0.42091797 -9.23861328 0.42091797 -7.4296875 0.3203125 C-4.95204712 0.24246681 -2.47523845 0.13400167 0 0 Z " fill="#AEADAE" transform="translate(308.82421875,144.79296875)"/>
<path d="M0 0 C0.33 0 0.66 0 1 0 C1.33 6.6 1.66 13.2 2 20 C2.33 20 2.66 20 3 20 C3.01030746 20.59690643 3.02061493 21.19381287 3.03123474 21.80880737 C3.13917388 28.00530229 3.25378188 34.20164807 3.37231445 40.39794922 C3.41570376 42.71237069 3.45737584 45.026825 3.49731445 47.34130859 C3.55492032 50.66253573 3.61864251 53.98359692 3.68359375 57.3046875 C3.70030624 58.34430634 3.71701874 59.38392517 3.73423767 60.45504761 C3.75418289 61.41589264 3.77412811 62.37673767 3.79467773 63.36669922 C3.81022202 64.21497284 3.8257663 65.06324646 3.84178162 65.93722534 C3.87429958 68.06318305 3.87429958 68.06318305 5 70 C4.67 70.99 4.34 71.98 4 73 C8.29 73.33 12.58 73.66 17 74 C11.31994974 76.84002513 6.05910821 76.51477705 0 75 C-0.90983785 71.1222247 -1.1265894 67.52394792 -1.12939453 63.54492188 C-1.13254669 62.26008911 -1.13569885 60.97525635 -1.13894653 59.65148926 C-1.13715653 58.25724249 -1.13510552 56.86299603 -1.1328125 55.46875 C-1.13348666 54.0305581 -1.13445762 52.59236631 -1.13571167 51.1541748 C-1.13718336 48.14492708 -1.1350511 45.1357091 -1.13037109 42.12646484 C-1.12467412 38.2764321 -1.12795596 34.42646909 -1.13394356 30.5764389 C-1.13756345 27.60812864 -1.13640401 24.63983481 -1.13381577 21.67152405 C-1.13315045 20.25220227 -1.13396106 18.83287898 -1.13629532 17.41355896 C-1.13884525 15.42739899 -1.13426729 13.44123376 -1.12939453 11.45507812 C-1.12859894 10.32654419 -1.12780334 9.19801025 -1.12698364 8.03527832 C-1.01006291 5.24053278 -0.63771336 2.71796685 0 0 Z " fill="#6D6C6E" transform="translate(224,325)"/>
<path d="M0 0 C1.98 0.495 1.98 0.495 4 1 C4.103125 1.763125 4.20625 2.52625 4.3125 3.3125 C5.05600892 6.21894395 5.84858032 7.03566029 8 9 C8 9.66 8 10.32 8 11 C8.99 11.33 9.98 11.66 11 12 C11 13.65 11 15.3 11 17 C11.66 17 12.32 17 13 17 C14.01866229 18.65532623 15.01810813 20.32260138 16 22 C16.66 22.33 17.32 22.66 18 23 C18 22.34 18 21.68 18 21 C18.94875 20.896875 19.8975 20.79375 20.875 20.6875 C24.29107501 20.31460705 24.29107501 20.31460705 26 17 C26.99 17.33 27.98 17.66 29 18 C29.33 17.34 29.66 16.68 30 16 C30.84443568 17.24252679 31.6751458 18.4943886 32.5 19.75 C32.9640625 20.44609375 33.428125 21.1421875 33.90625 21.859375 C35 24 35 24 35 28 C32.43721301 28.05420701 29.87558517 28.09377007 27.3125 28.125 C26.59126953 28.14175781 25.87003906 28.15851563 25.12695312 28.17578125 C20.96819491 28.21376078 17.62366882 28.1266567 14 26 C12.12109375 23.79296875 12.12109375 23.79296875 10.4375 21.1875 C8.60724277 18.42424831 6.82238006 15.77797507 4.75 13.1875 C2.45302125 10.31627657 0.64212874 7.28425748 -1 4 C-0.34 4 0.32 4 1 4 C0.67 2.68 0.34 1.36 0 0 Z " fill="#838285" transform="translate(98,373)"/>
<path d="M0 0 C7.26 0 14.52 0 22 0 C23 9 23 9 21.75 11.5625 C20 13 20 13 17 13 C14.65789079 13.63514826 12.32315031 14.2986716 10 15 C9.67 12.69 9.34 10.38 9 8 C8.34 8 7.68 8 7 8 C7 7.34 7 6.68 7 6 C6.34 6 5.68 6 5 6 C5.33 4.68 5.66 3.36 6 2 C3.03 1.505 3.03 1.505 0 1 C0 0.67 0 0.34 0 0 Z " fill="#C2C2C2" transform="translate(191,147)"/>
<path d="M0 0 C4.61377933 0.0058035 7.74011437 0.07826771 11.265625 3.2421875 C14.79822022 8.02243442 16.85098733 12.23526071 16.98046875 18.19140625 C14.50178275 15.93014885 12.95396224 13.6334188 11.35546875 10.69140625 C10.93007812 9.91796875 10.5046875 9.14453125 10.06640625 8.34765625 C8.98046875 6.19140625 8.98046875 6.19140625 7.98046875 3.19140625 C6.35503795 3.33235689 4.73012824 3.47932712 3.10546875 3.62890625 C2.20054688 3.71011719 1.295625 3.79132813 0.36328125 3.875 C-2.03063986 4.0612991 -2.03063986 4.0612991 -4.01953125 5.19140625 C-3.68953125 5.85140625 -3.35953125 6.51140625 -3.01953125 7.19140625 C-3.34953125 8.18140625 -3.67953125 9.17140625 -4.01953125 10.19140625 C-3.35953125 10.52140625 -2.69953125 10.85140625 -2.01953125 11.19140625 C-0.33203125 13.62890625 -0.33203125 13.62890625 0.98046875 16.19140625 C0.65046875 16.85140625 0.32046875 17.51140625 -0.01953125 18.19140625 C-1.00953125 18.19140625 -1.99953125 18.19140625 -3.01953125 18.19140625 C-4.9921875 15.70703125 -4.9921875 15.70703125 -7.08203125 12.44140625 C-7.77425781 11.3740625 -8.46648437 10.30671875 -9.1796875 9.20703125 C-10.58848748 6.89791536 -11.87394926 4.63689734 -13.01953125 2.19140625 C-10.35611577 -0.47200923 -3.6439324 0.23098666 0 0 Z " fill="#949499" transform="translate(74.01953125,322.80859375)"/>
<path d="M0 0 C0.87454834 0.00523682 1.74909668 0.01047363 2.65014648 0.01586914 C3.59438477 0.0190918 4.53862305 0.02231445 5.51147461 0.02563477 C6.50469727 0.03401367 7.49791992 0.04239258 8.52124023 0.05102539 C9.51833008 0.05553711 10.51541992 0.06004883 11.54272461 0.06469727 C14.01478872 0.07652532 16.48673541 0.0930069 18.95874023 0.11352539 C18.95874023 0.44352539 18.95874023 0.77352539 18.95874023 1.11352539 C11.03874023 1.60852539 11.03874023 1.60852539 2.95874023 2.11352539 C1.25365024 6.37625038 0.48660954 9.62663632 -0.04125977 14.11352539 C-0.37125977 14.11352539 -0.70125977 14.11352539 -1.04125977 14.11352539 C-1.37125977 34.24352539 -1.70125977 54.37352539 -2.04125977 75.11352539 C3.23874023 75.11352539 8.51874023 75.11352539 13.95874023 75.11352539 C10.02409139 77.08084981 8.55009705 77.36353203 4.33374023 77.30102539 C3.37209961 77.29458008 2.41045898 77.28813477 1.41967773 77.28149414 C-1.04125977 77.11352539 -1.04125977 77.11352539 -3.04125977 76.11352539 C-3.06438422 66.35201551 -3.08217538 56.59051209 -3.09307194 46.82898045 C-3.09830054 42.29678445 -3.10539777 37.76460712 -3.11669922 33.23242188 C-3.12752891 28.86229709 -3.13353677 24.49219031 -3.13613701 20.12205315 C-3.13799111 18.45101576 -3.14161144 16.77997942 -3.14698982 15.10894966 C-3.15420135 12.77654988 -3.15525066 10.44422546 -3.15478516 8.11181641 C-3.15838043 7.41410629 -3.16197571 6.71639618 -3.16567993 5.99754333 C-3.15302482 0.1753566 -3.15302482 0.1753566 0 0 Z " fill="#959599" transform="translate(361.041259765625,323.886474609375)"/>
<path d="M0 0 C9.29298613 2.09092188 16.41202286 10.7029341 22 18 C22 18.66 22 19.32 22 20 C22.66 20 23.32 20 24 20 C25.91015625 22.046875 25.91015625 22.046875 28.0625 24.75 C28.77535156 25.63171875 29.48820312 26.5134375 30.22265625 27.421875 C31.8290418 29.75201668 32.5813738 31.24350751 33 34 C29.76912579 33.44295272 27.97638863 32.66812465 26 30 C26 28.68 26 27.36 26 26 C25.3915625 25.9175 24.783125 25.835 24.15625 25.75 C20.72961172 24.55812582 19.97043544 21.89001299 18.34375 18.8125 C16.68779724 16.5788893 15.68596954 16.42634437 13 16 C12.34 15.67 11.68 15.34 11 15 C11.66 13.68 12.32 12.36 13 11 C10.03 10.505 10.03 10.505 7 10 C7 9.34 7 8.68 7 8 C6.401875 7.979375 5.80375 7.95875 5.1875 7.9375 C3 7 3 7 1.25 3.4375 C0.8375 2.303125 0.425 1.16875 0 0 Z " fill="#C7C8CA" transform="translate(213,118)"/>
<path d="M0 0 C6.75 0.875 6.75 0.875 9 2 C8.67 2.66 8.34 3.32 8 4 C7.34 4 6.68 4 6 4 C6.54226981 7.79588866 8.20127563 9.47211993 11 12 C11.33 11.01 11.66 10.02 12 9 C13.32 9 14.64 9 16 9 C15.34 11.64 14.68 14.28 14 17 C14.66 17 15.32 17 16 17 C16 17.66 16 18.32 16 19 C14.35 19.66 12.7 20.32 11 21 C6 15.25 6 15.25 6 13 C5.34 13 4.68 13 4 13 C3.13083113 11.59248779 2.28014851 10.1735479 1.4375 8.75 C0.72400391 7.56664062 0.72400391 7.56664062 -0.00390625 6.359375 C-1.13022151 3.69155375 -1.0169313 2.65498232 0 0 Z " fill="#989698" transform="translate(160,239)"/>
<path d="M0 0 C7.59 0 15.18 0 23 0 C23 0.33 23 0.66 23 1 C16.565 1.495 16.565 1.495 10 2 C9.34 3.65 8.68 5.3 8 7 C8.66 7 9.32 7 10 7 C10 7.66 10 8.32 10 9 C10.66 9 11.32 9 12 9 C12.33 11.31 12.66 13.62 13 16 C13.99 16 14.98 16 16 16 C16.12375 16.928125 16.12375 16.928125 16.25 17.875 C16.81258459 20.18437567 16.81258459 20.18437567 19.0625 21.25 C19.701875 21.4975 20.34125 21.745 21 22 C20.67 23.32 20.34 24.64 20 26 C17.65863048 23.54921238 15.32832922 21.08817454 13 18.625 C12.33226562 17.92632812 11.66453125 17.22765625 10.9765625 16.5078125 C10.02910156 15.50234375 10.02910156 15.50234375 9.0625 14.4765625 C8.47597656 13.85861816 7.88945312 13.24067383 7.28515625 12.60400391 C6 11 6 11 6 9 C5.34 9 4.68 9 4 9 C2.7109375 7.46875 2.7109375 7.46875 1.375 5.5 C0.92898437 4.8503125 0.48296875 4.200625 0.0234375 3.53125 C-0.31429687 3.0259375 -0.65203125 2.520625 -1 2 C-0.67 1.34 -0.34 0.68 0 0 Z " fill="#8C8A90" transform="translate(188,146)"/>
<path d="M0 0 C2.02532424 1.01266212 4.04949131 2.02549552 6.0625 3.0625 C8.13410175 4.11611949 8.13410175 4.11611949 11 5 C10.67 6.32 10.34 7.64 10 9 C10.66 9 11.32 9 12 9 C12.66 9.66 13.32 10.32 14 11 C17.22791555 13.1519437 18.28400809 13.20086443 22 13 C22.79953138 16.28696233 23.09658936 17.71023192 22 21 C18.05439654 19.6236267 15.18151744 17.80978922 11.9375 15.1875 C11.10089844 14.52105469 10.26429688 13.85460937 9.40234375 13.16796875 C5.77957492 9.89864078 2.99773108 6.45647703 1 2 C0.67 1.34 0.34 0.68 0 0 Z " fill="#9C9AA0" transform="translate(175,260)"/>
<path d="M0 0 C0 3.80531289 -1.16211899 6.72696091 -3 10 C-3.78375 10.763125 -4.5675 11.52625 -5.375 12.3125 C-9.00231872 16.02618345 -10.86162703 20.31377838 -13 25 C-13.66 24.67 -14.32 24.34 -15 24 C-15.928125 24.99 -15.928125 24.99 -16.875 26 C-19 28 -19 28 -21 28 C-17.03679028 16.97793913 -7.93141808 8.35423264 0 0 Z " fill="#949497" transform="translate(178,95)"/>
<path d="M0 0 C0.99 0 1.98 0 3 0 C1.34292168 5.64913063 -0.47762012 10.26300637 -4 15 C-7.39417765 11.87378374 -9.6062718 9.43458973 -11 5 C-10.34 4.67 -9.68 4.34 -9 4 C-9 3.01 -9 2.02 -9 1 C-3.125 1.875 -3.125 1.875 -2 3 C-1.34 2.01 -0.68 1.02 0 0 Z " fill="#8A858C" transform="translate(403,382)"/>
<path d="M0 0 C0.65234375 1.78125 0.65234375 1.78125 1 4 C0.00390625 5.78125 0.00390625 5.78125 -1.4375 7.5 C-3.90811443 10.46204455 -4 10.80198362 -4 15 C-4.66 15 -5.32 15 -6 15 C-6.28875 15.5775 -6.5775 16.155 -6.875 16.75 C-7.91666667 18.83333333 -8.95833333 20.91666667 -10 23 C-5.05 23.33 -0.1 23.66 5 24 C5 24.33 5 24.66 5 25 C2.06296475 25.24849534 -0.87286332 25.47448285 -3.8125 25.6875 C-4.64587891 25.76033203 -5.47925781 25.83316406 -6.33789062 25.90820312 C-7.14033203 25.96298828 -7.94277344 26.01777344 -8.76953125 26.07421875 C-9.87711792 26.16062622 -9.87711792 26.16062622 -11.00708008 26.2487793 C-13.56985222 25.92886446 -14.38819592 24.95066193 -16 23 C-13.89731966 19.91565065 -11.7925957 16.83270125 -9.6875 13.75 C-9.09259766 12.87730469 -8.49769531 12.00460937 -7.88476562 11.10546875 C-7.30791016 10.26113281 -6.73105469 9.41679687 -6.13671875 8.546875 C-5.60780029 7.77182617 -5.07888184 6.99677734 -4.53393555 6.19824219 C-3.06683912 4.09578537 -1.5510963 2.04102318 0 0 Z " fill="#7C7B7E" transform="translate(75,375)"/>
<path d="M0 0 C3.39820495 3.56306836 3.36322857 6.3662617 3.328125 11.1796875 C3.32625183 11.87007111 3.32437866 12.56045471 3.32244873 13.27175903 C3.31574144 14.72923628 3.30185309 16.18669592 3.28125 17.64404297 C3.25020277 19.8605244 3.24028483 22.07629169 3.234375 24.29296875 C3.19564527 30.28888915 3.13623332 36.08999281 2 42 C1.67 42 1.34 42 1 42 C-0.65893022 34.01639833 -1.19321823 26.32096837 -1.1875 18.1875 C-1.18814453 17.30489502 -1.18878906 16.42229004 -1.18945312 15.51293945 C-1.14596868 10.26071031 -0.7546483 5.1980175 0 0 Z " fill="#747273" transform="translate(142,164)"/>
<path d="M0 0 C7.16201641 14.22811295 7.16201641 14.22811295 8 22 C7.67 22.66 7.34 23.32 7 24 C8.32 23.67 9.64 23.34 11 23 C11.33 24.65 11.66 26.3 12 28 C11.34 28 10.68 28 10 28 C9.67 28.66 9.34 29.32 9 30 C-0.14491834 12.29665451 -0.14491834 12.29665451 -2 5 C-1 2 -1 2 0 0 Z " fill="#9A989A" transform="translate(148,211)"/>
<path d="M0 0 C1.32 0.66 2.64 1.32 4 2 C4 2.66 4 3.32 4 4 C6.64 4 9.28 4 12 4 C12 4.33 12 4.66 12 5 C-11.48142415 8.3374613 -11.48142415 8.3374613 -22 6 C-20 3 -20 3 -18.15234375 2.48828125 C-17.42144531 2.43027344 -16.69054687 2.37226563 -15.9375 2.3125 C-15.14085937 2.24546875 -14.34421875 2.1784375 -13.5234375 2.109375 C-10.29038238 1.96924258 -7.08003181 2.01763528 -3.84765625 2.16015625 C-1.7489214 2.17785582 -1.7489214 2.17785582 0 0 Z " fill="#A6A6A6" transform="translate(259,290)"/>
<path d="M0 0 C0.66 0.33 1.32 0.66 2 1 C1 4 1 4 -0.7421875 4.95703125 C-1.44601563 5.23933594 -2.14984375 5.52164063 -2.875 5.8125 C-7.09349972 7.75315973 -8.0699989 9.77237854 -10 14 C-13.86600963 16.40319518 -16.66239148 16.00874617 -21 15 C-15.28786966 8.71665663 -7.91833983 3.16733593 0 0 Z " fill="#949495" transform="translate(200,80)"/>
<path d="M0 0 C6.27 0 12.54 0 19 0 C18.0816323 3.67347079 17.1301794 5.93254166 15 9 C14.34 9 13.68 9 13 9 C13 9.66 13 10.32 13 11 C11.35 10.67 9.7 10.34 8 10 C8.20625 9.05125 8.4125 8.1025 8.625 7.125 C8.74875 6.09375 8.8725 5.0625 9 4 C6.23776722 1.23776722 3.79293383 1.42143709 0 1 C0 0.67 0 0.34 0 0 Z " fill="#B0AFB3" transform="translate(112,325)"/>
<path d="M0 0 C0.66 0 1.32 0 2 0 C2 0.66 2 1.32 2 2 C2.66 2 3.32 2 4 2 C4 2.66 4 3.32 4 4 C2.68 4.33 1.36 4.66 0 5 C0.33 5.99 0.66 6.98 1 8 C-0.4375 10.1875 -0.4375 10.1875 -2 12 C-1.67 12.66 -1.34 13.32 -1 14 C-1.75 16.0625 -1.75 16.0625 -3 18 C-3.99 18.33 -4.98 18.66 -6 19 C-6.66 18.67 -7.32 18.34 -8 18 C-10.01927511 18.60578253 -12.02253397 19.26919734 -14 20 C-13.175 19.05125 -12.35 18.1025 -11.5 17.125 C-8.85100999 14.01972463 -6.22072356 10.89997059 -3.625 7.75 C-2.93664062 6.91984375 -2.24828125 6.0896875 -1.5390625 5.234375 C0.28363092 3.04042176 0.28363092 3.04042176 0 0 Z " fill="#8E8E90" transform="translate(217,181)"/>
<path d="M0 0 C1.76171875 0.16015625 1.76171875 0.16015625 4 1 C5.89453125 3.37109375 5.89453125 3.37109375 7.8125 6.4375 C10.91831138 11.32886212 14.16370967 16.02341464 17.65234375 20.6484375 C19.244903 23.42733799 19.64010806 25.83841767 20 29 C15.69617878 25.21785408 12.91572175 20.92592067 9.9140625 16.06640625 C7.21878582 11.748463 4.3585712 7.55022466 1.50390625 3.3359375 C0 1 0 1 0 0 Z " fill="#A6A7A9" transform="translate(108,364)"/>
<path d="M0 0 C3 1 3 1 4.31640625 3.22265625 C8.34491161 12.40360733 10.37217037 19.91004763 10 30 C8.21403811 27.32105716 7.60830822 25.9968331 6.9296875 22.98828125 C6.66865234 21.85229492 6.66865234 21.85229492 6.40234375 20.69335938 C6.22832031 19.90767578 6.05429687 19.12199219 5.875 18.3125 C5.69324219 17.51521484 5.51148438 16.71792969 5.32421875 15.89648438 C4.87726573 13.93224349 4.43789584 11.96627986 4 10 C3.34 10 2.68 10 2 10 C1.34 6.7 0.68 3.4 0 0 Z " fill="#C6C4C5" transform="translate(345,130)"/>
<path d="M0 0 C1.84765625 0.33984375 1.84765625 0.33984375 4.0625 0.9375 C5.16271484 1.22947266 5.16271484 1.22947266 6.28515625 1.52734375 C7.13400391 1.76130859 7.13400391 1.76130859 8 2 C8 2.66 8 3.32 8 4 C8.70125 4.2475 9.4025 4.495 10.125 4.75 C13.40586602 6.17646349 16.1386984 7.8540238 19 10 C19.33 10.99 19.66 11.98 20 13 C19.01 13 18.02 13 17 13 C16.67 13.66 16.34 14.32 16 15 C15.01 14.67 14.02 14.34 13 14 C12.5359375 12.5459375 12.5359375 12.5459375 12.0625 11.0625 C11.33648699 7.92450088 11.33648699 7.92450088 9.0625 6.8125 C8.381875 6.544375 7.70125 6.27625 7 6 C5.25 4.375 5.25 4.375 4 3 C3.34 3.66 2.68 4.32 2 5 C1.67 4.01 1.34 3.02 1 2 C0.34 1.67 -0.32 1.34 -1 1 C-0.67 0.67 -0.34 0.34 0 0 Z " fill="#C3C3C5" transform="translate(287,233)"/>
<path d="M0 0 C8.50853074 -0.37053279 17.01495518 -0.34545843 25 3 C25.33 3.99 25.66 4.98 26 6 C25.071875 5.979375 24.14375 5.95875 23.1875 5.9375 C19.97713989 5.84230396 19.97713989 5.84230396 17 7 C16.6184375 6.51789063 16.236875 6.03578125 15.84375 5.5390625 C13.38285114 3.48483761 11.67080033 3.53694948 8.5 3.375 C5.35988607 3.1977355 2.99984571 2.99994857 0 2 C0 1.34 0 0.68 0 0 Z " fill="#D4D3D4" transform="translate(255,69)"/>
<path d="M0 0 C0.66 0 1.32 0 2 0 C3.25390625 1.64453125 3.25390625 1.64453125 4.5625 3.8125 C4.99691406 4.52019531 5.43132812 5.22789062 5.87890625 5.95703125 C7 8 7 8 8 11 C8.66 11 9.32 11 10 11 C12.125 15.625 12.125 15.625 11 19 C10.34 19.66 9.68 20.32 9 21 C7.02 16.71 5.04 12.42 3 8 C2.34 9.32 1.68 10.64 1 12 C0.67 8.04 0.34 4.08 0 0 Z " fill="#A4A3A3" transform="translate(373,347)"/>
<path d="M0 0 C0.33 0.66 0.66 1.32 1 2 C3.01669827 3.13350534 3.01669827 3.13350534 5 4 C4.01 4.495 4.01 4.495 3 5 C3.33 6.32 3.66 7.64 4 9 C4.66 9 5.32 9 6 9 C6 10.98 6 12.96 6 15 C1.41283413 10.55618306 -2.78762713 5.79771501 -7 1 C-3.375 -1.125 -3.375 -1.125 0 0 Z " fill="#A5A3A4" transform="translate(272,192)"/>
<path d="M0 0 C5.81636655 9.67765191 4.26258205 25.02990552 4 36 C1.59344816 33.59344816 1.65921444 32.7323694 1.3671875 29.421875 C1.28339844 28.50792969 1.19960938 27.59398437 1.11328125 26.65234375 C1.03464844 25.69457031 0.95601563 24.73679688 0.875 23.75 C0.78863281 22.80769531 0.70226562 21.86539063 0.61328125 20.89453125 C0.20286303 16.24963931 -0.10964758 11.667854 0 7 C-0.66 6.67 -1.32 6.34 -2 6 C-1.34 6 -0.68 6 0 6 C0 4.02 0 2.04 0 0 Z " fill="#909190" transform="translate(355,154)"/>
<path d="M0 0 C1.32 0.66 2.64 1.32 4 2 C-1.445 8.435 -1.445 8.435 -7 15 C-7.66 14.34 -8.32 13.68 -9 13 C-9 8.25852179 -7.90322818 6.64977257 -5 3 C-4.01 3 -3.02 3 -2 3 C-1.34 2.01 -0.68 1.02 0 0 Z " fill="#9B9B9F" transform="translate(218,206)"/>
<path d="M0 0 C3.75248225 1.25082742 4.0515262 2.36825387 5.9375 5.75 C8.05245025 9.43138473 10.20899244 12.77960667 13 16 C12.401875 15.67 11.80375 15.34 11.1875 15 C8.94613529 13.79212012 8.94613529 13.79212012 6 14 C3.73828125 11.59375 3.73828125 11.59375 1.3125 8.5 C0.10013672 6.96859375 0.10013672 6.96859375 -1.13671875 5.40625 C-1.75160156 4.6121875 -2.36648437 3.818125 -3 3 C-2.01 2.67 -1.02 2.34 0 2 C0 1.34 0 0.68 0 0 Z " fill="#A3A2A9" transform="translate(227,149)"/>
<path d="M0 0 C2.9719385 1.12451727 5.33440687 2.22293791 8 4 C8 3.34 8 2.68 8 2 C8.66 2.33 9.32 2.66 10 3 C10.66 3.309375 11.32 3.61875 12 3.9375 C14 5 14 5 16 7 C16 7.99 16 8.98 16 10 C15.34 10 14.68 10 14 10 C14 10.66 14 11.32 14 12 C14.66 12 15.32 12 16 12 C16.33 13.65 16.66 15.3 17 17 C12.98276165 14.07837211 9.91860286 10.72322764 6.71484375 6.97265625 C4.58448934 4.52202077 2.33022931 2.2596163 0 0 Z " fill="#9A989C" transform="translate(207,134)"/>
<path d="M0 0 C2.64 0 5.28 0 8 0 C7.34 0.66 6.68 1.32 6 2 C6.33 2.66 6.66 3.32 7 4 C6.67 4.99 6.34 5.98 6 7 C6.66 7.33 7.32 7.66 8 8 C9.6875 10.4375 9.6875 10.4375 11 13 C10.67 13.66 10.34 14.32 10 15 C9.01 15 8.02 15 7 15 C4.15543212 10.11429181 1.54545146 5.47932789 0 0 Z " fill="#8F8C91" transform="translate(64,326)"/>
<path d="M0 0 C10.23 0 20.46 0 31 0 C30.67 0.99 30.34 1.98 30 3 C20.1 3 10.2 3 0 3 C0 2.01 0 1.02 0 0 Z " fill="#898385" transform="translate(160,384)"/>
<path d="M0 0 C3.37339774 1.12446591 4.60069275 2.44589873 7 5 C7.66 5.66 8.32 6.32 9 7 C9.8563027 9.63233792 10.38929927 12.29546818 11 15 C10.34 15 9.68 15 9 15 C8.67 15.99 8.34 16.98 8 18 C6.66180502 15.3773768 5.3292849 12.75213401 4 10.125 C3.6184375 9.37863281 3.236875 8.63226563 2.84375 7.86328125 C2.4828125 7.14785156 2.121875 6.43242187 1.75 5.6953125 C1.41484375 5.03547363 1.0796875 4.37563477 0.734375 3.69580078 C0 2 0 2 0 0 Z " fill="#A2A1A2" transform="translate(383,368)"/>
<path d="M0 0 C0.33 1.32 0.66 2.64 1 4 C0.01 4 -0.98 4 -2 4 C-2.33 6.64 -2.66 9.28 -3 12 C-3.99 12.33 -4.98 12.66 -6 13 C-6.33 13.66 -6.66 14.32 -7 15 C-7.66 15 -8.32 15 -9 15 C-9.33 15.66 -9.66 16.32 -10 17 C-10.66 17.33 -11.32 17.66 -12 18 C-11.125 13.25 -11.125 13.25 -10 11 C-9.34 11 -8.68 11 -8 11 C-7.73445313 10.41734375 -7.46890625 9.8346875 -7.1953125 9.234375 C-5.96697004 6.93825772 -4.59685061 5.19643982 -2.875 3.25 C-2.33617187 2.63640625 -1.79734375 2.0228125 -1.2421875 1.390625 C-0.62730469 0.70226562 -0.62730469 0.70226562 0 0 Z " fill="#8A8C8F" transform="translate(271,168)"/>
<path d="M0 0 C2.86724686 0.57344937 3.8614515 0.8614515 6 3 C6 4.32 6 5.64 6 7 C-0.93 7 -7.86 7 -15 7 C-15 6.67 -15 6.34 -15 6 C-8.565 5.505 -8.565 5.505 -2 5 C-1.34 3.35 -0.68 1.7 0 0 Z " fill="#BABABF" transform="translate(306,214)"/>
<path d="M0 0 C-1.29977048 4.8991349 -2.92373687 9.37559575 -5 14 C-5.66 13.01 -6.32 12.02 -7 11 C-6.34 11 -5.68 11 -5 11 C-5.66 10.34 -6.32 9.68 -7 9 C-7.33 8.34 -7.66 7.68 -8 7 C-7.67 6.01 -7.34 5.02 -7 4 C-7.66 3.67 -8.32 3.34 -9 3 C-9 2.34 -9 1.68 -9 1 C-5.8035914 -0.06546953 -3.34252724 -0.07427838 0 0 Z " fill="#939395" transform="translate(170,136)"/>
<path d="M0 0 C2.0625 0.4375 2.0625 0.4375 4 1 C5.46845421 6.47332932 4.44038726 9.11922548 2 14 C1.01 13.67 0.02 13.34 -1 13 C-1.07427838 9.65747276 -1.06546953 7.1964086 0 4 C-0.33 3.01 -0.66 2.02 -1 1 C-0.67 0.67 -0.34 0.34 0 0 Z " fill="#949396" transform="translate(154,385)"/>
<path d="M0 0 C0.99 0 1.98 0 3 0 C4.4375 2.125 4.4375 2.125 6 5 C7.0828125 6.5778125 7.0828125 6.5778125 8.1875 8.1875 C10 11 10 11 10 13 C9.01 13.33 8.02 13.66 7 14 C5.63343543 12.23871656 4.28205915 10.46563912 2.9375 8.6875 C1.80634766 7.20830078 1.80634766 7.20830078 0.65234375 5.69921875 C0.10707031 4.80847656 -0.43820313 3.91773438 -1 3 C-0.67 2.01 -0.34 1.02 0 0 Z " fill="#8F8D91" transform="translate(76,344)"/>
<path d="M0 0 C3.54235668 3.10334667 5.0937068 5.98889022 6.75 10.375 C7.39195312 12.02628906 7.39195312 12.02628906 8.046875 13.7109375 C8.99755589 16.99156581 9.18452533 19.60678415 9 23 C5.85134256 19.37857117 4.43146779 15.37866843 2.8125 10.9375 C2.53986328 10.21755859 2.26722656 9.49761719 1.98632812 8.75585938 C0.8591815 5.71341098 0 3.27011542 0 0 Z " fill="#ACACAD" transform="translate(198,360)"/>
<path d="M0 0 C0.99 0 1.98 0 3 0 C2.34 1.98 1.68 3.96 1 6 C-0.423125 6.2165625 -0.423125 6.2165625 -1.875 6.4375 C-4.8934494 6.82935399 -4.8934494 6.82935399 -7 8 C-7.99 6.02 -8.98 4.04 -10 2 C-7.6875 1.375 -7.6875 1.375 -5 1 C-4.01 1.66 -3.02 2.32 -2 3 C-1.34 2.01 -0.68 1.02 0 0 Z " fill="#A3A2A3" transform="translate(403,382)"/>
<path d="M0 0 C1.02802734 0.00966797 2.05605469 0.01933594 3.11523438 0.02929688 C4.72301758 0.06700195 4.72301758 0.06700195 6.36328125 0.10546875 C7.44673828 0.11900391 8.53019531 0.13253906 9.64648438 0.14648438 C12.3234153 0.18186232 14.99934963 0.23122686 17.67578125 0.29296875 C17.67578125 0.62296875 17.67578125 0.95296875 17.67578125 1.29296875 C16.639375 1.34195313 15.60296875 1.3909375 14.53515625 1.44140625 C13.16533917 1.51646472 11.79554877 1.59201122 10.42578125 1.66796875 C9.74386719 1.69890625 9.06195313 1.72984375 8.359375 1.76171875 C4.61821595 1.97965035 1.94794544 2.50106931 -1.32421875 4.29296875 C-1.98421875 3.96296875 -2.64421875 3.63296875 -3.32421875 3.29296875 C-6.29421875 5.76796875 -6.29421875 5.76796875 -9.32421875 8.29296875 C-8.97304055 5.69425009 -8.68167603 3.78022694 -7.11401367 1.64331055 C-4.66173476 -0.20685378 -3.04883882 -0.05053324 0 0 Z " fill="#D0D2D5" transform="translate(294.32421875,146.70703125)"/>
<path d="M0 0 C0.66 0.33 1.32 0.66 2 1 C2 1.66 2 2.32 2 3 C2.88945312 3.14308594 2.88945312 3.14308594 3.796875 3.2890625 C6.47421293 4.15302616 7.45943528 5.23174829 9.25 7.375 C9.77078125 7.98085937 10.2915625 8.58671875 10.828125 9.2109375 C12 11 12 11 12 14 C11.01 14.33 10.02 14.66 9 15 C9 14.01 9 13.02 9 12 C7.14589423 9.89586384 7.14589423 9.89586384 5 8 C4.34 7.34 3.68 6.68 3 6 C2.01 6.495 2.01 6.495 1 7 C1 6.34 1 5.68 1 5 C0.01 4.67 -0.98 4.34 -2 4 C-1.34 2.68 -0.68 1.36 0 0 Z " fill="#C5C5C5" transform="translate(274,216)"/>
<path d="M0 0 C2.12508244 3.18762365 2.5020163 5.26512223 3 9 C0.02760209 10.48619895 -2.69619578 10.13177009 -6 10.125 C-7.8871875 10.12886719 -7.8871875 10.12886719 -9.8125 10.1328125 C-13 10 -13 10 -15 9 C-14.67 8.34 -14.34 7.68 -14 7 C-9.38 7 -4.76 7 0 7 C0 4.69 0 2.38 0 0 Z " fill="#737275" transform="translate(345,391)"/>
<path d="M0 0 C1 3 1 3 0.0625 5.1875 C-0.288125 5.785625 -0.63875 6.38375 -1 7 C-1.495 4.525 -1.495 4.525 -2 2 C-12.23 2 -22.46 2 -33 2 C-33.33 2.66 -33.66 3.32 -34 4 C-34 3.01 -34 2.02 -34 1 C-29.96154606 0.85646482 -25.92305315 0.71408569 -21.88452148 0.57275391 C-20.51211459 0.52456523 -19.13971854 0.47606675 -17.76733398 0.42724609 C-15.78892891 0.35692194 -13.8104804 0.28782304 -11.83203125 0.21875 C-10.64327393 0.17685547 -9.4545166 0.13496094 -8.22973633 0.09179688 C-5.48377864 0.01375015 -2.74674708 -0.0181154 0 0 Z " fill="#908B8D" transform="translate(327,384)"/>
<path d="M0 0 C-0.33 1.65 -0.66 3.3 -1 5 C-2.65 5.33 -4.3 5.66 -6 6 C-6 5.34 -6 4.68 -6 4 C-7.65 4.66 -9.3 5.32 -11 6 C-10.4375 3.625 -10.4375 3.625 -9 1 C-2.84 -1.42 -2.84 -1.42 0 0 Z " fill="#BBBABB" transform="translate(296,114)"/>
<path d="M0 0 C1.33332095 2.6666419 0.67102033 4.16680303 0 7 C-0.66 7 -1.32 7 -2 7 C-1.79375 7.598125 -1.5875 8.19625 -1.375 8.8125 C-1 11 -1 11 -3 14 C-4.00568242 15.66324401 -5.00664799 17.32936253 -6 19 C-7.65 18.67 -9.3 18.34 -11 18 C-10.67 17.34 -10.34 16.68 -10 16 C-9.34 16 -8.68 16 -8 16 C-7.38511719 14.77023437 -7.38511719 14.77023437 -6.7578125 13.515625 C-4.50520833 9.01041667 -2.25260417 4.50520833 0 0 Z " fill="#999A9C" transform="translate(407,346)"/>
<path d="M0 0 C2.32755853 2.32755853 3.13456339 3.82673245 4 7 C3.125 10.3125 3.125 10.3125 2 13 C2.66 13.33 3.32 13.66 4 14 C3.01 14 2.02 14 1 14 C0.01 11.36 -0.98 8.72 -2 6 C-1.34 6 -0.68 6 0 6 C-0.66 4.68 -1.32 3.36 -2 2 C-1.34 2 -0.68 2 0 2 C0 1.34 0 0.68 0 0 Z " fill="#D2CECF" transform="translate(332,128)"/>
<path d="M0 0 C-3.12493704 3.12493704 -5.91645015 3.95911133 -10.3125 4.125 C-11.199375 4.08375 -12.08625 4.0425 -13 4 C-12.0668626 1.6671565 -11.27420702 0.22342795 -9.3125 -1.375 C-5.8514742 -2.31041238 -3.31377375 -1.14707553 0 0 Z " fill="#B5B2B2" transform="translate(295,286)"/>
<path d="M0 0 C0.33 0.66 0.66 1.32 1 2 C1.99 1.67 2.98 1.34 4 1 C4.28875 1.639375 4.5775 2.27875 4.875 2.9375 C5.82823451 5.15206079 5.82823451 5.15206079 8 6 C7.34 6.66 6.68 7.32 6 8 C4.68 8 3.36 8 2 8 C2 7.34 2 6.68 2 6 C1.34 6 0.68 6 0 6 C-1.625 3.5 -1.625 3.5 -3 1 C-2.01 0.67 -1.02 0.34 0 0 Z " fill="#949296" transform="translate(246,173)"/>
<path d="M0 0 C0 0.66 0 1.32 0 2 C-3.89354035 2.07487578 -7.24652126 1.96391597 -11 1 C-13.75317974 0.77609683 -16.49305329 0.58606338 -19.25 0.4375 C-19.99507812 0.39431641 -20.74015625 0.35113281 -21.5078125 0.30664062 C-23.338349 0.20103275 -25.16915176 0.10005799 -27 0 C-27 -0.33 -27 -0.66 -27 -1 C-17.62509392 -2.04009453 -9.25454457 -1.86013271 0 0 Z " fill="#C9C7C8" transform="translate(270,85)"/>
<path d="M0 0 C5.40694067 0.43255525 8.75366122 1.58221513 13 5 C13 5.66 13 6.32 13 7 C4.86265342 6.65225015 4.86265342 6.65225015 1.4375 4.0625 C0 2 0 2 0 0 Z " fill="#DADADB" transform="translate(293,79)"/>
<path d="M0 0 C0.33 1.32 0.66 2.64 1 4 C1.66 4 2.32 4 3 4 C2.42676569 7.86933162 0.61046448 10.15222057 -2 13 C-2.66 13 -3.32 13 -4 13 C-2.93204565 8.49933525 -1.85961414 4.2505466 0 0 Z " fill="#858387" transform="translate(144,380)"/>
<path d="M0 0 C1.24794222 3.55956672 0.73448579 5.85988505 -0.3125 9.4375 C-0.57675781 10.36433594 -0.84101563 11.29117187 -1.11328125 12.24609375 C-1.96381639 14.8876236 -2.93529646 17.4382024 -4 20 C-4.99 20 -5.98 20 -7 20 C-4.80962826 13.27954125 -2.44234339 6.63275997 0 0 Z " fill="#7E7F83" transform="translate(287,355)"/>
<path d="M0 0 C6.47135061 0.48840382 6.47135061 0.48840382 8.9375 2.875 C10 5 10 5 10 8 C7 8 7 8 5.5625 6.625 C5.046875 6.08875 4.53125 5.5525 4 5 C1.90010348 3.82425289 1.90010348 3.82425289 0 3 C0 2.01 0 1.02 0 0 Z " fill="#D9D8D9" transform="translate(321,100)"/>
<path d="M0 0 C3.06879005 -0.28484391 4.6009442 -0.25419785 7.23828125 1.42578125 C7.92277344 2.04839844 8.60726563 2.67101562 9.3125 3.3125 C10.00988281 3.92738281 10.70726562 4.54226562 11.42578125 5.17578125 C13 7 13 7 13 10 C9.74035658 8.51222697 7.06830707 6.64333184 4.25 4.4375 C3.45078125 3.81746094 2.6515625 3.19742188 1.828125 2.55859375 C1.22484375 2.04425781 0.6215625 1.52992187 0 1 C0 0.67 0 0.34 0 0 Z " fill="#D8D9DB" transform="translate(308,88)"/>
<path d="M0 0 C0.66 0.33 1.32 0.66 2 1 C2 1.66 2 2.32 2 3 C2.99 2.67 3.98 2.34 5 2 C5.66 2.66 6.32 3.32 7 4 C4.375 8.875 4.375 8.875 1 10 C-1.125 3.375 -1.125 3.375 0 0 Z " fill="#918C93" transform="translate(328,388)"/>
<path d="M0 0 C6.27 0 12.54 0 19 0 C19 4.95 19 9.9 19 15 C18.67 15 18.34 15 18 15 C17.67 11.04 17.34 7.08 17 3 C13.31393395 2.07848349 10.0272887 1.70191021 6.25 1.4375 C5.07953125 1.35371094 3.9090625 1.26992188 2.703125 1.18359375 C1.81109375 1.12300781 0.9190625 1.06242187 0 1 C0 0.67 0 0.34 0 0 Z " fill="#D6D6D9" transform="translate(419,325)"/>
<path d="M0 0 C0 0.33 0 0.66 0 1 C-8.55935463 2.31682379 -17.48622217 2.89195063 -26 1 C-26 0.67 -26 0.34 -26 0 C-17.17755905 -0.93855755 -8.82244095 -0.93855755 0 0 Z " fill="#5C5C5D" transform="translate(263,295)"/>
<path d="M0 0 C3.73884332 2.65654657 5.64978174 4.58110387 7 9 C5.53932801 8.54917531 4.08151968 8.08906463 2.625 7.625 C1.81289062 7.36976563 1.00078125 7.11453125 0.1640625 6.8515625 C-2 6 -2 6 -4 4 C-3.67 3.34 -3.34 2.68 -3 2 C-2.01 2 -1.02 2 0 2 C0 1.34 0 0.68 0 0 Z " fill="#8A888B" transform="translate(206,280)"/>
<path d="M0 0 C0.33 0.99 0.66 1.98 1 3 C1.99 3.33 2.98 3.66 4 4 C4.3721042 5.32303717 4.70630173 6.65737935 5 8 C5.66 8.33 6.32 8.66 7 9 C6.67 9.33 6.34 9.66 6 10 C6.40929986 12.05396726 6.40929986 12.05396726 7 14 C6.67 13.34 6.34 12.68 6 12 C5.34 12 4.68 12 4 12 C1.92739402 9.97559416 0.39452014 8.47666778 -1 6 C-0.8125 2.625 -0.8125 2.625 0 0 Z " fill="#9D9A9B" transform="translate(253,210)"/>
<path d="M0 0 C1 2 1 2 0.25 4.5625 C-1 7 -1 7 -4 8 C-5.01691264 9.99145391 -6.01642648 11.99187074 -7 14 C-7.99 14.66 -8.98 15.32 -10 16 C-10 11.05305306 -8.10455606 9.25730927 -5 5.75 C-4.52304688 5.19570312 -4.04609375 4.64140625 -3.5546875 4.0703125 C-2.37852497 2.70596396 -1.19039499 1.35194859 0 0 Z " fill="#82828A" transform="translate(202,201)"/>
<path d="M0 0 C0.99 0 1.98 0 3 0 C1.92598892 2.91517292 1.22189824 4.77810176 -1 7 C-1.33 6.67 -1.66 6.34 -2 6 C-4.33297433 5.95907063 -6.66705225 5.95758277 -9 6 C-8.67 5.34 -8.34 4.68 -8 4 C-7.34 4 -6.68 4 -6 4 C-5.67 3.34 -5.34 2.68 -5 2 C-3.67696283 1.6278958 -2.34262065 1.29369827 -1 1 C-0.67 0.67 -0.34 0.34 0 0 Z " fill="#848387" transform="translate(81,392)"/>
<path d="M0 0 C1.37351794 3.12163168 0.89111525 4.33811581 -0.1875 7.6875 C-0.785625 8.780625 -1.38375 9.87375 -2 11 C-3.32 11.33 -4.64 11.66 -6 12 C-5.34 9.03 -4.68 6.06 -4 3 C-2.68 2.67 -1.36 2.34 0 2 C0 1.34 0 0.68 0 0 Z " fill="#9D9C9D" transform="translate(283,373)"/>
<path d="M0 0 C0.66 0.99 1.32 1.98 2 3 C1.01 3.33 0.02 3.66 -1 4 C-1.061875 5.0725 -1.12375 6.145 -1.1875 7.25 C-2 11 -2 11 -4.5625 13.4375 C-5.7690625 14.2109375 -5.7690625 14.2109375 -7 15 C-7.33 14.01 -7.66 13.02 -8 12 C-6.6015625 9.58984375 -6.6015625 9.58984375 -4.625 6.9375 C-2.10492378 3.59568792 -2.10492378 3.59568792 0 0 Z " fill="#8E8E90" transform="translate(104,334)"/>
<path d="M0 0 C0 2.83967231 -0.40267181 5.23735711 -1 8 C-1.99 8 -2.98 8 -4 8 C-4.33 8.66 -4.66 9.32 -5 10 C-5.66 10 -6.32 10 -7 10 C-7.33 10.66 -7.66 11.32 -8 12 C-8.66 11.67 -9.32 11.34 -10 11 C-10 10.34 -10 9.68 -10 9 C-8.3203125 7.34375 -8.3203125 7.34375 -6.125 5.5 C-4.00964496 3.71066742 -1.95980876 1.95980876 0 0 Z " fill="#6F7478" transform="translate(217,224)"/>
<path d="M0 0 C0.33 0 0.66 0 1 0 C1.66 5.94 2.32 11.88 3 18 C1.35 17.01 -0.3 16.02 -2 15 C-1.34 10.05 -0.68 5.1 0 0 Z " fill="#909091" transform="translate(159,188)"/>
<path d="M0 0 C3.375 0.25 3.375 0.25 7 1 C8.4375 3.0625 8.4375 3.0625 9 5 C8.01 5 7.02 5 6 5 C5.67 5.66 5.34 6.32 5 7 C4.01 6.67 3.02 6.34 2 6 C0.8125 2.9375 0.8125 2.9375 0 0 Z " fill="#C4C4C6" transform="translate(298,241)"/>
<path d="M0 0 C0.66 0.99 1.32 1.98 2 3 C-0.23616978 7.47233955 -2.80294937 9.37684336 -7 12 C-8.79394446 13.62351109 -8.79394446 13.62351109 -10 15 C-10.33 14.34 -10.66 13.68 -11 13 C-10.34 13 -9.68 13 -9 13 C-8.74476563 12.43796875 -8.48953125 11.8759375 -8.2265625 11.296875 C-6.84307219 8.70613518 -5.20061417 6.54892155 -3.375 4.25 C-2.74335938 3.45078125 -2.11171875 2.6515625 -1.4609375 1.828125 C-0.97882813 1.22484375 -0.49671875 0.6215625 0 0 Z " fill="#7B7C7F" transform="translate(229,209)"/>
<path d="M0 0 C4 2 4 2 6 5 C6.125 7.6875 6.125 7.6875 6 10 C3.03 9.505 3.03 9.505 0 9 C0 6.03 0 3.06 0 0 Z " fill="#D6D4D2" transform="translate(339,119)"/>
<path d="M0 0 C2.4375 1.75 2.4375 1.75 4.4375 4.75 C4.4375 5.74 4.4375 6.73 4.4375 7.75 C2.5 7.4375 2.5 7.4375 0.4375 6.75 C0.1075 5.76 -0.2225 4.77 -0.5625 3.75 C-3.06697516 2.53130071 -3.06697516 2.53130071 -5.5625 1.75 C-5.5625 1.09 -5.5625 0.43 -5.5625 -0.25 C-2.5625 -1.25 -2.5625 -1.25 0 0 Z " fill="#D6D5D4" transform="translate(334.5625,110.25)"/>
<path d="M0 0 C0 3.95875396 -1.21313946 6.49009536 -3 10 C-5.1875 11.4375 -5.1875 11.4375 -7 12 C-7.66 11.34 -8.32 10.68 -9 10 C-7.8758824 8.70756532 -6.75067408 7.41607925 -5.625 6.125 C-4.99851563 5.40570313 -4.37203125 4.68640625 -3.7265625 3.9453125 C-2.52573166 2.5923402 -1.2791655 1.2791655 0 0 Z " fill="#79797F" transform="translate(178,95)"/>
<path d="M0 0 C0.75023438 0.96679688 0.75023438 0.96679688 1.515625 1.953125 C4.79043567 4.65123945 7.67878271 4.66534331 11.75 4.75 C12.44738281 4.77964844 13.14476563 4.80929687 13.86328125 4.83984375 C15.57490813 4.91018458 17.28745815 4.95739946 19 5 C19.33 4.01 19.66 3.02 20 2 C20.66 3.32 21.32 4.64 22 6 C18.70840684 6.05790353 15.41694397 6.09356261 12.125 6.125 C10.71927734 6.15013672 10.71927734 6.15013672 9.28515625 6.17578125 C8.38925781 6.18222656 7.49335937 6.18867188 6.5703125 6.1953125 C5.74289551 6.20578613 4.91547852 6.21625977 4.06298828 6.22705078 C2 6 2 6 0 4 C0 2.68 0 1.36 0 0 Z " fill="#B6B1B6" transform="translate(110,393)"/>
<path d="M0 0 C0.94875 0.350625 1.8975 0.70125 2.875 1.0625 C2.875 1.3925 2.875 1.7225 2.875 2.0625 C-6.365 2.0625 -15.605 2.0625 -25.125 2.0625 C-25.125 1.7325 -25.125 1.4025 -25.125 1.0625 C-24.52961426 1.03744385 -23.93422852 1.0123877 -23.32080078 0.98657227 C-20.63030864 0.87072506 -17.9401766 0.74794804 -15.25 0.625 C-14.31285156 0.58568359 -13.37570312 0.54636719 -12.41015625 0.50585938 C-11.51425781 0.46396484 -10.61835938 0.42207031 -9.6953125 0.37890625 C-8.45418701 0.32391968 -8.45418701 0.32391968 -7.18798828 0.26782227 C-1.12026066 -0.3360782 -1.12026066 -0.3360782 0 0 Z " fill="#A3A09F" transform="translate(319.125,382.9375)"/>
<path d="M0 0 C1.65 0 3.3 0 5 0 C5.79953138 3.28696233 6.09658936 4.71023192 5 8 C2.525 7.01 2.525 7.01 0 6 C0 4 0 2 0 0 Z " fill="#919091" transform="translate(192,273)"/>
<path d="M0 0 C2.02532424 1.01266212 4.04949131 2.02549552 6.0625 3.0625 C8.13410175 4.11611949 8.13410175 4.11611949 11 5 C10.67 6.32 10.34 7.64 10 9 C10.66 9 11.32 9 12 9 C12 9.66 12 10.32 12 11 C9.53199953 9.84826645 7.95216435 8.95216435 6 7 C5.01 7 4.02 7 3 7 C2.87625 6.401875 2.7525 5.80375 2.625 5.1875 C2.04524015 2.73768652 2.04524015 2.73768652 0 0 Z " fill="#929193" transform="translate(175,260)"/>
<path d="M0 0 C1.32 0 2.64 0 4 0 C4 0.66 4 1.32 4 2 C4.99 2 5.98 2 7 2 C9.1519437 5.22791555 9.20086443 6.28400809 9 10 C5.06451569 6.93906776 2.31883213 4.50884026 0 0 Z " fill="#989699" transform="translate(262,227)"/>
<path d="M0 0 C0.309375 0.94875 0.61875 1.8975 0.9375 2.875 C1.87394742 5.86080408 1.87394742 5.86080408 3 8 C2.34 8 1.68 8 1 8 C0.34 9.32 -0.32 10.64 -1 12 C-1.99 8.37 -2.98 4.74 -4 1 C-2 0 -2 0 0 0 Z " fill="#868488" transform="translate(196,387)"/>
<path d="M0 0 C2.42062282 0 3.64639901 0.67193686 5.40625 2.3046875 C6.8125 3.875 6.8125 3.875 9 7 C8.67 7.99 8.34 8.98 8 10 C5.56070254 8.07423885 3.19909405 6.19909405 1 4 C0.01 3.34 -0.98 2.68 -2 2 C-1.34 1.34 -0.68 0.68 0 0 Z " fill="#C1C0C1" transform="translate(250,188)"/>
<path d="M0 0 C0.66 0 1.32 0 2 0 C2 0.66 2 1.32 2 2 C2.66 2 3.32 2 4 2 C4 2.66 4 3.32 4 4 C2.68 4.33 1.36 4.66 0 5 C0.33 5.99 0.66 6.98 1 8 C-0.4375 10.1875 -0.4375 10.1875 -2 12 C-2.99 11.67 -3.98 11.34 -5 11 C-2 5 -2 5 -0.8125 2.6875 C0.0723026 1.16198564 0.0723026 1.16198564 0 0 Z " fill="#A1A1A3" transform="translate(217,181)"/>
<path d="M0 0 C3.375 -0.125 3.375 -0.125 7 0 C7.66 0.66 8.32 1.32 9 2 C7.02 4.97 7.02 4.97 5 8 C4.67 7.34 4.34 6.68 4 6 C3.34 5.67 2.68 5.34 2 5 C2.33 4.01 2.66 3.02 3 2 C2.01 1.67 1.02 1.34 0 1 C0 0.67 0 0.34 0 0 Z " fill="#98979A" transform="translate(122,326)"/>
<path d="M0 0 C6.6 0 13.2 0 20 0 C20.33 2.31 20.66 4.62 21 7 C20.33613281 6.19175781 19.67226563 5.38351562 18.98828125 4.55078125 C15.3918969 1.48092638 12.71820585 1.22652043 8.1875 1.1875 C7.14819336 1.14979492 7.14819336 1.14979492 6.08789062 1.11132812 C4.39252878 1.05286737 2.69620713 1.02346953 1 1 C0.67 1.66 0.34 2.32 0 3 C0 2.01 0 1.02 0 0 Z " fill="#D4D4D6" transform="translate(300,325)"/>
<path d="M0 0 C0.12375 0.639375 0.2475 1.27875 0.375 1.9375 C0.684375 2.9584375 0.684375 2.9584375 1 4 C1.66 4.33 2.32 4.66 3 5 C3 5.99 3 6.98 3 8 C0.6875 8.6875 0.6875 8.6875 -2 9 C-3.8125 7.5625 -3.8125 7.5625 -5 6 C-3.35 4.02 -1.7 2.04 0 0 Z " fill="#98999E" transform="translate(246,189)"/>
<path d="M0 0 C0.99 1.32 1.98 2.64 3 4 C3.66 3.67 4.32 3.34 5 3 C4.67 7.29 4.34 11.58 4 16 C3.67 16 3.34 16 3 16 C2.87625 15.21625 2.7525 14.4325 2.625 13.625 C2.20882007 10.85942178 2.20882007 10.85942178 0 9 C-0.1953125 6.8359375 -0.1953125 6.8359375 -0.125 4.375 C-0.10695313 3.55773437 -0.08890625 2.74046875 -0.0703125 1.8984375 C-0.04710937 1.27195313 -0.02390625 0.64546875 0 0 Z " fill="#A2A1A3" transform="translate(353,189)"/>
<path d="M0 0 C0.598125 0.20625 1.19625 0.4125 1.8125 0.625 C1.8125 1.285 1.8125 1.945 1.8125 2.625 C2.8025 2.295 3.7925 1.965 4.8125 1.625 C5.4725 3.605 6.1325 5.585 6.8125 7.625 C2.50485185 6.05858249 -1.24921464 3.94163844 -5.1875 1.625 C-2.1875 -0.375 -2.1875 -0.375 0 0 Z " fill="#A09DA0" transform="translate(294.1875,94.375)"/>
<path d="M0 0 C3.1444233 4.1925644 3.36886681 4.60036122 3.07421875 9.421875 C3.01943359 10.44667969 2.96464844 11.47148437 2.90820312 12.52734375 C2.83537109 13.59082031 2.76253906 14.65429688 2.6875 15.75 C2.62626953 16.82894531 2.56503906 17.90789062 2.50195312 19.01953125 C2.34886721 21.68087106 2.1810454 24.34043997 2 27 C1.67 27 1.34 27 1 27 C0.67 18.09 0.34 9.18 0 0 Z " fill="#CAC5C8" transform="translate(341,167)"/>
<path d="M0 0 C-0.76957031 0.38285156 -0.76957031 0.38285156 -1.5546875 0.7734375 C-3.50138653 1.74989676 -5.44299864 2.73649584 -7.3828125 3.7265625 C-8.63016168 4.35946695 -9.87755867 4.99227718 -11.125 5.625 C-12.07439453 6.11226562 -12.07439453 6.11226562 -13.04296875 6.609375 C-17.77399554 9 -17.77399554 9 -20 9 C-20 8.01 -20 7.02 -20 6 C-19.32453125 5.73445313 -18.6490625 5.46890625 -17.953125 5.1953125 C-17.06109375 4.84210938 -16.1690625 4.48890625 -15.25 4.125 C-14.36828125 3.77695313 -13.4865625 3.42890625 -12.578125 3.0703125 C-10.0410677 2.06403059 -10.0410677 2.06403059 -7.875 0.875 C-5.22957907 -0.35952977 -2.87579013 -0.13071773 0 0 Z " fill="#5C5A5C" transform="translate(316,122)"/>
<path d="M0 0 C0.6875 2.0625 0.6875 2.0625 1 4 C0.34 4 -0.32 4 -1 4 C-1.33 4.66 -1.66 5.32 -2 6 C-5 5 -5 5 -6.1875 2.9375 C-6.5896875 1.9784375 -6.5896875 1.9784375 -7 1 C-3.375 -1.125 -3.375 -1.125 0 0 Z " fill="#A5A6A4" transform="translate(167,218)"/>
<path d="M0 0 C-4.27373998 2.13686999 -6.76923622 3.11896237 -11.625 3.0625 C-12.62789062 3.05347656 -13.63078125 3.04445313 -14.6640625 3.03515625 C-15.43492187 3.02355469 -16.20578125 3.01195312 -17 3 C-17 2.34 -17 1.68 -17 1 C-11.30494264 0.3583034 -5.73266804 -0.12462322 0 0 Z " fill="#9A9A9E" transform="translate(262,278)"/>
<path d="M0 0 C0.66 0.33 1.32 0.66 2 1 C1.67 2.32 1.34 3.64 1 5 C2.32 4.67 3.64 4.34 5 4 C5.33 5.65 5.66 7.3 6 9 C5.34 9 4.68 9 4 9 C3.67 9.66 3.34 10.32 3 11 C-1.06153846 4.6 -1.06153846 4.6 -0.75 1.5625 C-0.5025 1.046875 -0.255 0.53125 0 0 Z " fill="#848384" transform="translate(154,230)"/>
<path d="M0 0 C0.99 0.33 1.98 0.66 3 1 C3 1.99 3 2.98 3 4 C3.99 4.33 4.98 4.66 6 5 C5.67 5.99 5.34 6.98 5 8 C5.39397335 10.63804589 5.39397335 10.63804589 6 13 C0 5.28571429 0 5.28571429 0 0 Z " fill="#9B999B" transform="translate(326,127)"/>
<path d="M0 0 C2.97 0.495 2.97 0.495 6 1 C6.33 3.31 6.66 5.62 7 8 C3.95507691 6.98502564 2.9701361 6.4178943 1 4 C0.3125 1.8125 0.3125 1.8125 0 0 Z " fill="#CDCDCD" transform="translate(377,329)"/>
<path d="M0 0 C-0.99 1.32 -1.98 2.64 -3 4 C-5.31 3.34 -7.62 2.68 -10 2 C-9.67 1.01 -9.34 0.02 -9 -1 C-5.23375329 -2.25541557 -3.62811066 -1.37061958 0 0 Z " fill="#969493" transform="translate(203,258)"/>
<path d="M0 0 C2.475 0.99 2.475 0.99 5 2 C2.31158141 4.25245881 0.35358125 5.88213958 -3 7 C-3 6.34 -3 5.68 -3 5 C-3.66 4.67 -4.32 4.34 -5 4 C-3.35 3.34 -1.7 2.68 0 2 C0 1.34 0 0.68 0 0 Z " fill="#929092" transform="translate(210,249)"/>
<path d="M0 0 C1.32 0 2.64 0 4 0 C3.34 2.64 2.68 5.28 2 8 C1.34 8 0.68 8 0 8 C0 7.34 0 6.68 0 6 C-0.66 6 -1.32 6 -2 6 C-2.33 5.01 -2.66 4.02 -3 3 C-2.34 3 -1.68 3 -1 3 C-0.67 2.01 -0.34 1.02 0 0 Z " fill="#9D9C9D" transform="translate(172,248)"/>
<path d="M0 0 C0.33 0 0.66 0 1 0 C1.3125 2.25 1.3125 2.25 1 5 C-1.5 7.3125 -1.5 7.3125 -4 9 C-4.99 7.68 -5.98 6.36 -7 5 C-6.21625 4.54625 -5.4325 4.0925 -4.625 3.625 C-1.96301969 2.11571258 -1.96301969 2.11571258 0 0 Z " fill="#A5A3A5" transform="translate(264,161)"/>
<path d="M0 0 C0.99 0.33 1.98 0.66 3 1 C5.14255793 0.61067144 5.14255793 0.61067144 7 0 C6.43628586 3.26954202 5.50037734 4.82575883 3 7 C3 6.34 3 5.68 3 5 C1.68 4.34 0.36 3.68 -1 3 C-0.67 2.01 -0.34 1.02 0 0 Z " fill="#A09FA2" transform="translate(266,153)"/>
<path d="M0 0 C1.20628008 2.33214148 2.1654738 4.49642139 3 7 C2.071875 7.86625 2.071875 7.86625 1.125 8.75 C-0.81347053 10.80249821 -1.90014249 12.43366582 -3 15 C-4.57156655 11.8568669 -3.11705576 9.634536 -2.0625 6.375 C-1.68222656 5.18648437 -1.30195313 3.99796875 -0.91015625 2.7734375 C-0.60980469 1.85820312 -0.30945313 0.94296875 0 0 Z " fill="#77797B" transform="translate(149,137)"/>
<path d="M0 0 C3 1 3 1 4.203125 2.99609375 C4.54859375 3.80175781 4.8940625 4.60742188 5.25 5.4375 C5.78367187 6.64212891 5.78367187 6.64212891 6.328125 7.87109375 C7 10 7 10 6 12 C5.34 11.01 4.68 10.02 4 9 C3.01 9.495 3.01 9.495 2 10 C1.34 6.7 0.68 3.4 0 0 Z " fill="#BFBBC0" transform="translate(345,130)"/>
<path d="M0 0 C4.87362847 0.45336079 7.39042389 1.7089159 11 5 C9.02 5.66 7.04 6.32 5 7 C4.731875 6.401875 4.46375 5.80375 4.1875 5.1875 C3.01506533 3.02775192 1.80630718 1.64209744 0 0 Z " fill="#C8C8C9" transform="translate(202,111)"/>
<path d="M0 0 C2.00993705 3.01490557 2.72623341 5.2149927 3.625 8.6875 C3.88539063 9.68136719 4.14578125 10.67523438 4.4140625 11.69921875 C4.60742188 12.45847656 4.80078125 13.21773438 5 14 C4.01 13.67 3.02 13.34 2 13 C2 12.01 2 11.02 2 10 C1.34 10 0.68 10 0 10 C0 6.7 0 3.4 0 0 Z " fill="#ADABAD" transform="translate(332,356)"/>
<path d="M0 0 C0.66 0 1.32 0 2 0 C5.22265625 5.17578125 5.22265625 5.17578125 6 7 C5.67 7.99 5.34 8.98 5 10 C4.34 9.34 3.68 8.68 3 8 C2.34 9.32 1.68 10.64 1 12 C0.67 8.04 0.34 4.08 0 0 Z " fill="#ACA8A7" transform="translate(373,347)"/>
<path d="M0 0 C-0.66 1.32 -1.32 2.64 -2 4 C-2.99 3.67 -3.98 3.34 -5 3 C-5.33 3.99 -5.66 4.98 -6 6 C-8.64 5.67 -11.28 5.34 -14 5 C-14 4.67 -14 4.34 -14 4 C-13.30132812 3.79503906 -12.60265625 3.59007812 -11.8828125 3.37890625 C-10.97273437 3.10949219 -10.06265625 2.84007812 -9.125 2.5625 C-8.22007812 2.29566406 -7.31515625 2.02882812 -6.3828125 1.75390625 C-0.83937824 0 -0.83937824 0 0 0 Z " fill="#8F9095" transform="translate(197,242)"/>
<path d="M0 0 C0.66 0.33 1.32 0.66 2 1 C1.67 5.29 1.34 9.58 1 14 C0.34 14 -0.32 14 -1 14 C-1.08333357 9.1666528 -0.95261487 4.76307437 0 0 Z " fill="#98969F" transform="translate(159,160)"/>
<path d="M0 0 C0.99 0.33 1.98 0.66 3 1 C1.38007835 1.86375896 -0.24611861 2.71575854 -1.875 3.5625 C-2.77992188 4.03816406 -3.68484375 4.51382813 -4.6171875 5.00390625 C-5.40351563 5.33261719 -6.18984375 5.66132812 -7 6 C-9 5 -9 5 -11 2 C-10.06027344 1.90912109 -10.06027344 1.90912109 -9.1015625 1.81640625 C-7.87566406 1.69072266 -7.87566406 1.69072266 -6.625 1.5625 C-5.81289063 1.48128906 -5.00078125 1.40007812 -4.1640625 1.31640625 C-1.95727195 1.10909886 -1.95727195 1.10909886 0 0 Z " fill="#C8C4C4" transform="translate(307,122)"/>
<path d="M0 0 C1.79068573 2.6860286 2.66055791 4.6626589 3.625 7.6875 C3.88539063 8.49574219 4.14578125 9.30398438 4.4140625 10.13671875 C4.60742188 10.75160156 4.80078125 11.36648438 5 12 C4.01 12 3.02 12 2 12 C2 11.34 2 10.68 2 10 C1.34 10 0.68 10 0 10 C-1.125 6.25 -1.125 6.25 0 4 C0 2.68 0 1.36 0 0 Z " fill="#ACACB2" transform="translate(320,325)"/>
<path d="M0 0 C1 3 1 3 0.22265625 4.82421875 C-0.8515625 6.54947917 -1.92578125 8.27473958 -3 10 C-4.9375 9.1875 -4.9375 9.1875 -7 8 C-7.33 7.01 -7.66 6.02 -8 5 C-5.03 5.495 -5.03 5.495 -2 6 C-2 4.68 -2 3.36 -2 2 C-1.34 2 -0.68 2 0 2 C0 1.34 0 0.68 0 0 Z " fill="#A5A4A5" transform="translate(417,358)"/>
<path d="M0 0 C2.4375 0.6875 2.4375 0.6875 5 2 C5.8125 4.625 5.8125 4.625 6 7 C5.34 7 4.68 7 4 7 C4 6.34 4 5.68 4 5 C2.35 5 0.7 5 -1 5 C-0.67 3.35 -0.34 1.7 0 0 Z " fill="#B0AFAF" transform="translate(91,342)"/>
<path d="M0 0 C1.32 0.99 2.64 1.98 4 3 C4 2.01 4 1.02 4 0 C4.66 0 5.32 0 6 0 C6.33 1.98 6.66 3.96 7 6 C5.02 6.33 3.04 6.66 1 7 C0.34 5.02 -0.32 3.04 -1 1 C-0.67 0.67 -0.34 0.34 0 0 Z " fill="#C1C1BF" transform="translate(257,201)"/>
<path d="M0 0 C0.66 0.33 1.32 0.66 2 1 C0.41450777 5.75647668 0.41450777 5.75647668 -1 8 C-4.1875 9.4375 -4.1875 9.4375 -7 10 C-6.57847656 9.44570312 -6.15695312 8.89140625 -5.72265625 8.3203125 C-5.17480469 7.59585938 -4.62695312 6.87140625 -4.0625 6.125 C-3.51722656 5.40570313 -2.97195313 4.68640625 -2.41015625 3.9453125 C-0.96035376 2.05642921 -0.96035376 2.05642921 0 0 Z " fill="#808087" transform="translate(263,138)"/>
<path d="M0 0 C0.99773437 0.02320312 1.99546875 0.04640625 3.0234375 0.0703125 C4.52777344 0.09738281 4.52777344 0.09738281 6.0625 0.125 C6.83335937 0.14820312 7.60421875 0.17140625 8.3984375 0.1953125 C8.0684375 1.1853125 7.7384375 2.1753125 7.3984375 3.1953125 C3.4384375 2.8653125 -0.5215625 2.5353125 -4.6015625 2.1953125 C-2.6015625 0.1953125 -2.6015625 0.1953125 0 0 Z " fill="#D5D4D5" transform="translate(238.6015625,68.8046875)"/>
<path d="M0 0 C2.25 -0.375 2.25 -0.375 5 0 C7.1875 2.875 7.1875 2.875 9 6 C9.66 6.66 10.32 7.32 11 8 C9.125 7.6875 9.125 7.6875 7 7 C6.34 6.01 5.68 5.02 5 4 C4.01 4 3.02 4 2 4 C1.34 2.68 0.68 1.36 0 0 Z " fill="#7E7C7F" transform="translate(106,390)"/>
<path d="M0 0 C4.29 0 8.58 0 13 0 C13 0.33 13 0.66 13 1 C11.906875 1.309375 10.81375 1.61875 9.6875 1.9375 C7.44592006 2.58337897 5.2130649 3.2623117 3 4 C1.97895449 3.02149805 0.9793879 2.02019573 0 1 C0 0.67 0 0.34 0 0 Z " fill="#AAADAF" transform="translate(172,371)"/>
<path d="M0 0 C2.97 0.495 2.97 0.495 6 1 C5.67 2.32 5.34 3.64 5 5 C2.69 5.66 0.38 6.32 -2 7 C-1.484375 6.21625 -0.96875 5.4325 -0.4375 4.625 C0.036875 3.75875 0.51125 2.8925 1 2 C0.67 1.34 0.34 0.68 0 0 Z " fill="#827D7F" transform="translate(298,258)"/>
<path d="M0 0 C0.99 0.33 1.98 0.66 3 1 C3.94921875 3.28515625 3.94921875 3.28515625 4.6875 6.0625 C4.93886719 6.98160156 5.19023437 7.90070313 5.44921875 8.84765625 C5.63097656 9.55792969 5.81273437 10.26820313 6 11 C5.34 10.67 4.68 10.34 4 10 C4 9.34 4 8.68 4 8 C3.34 8 2.68 8 2 8 C0.74335022 5.09399739 0 3.20395416 0 0 Z " fill="#9E9DA2" transform="translate(339,379)"/>
<path d="M0 0 C1.98 0.495 1.98 0.495 4 1 C4.33 3.31 4.66 5.62 5 8 C3.125 7.6875 3.125 7.6875 1 7 C0.34 6.01 -0.32 5.02 -1 4 C-0.34 4 0.32 4 1 4 C0.67 2.68 0.34 1.36 0 0 Z " fill="#878788" transform="translate(98,373)"/>
<path d="M0 0 C0.99 0.33 1.98 0.66 3 1 C2.25 3.4375 2.25 3.4375 1 6 C-1.125 6.8125 -1.125 6.8125 -3 7 C-2.25 2.25 -2.25 2.25 0 0 Z " fill="#ADA9AB" transform="translate(164,334)"/>
<path d="M0 0 C1.98 0 3.96 0 6 0 C6 0.66 6 1.32 6 2 C7.65 2.33 9.3 2.66 11 3 C10.01 4.485 10.01 4.485 9 6 C7.68 5.67 6.36 5.34 5 5 C5 4.01 5 3.02 5 2 C3.35 1.67 1.7 1.34 0 1 C0 0.67 0 0.34 0 0 Z " fill="#919093" transform="translate(214,287)"/>
<path d="M0 0 C0.99 0.33 1.98 0.66 3 1 C2.25 6.75 2.25 6.75 0 9 C-1.125 2.25 -1.125 2.25 0 0 Z " fill="#9E9CA2" transform="translate(289,390)"/>
<path d="M0 0 C0.99 1.32 1.98 2.64 3 4 C2.25 5.9375 2.25 5.9375 1 8 C-0.32 8.33 -1.64 8.66 -3 9 C-2.01 6.03 -1.02 3.06 0 0 Z " fill="#7D7B7E" transform="translate(148,370)"/>
<path d="M0 0 C1.75 0.125 1.75 0.125 4 1 C6.25 4.0625 6.25 4.0625 8 7 C7.67 7.66 7.34 8.32 7 9 C4.03595495 6.19195732 1.55500981 3.81684226 0 0 Z " fill="#B7BABD" transform="translate(108,364)"/>
<path d="M0 0 C1.32 1.32 2.64 2.64 4 4 C3.01 4.495 3.01 4.495 2 5 C1.67 5.66 1.34 6.32 1 7 C-0.32 6.67 -1.64 6.34 -3 6 C-2.67 4.68 -2.34 3.36 -2 2 C-1.34 2 -0.68 2 0 2 C0 1.34 0 0.68 0 0 Z " fill="#A09FA1" transform="translate(179,241)"/>
<path d="M0 0 C3.8665284 3.222107 4.88059018 6.14922412 6 11 C5.01 10.67 4.02 10.34 3 10 C1.25327015 6.5065403 0 3.93154432 0 0 Z " fill="#D0CECF" transform="translate(388,347)"/>
<path d="M0 0 C2.97 0 5.94 0 9 0 C8.01 1.485 8.01 1.485 7 3 C7.66 3.66 8.32 4.32 9 5 C7.02 5.66 5.04 6.32 3 7 C3.66 5.35 4.32 3.7 5 2 C3.35 1.67 1.7 1.34 0 1 C0 0.67 0 0.34 0 0 Z " fill="#C5C3C4" transform="translate(299,257)"/>
<path d="M0 0 C1.28222189 3.03070628 0.98589446 4.03596914 -0.25 7.1875 C-2 10 -2 10 -5 11 C-3.55049545 7.2089881 -1.84827434 3.6125362 0 0 Z " fill="#6D6D73" transform="translate(332,222)"/>
<path d="M0 0 C1.9375 0.3125 1.9375 0.3125 4 1 C4.33 1.99 4.66 2.98 5 4 C5.66 4 6.32 4 7 4 C6.67 5.32 6.34 6.64 6 8 C4.9970458 6.85675161 3.99770973 5.71032809 3 4.5625 C2.443125 3.92441406 1.88625 3.28632813 1.3125 2.62890625 C0 1 0 1 0 0 Z " fill="#BDBCBD" transform="translate(266,207)"/>
<path d="M0 0 C0.66 1.32 1.32 2.64 2 4 C1.01 5.32 0.02 6.64 -1 8 C-0.67 8.66 -0.34 9.32 0 10 C-0.99 9.67 -1.98 9.34 -3 9 C-2.25 2.25 -2.25 2.25 0 0 Z " fill="#9CA2A7" transform="translate(284,176)"/>
<path d="M0 0 C0.99 0.33 1.98 0.66 3 1 C3.33 1.99 3.66 2.98 4 4 C3.34 4.66 2.68 5.32 2 6 C1.01 6 0.02 6 -1 6 C-1.66 4.68 -2.32 3.36 -3 2 C-2.01 2 -1.02 2 0 2 C0 1.34 0 0.68 0 0 Z " fill="#A6A5A6" transform="translate(227,149)"/>
<path d="M0 0 C0.99 0 1.98 0 3 0 C3 0.66 3 1.32 3 2 C4.98 1.67 6.96 1.34 9 1 C8.67 1.66 8.34 2.32 8 3 C7.01 3 6.02 3 5 3 C5 3.66 5 4.32 5 5 C2.525 4.01 2.525 4.01 0 3 C0 2.01 0 1.02 0 0 Z " fill="#E0E0DF" transform="translate(281,75)"/>
<path d="M0 0 C0.33 0 0.66 0 1 0 C1 4.95 1 9.9 1 15 C-0.32 14.34 -1.64 13.68 -3 13 C-2.34 12.01 -1.68 11.02 -1 10 C-0.54398739 7.49103314 -0.54398739 7.49103314 -0.375 4.8125 C-0.30023438 3.91144531 -0.22546875 3.01039063 -0.1484375 2.08203125 C-0.09945313 1.39496094 -0.05046875 0.70789063 0 0 Z " fill="#A8A7A9" transform="translate(437,384)"/>
<path d="M0 0 C0.66 1.32 1.32 2.64 2 4 C0.33333333 5.66666667 -1.33333333 7.33333333 -3 9 C-3.66 9 -4.32 9 -5 9 C-3.7508258 5.54074837 -2.32472205 2.85306797 0 0 Z " fill="#767377" transform="translate(84,362)"/>
<path d="M0 0 C3 1 3 1 4.25 2.75 C5.17574966 5.52724898 4.77341204 7.21571665 4 10 C0 4 0 4 0 0 Z " fill="#989595" transform="translate(309,343)"/>
<path d="M0 0 C2 1.625 2 1.625 4 4 C4.25 7.25 4.25 7.25 4 10 C3.34 10 2.68 10 2 10 C1.34 6.7 0.68 3.4 0 0 Z " fill="#C3C3C2" transform="translate(190,339)"/>
<path d="M0 0 C1.32 0.66 2.64 1.32 4 2 C4 2.66 4 3.32 4 4 C6.64 4 9.28 4 12 4 C12 4.33 12 4.66 12 5 C10.41753293 5.08153933 8.83383727 5.13943557 7.25 5.1875 C5.92742187 5.23970703 5.92742187 5.23970703 4.578125 5.29296875 C1.55328417 4.94923684 0.24416398 3.99772541 -2 2 C-1.34 1.34 -0.68 0.68 0 0 Z " fill="#979597" transform="translate(259,290)"/>
<path d="M0 0 C1.65 0 3.3 0 5 0 C5.33 0.99 5.66 1.98 6 3 C4.68 3.99 3.36 4.98 2 6 C2 5.34 2 4.68 2 4 C1.01 3.67 0.02 3.34 -1 3 C-0.67 2.01 -0.34 1.02 0 0 Z " fill="#A4A4A4" transform="translate(313,267)"/>
<path d="M0 0 C4.8 3.32307692 4.8 3.32307692 5.8125 6.75 C5.874375 7.4925 5.93625 8.235 6 9 C1.3125 5.484375 1.3125 5.484375 0 4 C0 2.68 0 1.36 0 0 Z " fill="#C4C8CA" transform="translate(292,196)"/>
<path d="M0 0 C0.33 1.32 0.66 2.64 1 4 C-1.4375 6.75 -1.4375 6.75 -4 9 C-4.99 8.67 -5.98 8.34 -7 8 C-4.69 5.36 -2.38 2.72 0 0 Z " fill="#7A7A7E" transform="translate(240,196)"/>
<path d="M0 0 C3.68754757 0.49831724 5.60490662 1.10067643 8 4 C7.01 4.99 6.02 5.98 5 7 C3.35 4.69 1.7 2.38 0 0 Z " fill="#A19DA1" transform="translate(211,174)"/>
<path d="M0 0 C4 1 4 1 6 4 C5.01 4.33 4.02 4.66 3 5 C2.67 6.65 2.34 8.3 2 10 C1.67 10 1.34 10 1 10 C0.67 6.7 0.34 3.4 0 0 Z " fill="#8B898D" transform="translate(338,157)"/>
<path d="M0 0 C2.4375 0.75 2.4375 0.75 5 2 C5.8125 4.125 5.8125 4.125 6 6 C5.34 6 4.68 6 4 6 C3.67 6.99 3.34 7.98 3 9 C2.01 6.03 1.02 3.06 0 0 Z " fill="#979193" transform="translate(332,141)"/>
<path d="M0 0 C0.66 0 1.32 0 2 0 C2 1.32 2 2.64 2 4 C3.32 4.33 4.64 4.66 6 5 C5.34 6.65 4.68 8.3 4 10 C0 4 0 4 0 0 Z " fill="#7D7C7C" transform="translate(181,359)"/>
<path d="M0 0 C2 1 2 1 2.8125 2.875 C3 5 3 5 1.5625 6.75 C1.046875 7.1625 0.53125 7.575 0 8 C-0.12375 7.360625 -0.2475 6.72125 -0.375 6.0625 C-0.684375 5.0415625 -0.684375 5.0415625 -1 4 C-1.66 3.67 -2.32 3.34 -3 3 C-2.01 2.01 -1.02 1.02 0 0 Z " fill="#939595" transform="translate(227,232)"/>
<path d="M0 0 C0 1.32 0 2.64 0 4 C-0.99 4.33 -1.98 4.66 -3 5 C-3 4.34 -3 3.68 -3 3 C-3.66 3 -4.32 3 -5 3 C-5.33 2.01 -5.66 1.02 -6 0 C-3 -1 -3 -1 0 0 Z " fill="#C9C7C7" transform="translate(227,164)"/>
<path d="M0 0 C0.66 0 1.32 0 2 0 C2.8125 1.6875 2.8125 1.6875 3 4 C0.5625 6.75 0.5625 6.75 -2 9 C-2.25 3.375 -2.25 3.375 0 0 Z " fill="#A9AAAB" transform="translate(293,164)"/>
<path d="M0 0 C1.42944945 2.35438733 2.08661261 3.48032433 1.625 6.25 C1.41875 6.8275 1.2125 7.405 1 8 C-0.5 6.75 -0.5 6.75 -2 5 C-2 3.68 -2 2.36 -2 1 C-1.34 0.67 -0.68 0.34 0 0 Z " fill="#C9C4C7" transform="translate(338,146)"/>
<path d="M0 0 C0.66 0.33 1.32 0.66 2 1 C1.625 3.4375 1.625 3.4375 1 6 C0.01 6.495 0.01 6.495 -1 7 C-1.66 5.35 -2.32 3.7 -3 2 C-2.01 1.34 -1.02 0.68 0 0 Z " fill="#CACAC9" transform="translate(294,113)"/>
<path d="M0 0 C-0.66 0 -1.32 0 -2 0 C-2 0.66 -2 1.32 -2 2 C-5.13498292 3.85776765 -7.37471432 4.20140476 -11 4 C-8.94006922 -0.11986157 -4.11800376 -1.37266792 0 0 Z " fill="#87888C" transform="translate(213,76)"/>
<path d="M0 0 C4.29 0 8.58 0 13 0 C13 0.33 13 0.66 13 1 C11.3603125 1.2165625 11.3603125 1.2165625 9.6875 1.4375 C6.06877013 1.88288104 6.06877013 1.88288104 3 3 C2.01 2.67 1.02 2.34 0 2 C0 1.34 0 0.68 0 0 Z " fill="#C7C6CB" transform="translate(255,69)"/>
<path d="M0 0 C1.32 0.33 2.64 0.66 4 1 C4.66 3.31 5.32 5.62 6 8 C1.125 3.375 1.125 3.375 0 0 Z " fill="#B7B8BC" transform="translate(122,385)"/>
<path d="M0 0 C2 1.625 2 1.625 4 4 C4.25 7.25 4.25 7.25 4 10 C1.16625119 6.79663178 0.4794463 4.21912747 0 0 Z " fill="#C5C5C7" transform="translate(203,373)"/>
<path d="M0 0 C3 1 3 1 4.1875 2.75 C5.10819096 5.29960574 5.14948718 7.30923081 5 10 C2.35534962 6.8745041 1.15585285 3.91211733 0 0 Z " fill="#919092" transform="translate(383,368)"/>
<path d="M0 0 C1.9375 0.75 1.9375 0.75 4 2 C4.75 4.125 4.75 4.125 5 6 C4.34 6 3.68 6 3 6 C2.67 6.66 2.34 7.32 2 8 C1.34 5.36 0.68 2.72 0 0 Z " fill="#848485" transform="translate(178,350)"/>
<path d="M0 0 C0.99 0 1.98 0 3 0 C3.99 1.98 4.98 3.96 6 6 C4.02 5.34 2.04 4.68 0 4 C0 2.68 0 1.36 0 0 Z " fill="#87858C" transform="translate(76,344)"/>
<path d="M0 0 C2.97 0.495 2.97 0.495 6 1 C3.73814546 3.26185454 2.03016439 4.03921617 -1 5 C-1.99 4.67 -2.98 4.34 -4 4 C-3 2 -3 2 0 1 C0 0.67 0 0.34 0 0 Z " fill="#706E6E" transform="translate(289,285)"/>
<path d="M0 0 C0.598125 0.350625 1.19625 0.70125 1.8125 1.0625 C1.1525 1.0625 0.4925 1.0625 -0.1875 1.0625 C0.1425 2.3825 0.4725 3.7025 0.8125 5.0625 C-2.34865776 3.69266497 -3.1802092 3.0734362 -5.1875 0.0625 C-2.1875 -0.9375 -2.1875 -0.9375 0 0 Z " fill="#9C9BA0" transform="translate(288.1875,247.9375)"/>
<path d="M0 0 C1.65 0 3.3 0 5 0 C5.33 1.32 5.66 2.64 6 4 C5.01 4.33 4.02 4.66 3 5 C1.5 3.625 1.5 3.625 0 2 C0 1.34 0 0.68 0 0 Z " fill="#CBCCCC" transform="translate(299,209)"/>
<path d="M0 0 C0 3 0 3 -1 7 C-2.65 4.69 -4.3 2.38 -6 0 C-2 -1 -2 -1 0 0 Z " fill="#959395" transform="translate(271,192)"/>
<path d="M0 0 C1.32 0.33 2.64 0.66 4 1 C4 1.99 4 2.98 4 4 C2.02 4.66 0.04 5.32 -2 6 C-1.49396008 3.83125748 -1.00016187 2.00032373 0 0 Z " fill="#C3C2C1" transform="translate(229,170)"/>
<path d="M0 0 C0.66 0 1.32 0 2 0 C2 0.66 2 1.32 2 2 C1.34 2 0.68 2 0 2 C-0.0825 2.598125 -0.165 3.19625 -0.25 3.8125 C-1.20455872 6.5966296 -2.57132271 7.43311142 -5 9 C-5.66 8.67 -6.32 8.34 -7 8 C-5.88200014 6.66079162 -4.75538103 5.32877444 -3.625 4 C-2.68527344 2.88625 -2.68527344 2.88625 -1.7265625 1.75 C-1.15679687 1.1725 -0.58703125 0.595 0 0 Z " fill="#7A7B7E" transform="translate(283,153)"/>
<path d="M0 0 C4.875 4.75 4.875 4.75 6 7 C5.01 7.33 4.02 7.66 3 8 C0.37613513 4.93882432 0 4.26826873 0 0 Z " fill="#9C9C9C" transform="translate(213,148)"/>
<path d="M0 0 C0.99 0.495 0.99 0.495 2 1 C2 1.66 2 2.32 2 3 C2.66 3 3.32 3 4 3 C4.66 4.32 5.32 5.64 6 7 C4.35 6.67 2.7 6.34 1 6 C0.67 4.02 0.34 2.04 0 0 Z " fill="#C0C0C2" transform="translate(233,135)"/>
<path d="M0 0 C0.99 0.99 1.98 1.98 3 3 C1.3125 5.0625 1.3125 5.0625 -1 7 C-3.75 6.75 -3.75 6.75 -6 6 C-3 4 -3 4 0 4 C0 2.68 0 1.36 0 0 Z " fill="#E1DEDD" transform="translate(306,104)"/>
<path d="M0 0 C1.32 0.66 2.64 1.32 4 2 C1.36 3.65 -1.28 5.3 -4 7 C-3.67 5.68 -3.34 4.36 -3 3 C-2.01 3 -1.02 3 0 3 C0 2.01 0 1.02 0 0 Z " fill="#88878A" transform="translate(203,96)"/>
<path d="M0 0 C2.97 0.33 5.94 0.66 9 1 C9 1.66 9 2.32 9 3 C6.21176345 4.0326802 5.1322726 4.04509293 2.25 3.0625 C1.5075 2.711875 0.765 2.36125 0 2 C0 1.34 0 0.68 0 0 Z " fill="#D4CFD1" transform="translate(279,88)"/>
<path d="M0 0 C-0.75 4.75 -0.75 4.75 -3 7 C-4 6 -4 6 -4.0625 3.4375 C-4.041875 2.633125 -4.02125 1.82875 -4 1 C-2 0 -2 0 0 0 Z " fill="#9E9FA0" transform="translate(413,368)"/>
<path d="M0 0 C2.31 0 4.62 0 7 0 C7 0.33 7 0.66 7 1 C5.35 1.33 3.7 1.66 2 2 C2.66 3.65 3.32 5.3 4 7 C3.34 7 2.68 7 2 7 C0 4 0 4 0 0 Z " fill="#A8A6AB" transform="translate(63,325)"/>
<path d="M0 0 C1.9375 0.8125 1.9375 0.8125 4 2 C4.33 2.99 4.66 3.98 5 5 C3.35 5 1.7 5 0 5 C0 3.35 0 1.7 0 0 Z M5 2 C7 3 7 3 7 3 Z " fill="#BEBEBC" transform="translate(279,274)"/>
<path d="M0 0 C1 2 1 2 0.375 4.5625 C-1 7 -1 7 -3.625 7.8125 C-4.40875 7.874375 -5.1925 7.93625 -6 8 C-4.02 5.36 -2.04 2.72 0 0 Z " fill="#646376" transform="translate(202,201)"/>
<path d="M0 0 C1.04449911 3.13349732 0.93423645 3.98968256 0 7 C-1.32 6.34 -2.64 5.68 -4 5 C-3.67 3.68 -3.34 2.36 -3 1 C-2.01 1.33 -1.02 1.66 0 2 C0 1.34 0 0.68 0 0 Z " fill="#A6A5A5" transform="translate(229,193)"/>
<path d="M0 0 C0.99 0.99 1.98 1.98 3 3 C2.8125 5.625 2.8125 5.625 2 8 C1.01 8.495 1.01 8.495 0 9 C0 6.03 0 3.06 0 0 Z " fill="#A1A0A2" transform="translate(239,179)"/>
<path d="M0 0 C0 3 0 3 -1 6 C-3.0625 6.6875 -3.0625 6.6875 -5 7 C-4.60196439 4.11424181 -4.20990931 3.17810487 -1.9375 1.25 C-1.298125 0.8375 -0.65875 0.425 0 0 Z " fill="#C0C1C4" transform="translate(280,159)"/>
<path d="M0 0 C1.65 1.65 3.3 3.3 5 5 C4.67 5.66 4.34 6.32 4 7 C3.566875 6.505 3.13375 6.01 2.6875 5.5 C1.00259517 3.66781808 1.00259517 3.66781808 -2 4 C-2.33 3.34 -2.66 2.68 -3 2 C-2.01 1.34 -1.02 0.68 0 0 Z " fill="#969697" transform="translate(230,153)"/>
<path d="M0 0 C3.08089673 2.77280706 4.68775452 5.06326356 6 9 C5.34 9 4.68 9 4 9 C2.7109375 7.46875 2.7109375 7.46875 1.375 5.5 C0.92898437 4.8503125 0.48296875 4.200625 0.0234375 3.53125 C-0.31429687 3.0259375 -0.65203125 2.520625 -1 2 C-0.67 1.34 -0.34 0.68 0 0 Z " fill="#4C4B50" transform="translate(188,146)"/>
<path d="M0 0 C0.66 0.33 1.32 0.66 2 1 C0.02 3.97 0.02 3.97 -2 7 C-2.33 6.34 -2.66 5.68 -3 5 C-3.66 4.67 -4.32 4.34 -5 4 C-3.35 2.68 -1.7 1.36 0 0 Z " fill="#A0A1A0" transform="translate(199,98)"/>
<path d="M0 0 C2.5 1.8125 2.5 1.8125 5 4 C5 4.99 5 5.98 5 7 C3.0625 6.3125 3.0625 6.3125 1 5 C0.25 2.375 0.25 2.375 0 0 Z " fill="#C9CAD0" transform="translate(316,91)"/>
<path d="M0 0 C0.66 0.33 1.32 0.66 2 1 C1.67 1.99 1.34 2.98 1 4 C-0.98 4.33 -2.96 4.66 -5 5 C-4 2 -4 2 -2.0625 0.75 C-1.381875 0.5025 -0.70125 0.255 0 0 Z " fill="#A0A1A5" transform="translate(200,80)"/>
<path d="M0 0 C0.33 0 0.66 0 1 0 C1.25 3.3125 1.25 3.3125 1 7 C-0.32 7.99 -1.64 8.98 -3 10 C-2.01 6.7 -1.02 3.4 0 0 Z " fill="#7C7D7E" transform="translate(158,343)"/>
<path d="M0 0 C0.99 0.33 1.98 0.66 3 1 C4.1875 4.0625 4.1875 4.0625 5 7 C4.01 7.33 3.02 7.66 2 8 C1.34 7.01 0.68 6.02 0 5 C0.66 5 1.32 5 2 5 C1.34 3.35 0.68 1.7 0 0 Z " fill="#7F7C7F" transform="translate(70,334)"/>
<path d="M0 0 C1.32 0.33 2.64 0.66 4 1 C3.67 1.66 3.34 2.32 3 3 C2.34 3 1.68 3 1 3 C1 3.66 1 4.32 1 5 C-0.32 4.34 -1.64 3.68 -3 3 C-2.01 2.67 -1.02 2.34 0 2 C0 1.34 0 0.68 0 0 Z " fill="#8E8D8F" transform="translate(324,260)"/>
<path d="M0 0 C5.75 1.75 5.75 1.75 8 4 C7.67 4.99 7.34 5.98 7 7 C5.83040013 6.02433888 4.66438823 5.044375 3.5 4.0625 C2.8503125 3.51722656 2.200625 2.97195313 1.53125 2.41015625 C1.0259375 1.94480469 0.520625 1.47945313 0 1 C0 0.67 0 0.34 0 0 Z " fill="#BEBCC0" transform="translate(195,260)"/>
<path d="M0 0 C2.875 0.25 2.875 0.25 6 1 C7.375 3.0625 7.375 3.0625 8 5 C4.62496331 3.8141763 2.35277269 2.72426311 0 0 Z " fill="#D7D6D9" transform="translate(299,241)"/>
<path d="M0 0 C0 2.87137415 -0.27113266 5.2303041 -1 8 C-1.99 8.495 -1.99 8.495 -3 9 C-3.33 8.01 -3.66 7.02 -4 6 C-2.84338843 3.79192337 -1.77322566 1.77322566 0 0 Z " fill="#8E8D92" transform="translate(217,224)"/>
<path d="M0 0 C3.00198845 3.00198845 3.95992537 4.95805953 4.125 9.25 C4.08375 10.1575 4.0425 11.065 4 12 C2.09681116 9.14521674 1.5380901 7.58058692 0.875 4.3125 C0.70742187 3.50425781 0.53984375 2.69601563 0.3671875 1.86328125 C0.24601563 1.24839844 0.12484375 0.63351563 0 0 Z " fill="#7A797B" transform="translate(146,213)"/>
<path d="M0 0 C1.32 0 2.64 0 4 0 C5.0625 1.8125 5.0625 1.8125 6 4 C5.67 4.99 5.34 5.98 5 7 C4.67 6.01 4.34 5.02 4 4 C3.34 4 2.68 4 2 4 C1.34 2.68 0.68 1.36 0 0 Z " fill="#99979F" transform="translate(278,207)"/>
<path d="M0 0 C1.875 0.3125 1.875 0.3125 4 1 C4.66 1.99 5.32 2.98 6 4 C5.34 4.66 4.68 5.32 4 6 C2.62437146 4.71034824 1.29233607 3.37310707 0 2 C0 1.34 0 0.68 0 0 Z " fill="#BABABD" transform="translate(287,192)"/>
<path d="M0 0 C1.67542976 0.28604898 3.34385343 0.61781233 5 1 C5 1.99 5 2.98 5 4 C4.01 4.33 3.02 4.66 2 5 C1.01 3.68 0.02 2.36 -1 1 C-0.67 0.67 -0.34 0.34 0 0 Z " fill="#C0C0C0" transform="translate(234,177)"/>
<path d="M0 0 C0.99 1.32 1.98 2.64 3 4 C2.34 4.66 1.68 5.32 1 6 C-0.32 6 -1.64 6 -3 6 C-3 3 -3 3 -1.5 1.3125 C-0.7575 0.6628125 -0.7575 0.6628125 0 0 Z " fill="#929293" transform="translate(269,132)"/>
<path d="M0 0 C1.98 0 3.96 0 6 0 C5.34 1.65 4.68 3.3 4 5 C2 3.625 2 3.625 0 2 C0 1.34 0 0.68 0 0 Z " fill="#D6D5D6" transform="translate(322,121)"/>
<path d="M0 0 C0.66 0.33 1.32 0.66 2 1 C1.4375 2.875 1.4375 2.875 0 5 C-3.625 6.25 -3.625 6.25 -7 7 C-4.66666667 4.66666667 -2.33333333 2.33333333 0 0 Z " fill="#919395" transform="translate(285,116)"/>
<path d="M0 0 C-2.3125 2.0625 -2.3125 2.0625 -5 4 C-5.99 3.67 -6.98 3.34 -8 3 C-8 2.01 -8 1.02 -8 0 C-4.71303767 -0.79953138 -3.28976808 -1.09658936 0 0 Z " fill="#A8A6A9" transform="translate(218,90)"/>
<path d="M0 0 C0.99 0.495 0.99 0.495 2 1 C2 1.66 2 2.32 2 3 C2.99 2.67 3.98 2.34 5 2 C5.66 2.66 6.32 3.32 7 4 C5.02 4.99 5.02 4.99 3 6 C0 2.25 0 2.25 0 0 Z " fill="#A2A2A4" transform="translate(328,388)"/>
<path d="M0 0 C2 3 2 3 3 6 C2.01 6.33 1.02 6.66 0 7 C-0.66 6.67 -1.32 6.34 -2 6 C-1.34 4.02 -0.68 2.04 0 0 Z " fill="#AEAEAE" transform="translate(203,376)"/>
<path d="M0 0 C0.66 0 1.32 0 2 0 C0.8141763 3.37503669 -0.27573689 5.64722731 -3 8 C-2.45276317 4.62537285 -1.9451 2.91765 0 0 Z " fill="#7A7B81" transform="translate(122,336)"/>
<path d="M0 0 C1.875 0.3125 1.875 0.3125 4 1 C4.66 1.99 5.32 2.98 6 4 C5.67 4.99 5.34 5.98 5 7 C4.67 6.01 4.34 5.02 4 4 C3.34 4 2.68 4 2 4 C1.34 2.68 0.68 1.36 0 0 Z " fill="#858285" transform="translate(162,248)"/>
<path d="M0 0 C1.2065625 0.0309375 1.2065625 0.0309375 2.4375 0.0625 C0.7875 1.7125 -0.8625 3.3625 -2.5625 5.0625 C-3.125 3.125 -3.125 3.125 -3.5625 1.0625 C-2.5625 0.0625 -2.5625 0.0625 0 0 Z " fill="#78777B" transform="translate(224.5625,239.9375)"/>
<path d="M0 0 C1.32 0.66 2.64 1.32 4 2 C2.68 3.32 1.36 4.64 0 6 C-0.38218767 4.34385343 -0.71395102 2.67542976 -1 1 C-0.67 0.67 -0.34 0.34 0 0 Z " fill="#8A8A8C" transform="translate(218,206)"/>
<path d="M0 0 C0.66 0 1.32 0 2 0 C2 0.66 2 1.32 2 2 C2.66 2 3.32 2 4 2 C4 2.66 4 3.32 4 4 C1.625 5.6875 1.625 5.6875 -1 7 C-1.66 6.67 -2.32 6.34 -3 6 C-2.505 5.566875 -2.01 5.13375 -1.5 4.6875 C0.33218192 3.00259517 0.33218192 3.00259517 0 0 Z " fill="#6E6C6E" transform="translate(217,181)"/>
<path d="M0 0 C0.598125 0.309375 1.19625 0.61875 1.8125 0.9375 C4.08956772 2.10209704 4.08956772 2.10209704 7 3 C7 3.66 7 4.32 7 5 C6.01 5.33 5.02 5.66 4 6 C0 1.125 0 1.125 0 0 Z " fill="#A1A0A1" transform="translate(238,167)"/>
<path d="M0 0 C2.25245881 2.68841859 3.88213958 4.64641875 5 8 C4.34 8 3.68 8 3 8 C0.8125 5.6875 0.8125 5.6875 -1 3 C-0.67 2.01 -0.34 1.02 0 0 Z " fill="#B6B6B9" transform="translate(246,150)"/>
<path d="M0 0 C0.33 0 0.66 0 1 0 C0.67 2.64 0.34 5.28 0 8 C-0.99 8 -1.98 8 -3 8 C-1.125 2.25 -1.125 2.25 0 0 Z " fill="#818184" transform="translate(154,127)"/>
<path d="M0 0 C0.66 1.32 1.32 2.64 2 4 C0.71034824 5.37562854 -0.62689293 6.70766393 -2 8 C-2.66 8 -3.32 8 -4 8 C-2.87548273 5.0280615 -1.77706209 2.66559313 0 0 Z " fill="#767581" transform="translate(161,115)"/>
<path d="M0 0 C2.64 0 5.28 0 8 0 C8.33 1.32 8.66 2.64 9 4 C6.03 3.01 3.06 2.02 0 1 C0 0.67 0 0.34 0 0 Z " fill="#868388" transform="translate(280,91)"/>
<path d="M0 0 C1.98 0.99 3.96 1.98 6 3 C5.34 3.66 4.68 4.32 4 5 C1.06546739 4.63318342 0.13562754 4.13562754 -2 2 C-1.34 2 -0.68 2 0 2 C0 1.34 0 0.68 0 0 Z " fill="#B9BABB" transform="translate(306,84)"/>
</svg>
